<?xml version="1.0" encoding="utf-8"?>
<!-- Generator: Adobe Illustrator 18.1.0, SVG Export Plug-In . SVG Version: 6.00 Build 0)  -->
<!DOCTYPE svg PUBLIC "-//W3C//DTD SVG 1.1//EN" "http://www.w3.org/Graphics/SVG/1.1/DTD/svg11.dtd">
<svg version="1.1" xmlns="http://www.w3.org/2000/svg" xmlns:xlink="http://www.w3.org/1999/xlink" x="0px" y="0px"
	 viewBox="0 0 300 140" enable-background="new 0 0 300 140" xml:space="preserve">
<g id="Lag_1" display="none">
	<g display="inline">
		<path fill="#61737A" d="M198.7,73.1c0.5-1.7,2.2-2.8,2.4-4.6c0.4-2,1-4.1-1-5.7c-0.4-0.3-0.5-1.1-0.1-1.7c0.1-0.1,0.3-0.3,0.4-0.4
			c1-1.1,3.4,0,3.5-1.6c0.3-2.7,1-5.6,0-8.3c-0.4-1.1-0.8-1.8-0.3-3c0.4-1,0.4-1.8-1.2-1.1c-1.5,0.7-2.3-1-3.2-1.8
			c-0.8-0.8-0.1-1.7,0.8-2.1c0.6-0.3,0.7-0.8,0.3-1.2c-1.5-1.3-0.4-2.6,0-3.9c-2.2-0.5-4.5,0-6.6-1.3c-2.2-1.3-3.7-2.5-1.2-4.9
			c0.5-0.4,0.9-1,0.1-1.4c-0.8-0.5-1.5-1.5-2.7-1.1c-0.6,0.2-1,0.6-1.6,0.9c-0.9-1.1-0.4-2.4-0.5-3.6c0.2-1.2,1.1-1.9,1.8-2.8
			c1.2-1.1,0.6-2.7,1.1-3.9c0.4-0.1,0.8-0.1,1.2-0.2c1,0.4,2,1,2.8,1.7c0.5,0.6,0.8,1.2,0.7,2c-0.1,0.7-0.7,1.2-1.1,1.8
			c-0.8,1.4-0.3,2.5,0.8,3.4c0.8,0.7,1.9,1.1,2.5,2.1c0.3,0.6,0.4,1.3-0.1,1.9c0.7-0.4,1.4-0.7,2.2-0.8c0.9,1.5,1.6-0.2,2.4-0.2
			c1.6-0.1,2.5,0.5,2.6,2.2c0,0.6,0,1.1,0.1,1.7c0.1,1.3,1,2.2,1.5,3.3c0.8,1.8,1.2,3.8,3.6,4.3c0.3,0.7,0.4,1.4,0.3,2.1
			c0,1.6-1.4,2.6-1.7,4.1c-1.4,2.2,0.6,2.9,1.7,4.1c0,0.2,0.1,0.5,0,0.6c-2.8,1.5-2.2,3.6-1,5.8c-0.1,1.7-0.7,3.4-0.8,5.1
			c0,0.4-0.1,0.8-0.2,1.2c-0.5,1-0.2,2,0.3,2.9c0,0.6-0.3,1-0.9,1.3c-0.5,0.3-1.6-0.9-1.7,0.8c0,0.9-0.9,1.7-1.8,2.2
			c-1.7-0.3-2,1.4-3,2.1c-0.8,0.6-1.7,1.3-2.7,0.7C197.3,74.9,198.5,74,198.7,73.1z"/>
		<path fill="#61737A" d="M59.5,112.6c0,1.5-0.1,3.1,0,4.6c0.1,1.6-0.3,2.4-2.1,2.4c-1.7,0-2-0.8-2-2.3c0.1-2.7,0-5.5,0-8.2
			c0-1.6,0.2-3.4-2.3-3.3c-2.2,0.1-2.6,1.3-2.5,3.2c0.1,2.8,0,5.7,0.1,8.5c0,1.3-0.3,2-1.9,2c-1.6,0-2.2-0.5-2.1-2.1
			c0.1-2.9,0-5.9,0-8.8c0-1.5-0.2-3-2.2-2.8c-1.6,0.2-2.8,0.8-2.7,2.9c0.2,2.9,0,5.9,0.1,8.8c0,1.4-0.3,2-1.8,2
			c-1.6,0-2.2-0.5-2.1-2.1c0.1-4.3,0.1-8.5,0-12.8c-0.1-1.9,0.8-2.5,2.3-2c1.7,0.6,3.3-0.4,4.8-0.1c3.5,0.5,6.8,0,10.3-0.1
			c2.8-0.1,4,2.2,4.2,4.7C59.6,108.9,59.5,110.8,59.5,112.6C59.5,112.6,59.5,112.6,59.5,112.6z"/>
		<path fill="#61737A" d="M94.8,119.1c-6.2,1.9-6.5-3.8-9.7-6.5c0,1.8-0.1,3.3,0,4.8c0.1,1.6-0.5,2.1-2.1,2.1c-1.4,0-2-0.5-2-1.9
			c0-6.4,0-12.8,0-19.2c0-1.5,0.6-1.9,2-1.9c1.6,0,2.1,0.5,2.1,2.1c-0.1,3.4,0,6.8,0,10.5c3.3-2.2,3.7-8,9.6-6.2
			c-1.7,2.1-3.2,4.2-4.8,6c-1.1,1.2-1.2,2-0.1,3.3C91.5,114.3,93,116.6,94.8,119.1z"/>
		<path fill="#61737A" d="M215.2,119.5c-0.8,0-1.6,0-2.4,0c-4.5,0-5.2-0.8-4.1-5.3c0.7-2.9,2.6-5,5-6.6c1.4-0.9,2.7-1.8,4-2.8
			c1-0.7,1.3-1.8,1-3c-0.4-1.3-1.5-1.6-2.7-1.6c-1.8,0.1-3.6,0.1-5.5,0.3c-0.8,0.1-1.7,0.4-1.9-0.8c-0.1-0.9-0.1-1.9,1.1-2.1
			c3.3-0.7,6.7-1.1,9.9,0.1c3.6,1.4,4.1,6.2,1,9.1c-1.5,1.4-3.4,2.5-5.1,3.8c-0.7,0.5-1.3,1-1.9,1.5c-1,0.9-2,2.1-1.5,3.4
			c0.5,1.3,2,0.5,3,0.5c1.8,0.1,3.7,0.1,5.5,0c1.3,0,1.8,0.3,1.8,1.7c0,1.3-0.5,1.8-1.8,1.8C218.8,119.4,217,119.5,215.2,119.5z"/>
		<path fill="#61737A" d="M77.2,111.2c0,1.9-0.2,3.9,0,5.8c0.3,2.8-1.6,3.1-3.1,2.3c-1.4-0.7-2.2-0.3-3.2,0
			c-4.2,1.3-7.2-0.5-7.5-4.7c-0.2-3.4,0-6.9-0.1-10.3c0-1.4,0.6-1.7,1.9-1.7c1.2,0,2.3-0.1,2.2,1.6c-0.1,2.8,0,5.7,0,8.5
			c0,1.8,0,3.7,2.6,3.5c2.2-0.1,3.6-0.9,3.3-3.5c-0.2-2.7,0-5.5-0.1-8.2c-0.1-1.7,0.8-1.9,2.2-2c1.5,0,1.9,0.6,1.9,2
			C77.2,106.7,77.2,109,77.2,111.2z"/>
		<path fill="#61737A" d="M249.3,101.7c-1.1-0.4-1.7,0.4-2.5,0.3c-0.7,0-1.8,1.4-2.1-0.3c-0.2-1.1-0.7-2.5,1.1-3
			c0.1,0,0.2-0.1,0.3-0.1c6.6-2.9,7.4-2.3,7.4,4.7c0,3.5,0.1,6.9,0,10.4c-0.1,1.8,0.3,2.7,2.3,2.4c1.2-0.2,2.4-0.2,2.3,1.7
			c-0.1,2-1.3,1.7-2.5,1.7c-2.9,0-5.9,0-8.8,0c-1.2,0-2.2,0-2.2-1.7c0-1.6,0.8-2,2.1-1.7c2.5,0.4,2.8-0.8,2.7-2.9
			C249.2,109.3,249.3,105.4,249.3,101.7z"/>
		<path fill="#61737A" d="M198.7,73.1c0.4,0.7-1,2.1,0.4,2.2c1.2,0.2,2.6-1,2.8-2c0.4-2.3,1.3-1.4,2.3-0.6c0.5,1.1-0.4,1.6-0.9,2.2
			c-0.7,0.7-0.8,1.3,0,1.9c0.9,1.2,1,2.5,0.5,3.9c-0.3,0.6-0.6,1.1-1.4,1.1c-1.8-0.6-2.7,1.5-4.4,1.2c-0.1-0.1-0.1-0.2-0.2-0.2
			c-0.7-0.9,0.1-2.9-1.7-2.7c-1.5,0.1-1.3,1.8-1.6,2.9c-0.2,0.7-0.6,1.2-1.3,1.6c-1.3,0.9,0,2.4-0.9,3.4c-0.2,0.2-0.4,0.3-0.7,0.4
			c-1.4,0-2.9-0.7-4.2,0.5c-0.6,0.1-1.1-0.1-1.6-0.3c-2.4-0.1-4.7,1-7.1,0c-1-2.2-2.6-4.3-1.2-6.9c0.8,0.4,1.6,0.9,2.4,1.3
			c2.3,0.8,4.7,1.5,6.7-0.6c1.1-0.6,2.5-0.9,2.8-2.4c2.2-1.4,3.9-3.4,6.4-4.4C196.7,74.8,197.7,74,198.7,73.1z"/>
		<path fill="#61737A" d="M123.7,78.8c-0.5-0.5-0.7-1.1-0.5-1.8c0.7-0.6,1.3-0.2,1.9,0.1c0.8,0.4,1.7,1.2,2.3,0c0.5-1-0.2-1.7-1-2.3
			c-0.3-0.2-0.7-0.4-1-0.7c-0.6-1.4,0.3-2.6,0.5-3.9c0.2-0.2,0.5-0.3,0.7-0.4c0.2,0,0.4,0,0.6,0c1.1,0,2.6,1.4,3.2,0.1
			c0.6-1.2-1.5-1.1-2-2.1c-0.1-0.3-0.2-0.6-0.1-0.9c0.7-1.9,0.5-3.8,0.7-5.8c1.5-2.1,3-4.2,5.9-4.5c0.8,0.7,0.3,1.3,0,2
			c-0.2,0.3-0.6,0.6-0.8,0.9c-0.5,0.9-2.1,1.4-1.5,2.6c0.6,1.4,2.1,0.5,3.2,0.6c1.3,1,0.3,1.7-0.2,2.5c-0.7,0.6-1.5,0.9-0.4,2
			c1.3,1.3,2.9,1.8,4.2,2.9c0.1,0.3,0.1,0.5,0.1,0.8c-0.4,0.7-1,1-1.8,1c-0.3,0-0.7-0.2-0.8,0c-0.1,0.2,0.3,0.3,0.4,0.4
			c0.3,0.3,0.5,0.6,0.7,0.9c0.3,1.1,0.8,2.3-0.5,3.2c-0.2,0-0.4,0-0.6-0.1c-1.2-0.7-1.8-3.4-3.8-1.6c-1.5,1.4-2.4,3.3-0.8,5.4
			c0.6,0.8,1.8,0.9,2.2,2c-1.9,2.9-3.3,3.3-5.4,1.6c-0.4-1.6-1.5-2.5-3.1-2.8C125.1,80.6,124.1,80.1,123.7,78.8z"/>
		<path fill="#61737A" d="M133.5,105.6c-1.1,0.3-3.1-0.9-3.6,0.8c-0.5,1.7,1.8,1.8,2.8,2.7c0.5,0.5,1.2,0.8,1.8,1.1
			c2.3,1.4,3.8,3.2,2.9,6c-0.9,2.8-3.2,3.4-5.8,3.4c-1.5,0-3-0.3-4.5-0.5c-1.3-0.1-1.3-1.1-1.3-2c0.1-1.2,0.9-1.2,1.7-1.1
			c1.4,0.1,2.8,0.3,4.2,0.3c0.7,0,1.5-0.2,1.7-1c0.2-0.8-0.3-1.4-0.9-1.7c-1.4-0.9-2.8-1.7-4.1-2.5c-2-1.3-3.3-3.1-2.6-5.7
			c0.7-2.5,2.8-3.1,5-3.1c1.5-0.1,3,0.3,4.5,0.3c1.4,0.1,2,0.7,1.9,2.1c-0.2,1.8-1.4,1-2.3,1C134.5,105.7,134.1,105.7,133.5,105.6z"
			/>
		<path fill="#61737A" d="M30.6,105.6c-1.2,0.2-3.2-0.8-3.7,0.8c-0.6,1.7,1.8,1.8,2.7,2.7c0.1,0.1,0.4,0.2,0.5,0.3
			c4.3,2.7,5.5,5.1,3.8,7.9c-1.4,2.3-7.7,3.3-10.4,1.8c-1-0.6-0.7-1.4-0.7-2.1c0-1.1,0.8-0.9,1.5-0.9c1.2,0.1,2.4,0.3,3.6,0.3
			c0.9,0,1.9,0.1,2.3-1c0.4-1.1-0.6-1.6-1.3-2.1c-1.3-0.8-2.6-1.6-3.9-2.4c-2-1.3-2.9-3.1-2.4-5.5c0.5-2.5,2.5-3.1,4.6-3.2
			c1.6-0.1,3.2,0.2,4.8,0.3c1.4,0.1,2,0.6,2,2.1c-0.1,1.8-1.3,1.1-2.2,1C31.6,105.7,31.2,105.7,30.6,105.6z"/>
		<path fill="#61737A" d="M99.3,112.3c0-1.4-0.1-2.8,0-4.3c0.1-1.6,0-2.9-2.1-2.9c-0.9,0-1.1-0.7-1.1-1.5c0-1,0.7-1.2,1.4-1.1
			c1.7,0.2,1.6-0.8,1.8-2c0.4-3.4,2.6-5,6-4.3c0.8,0.2,1.6,0.4,1.6,1.4c0,1-0.4,1.5-1.4,1.5c-1.2,0-2.1,0.4-2.1,1.9
			c-0.1,1.6,0.9,1.5,2,1.4c1-0.1,1.5,0.4,1.4,1.4c0,0.9-0.2,1.7-1.3,1.6c-2.3-0.3-2.1,1.2-2,2.6c0,2.9,0,5.9,0,8.8
			c0,1.4,0,2.6-2,2.5c-1.9,0-2.2-0.8-2.1-2.4C99.4,115.5,99.3,113.9,99.3,112.3z"/>
		<path fill="#61737A" d="M142.6,111.5c0-1.1-0.1-2.2,0-3.3c0.1-1.6,0.1-3.1-2.2-3.1c-0.9,0-1.3-0.5-1.3-1.4c0-1.2,0.8-1.2,1.7-1.2
			c1,0,1.9,0.1,1.7-1.3c-0.3-2,1.3-2,2.5-2.2c2-0.3,1.4,1.2,1.4,2.2c0,1.1,0.5,1.4,1.5,1.3c0.9-0.1,1.9-0.1,1.8,1.3
			c0,1.1-0.4,1.8-1.6,1.6c-1.7-0.2-1.8,0.8-1.7,2.1c0,1.8,0,3.7,0,5.5c0,1.7-0.6,3.9,2.5,3.6c0.8-0.1,0.8,0.7,0.9,1.3
			c0,0.9-0.3,1.5-1.3,1.7c-3.6,1-6-0.8-6.1-4.5C142.6,114,142.6,112.8,142.6,111.5z"/>
		<path fill="#61737A" d="M136.5,36c0.6,0.1,1.2,0.5,1.8,0.1c0.2-0.3,0.4-0.3,0.5,0c0.2,2.3,1.7,3.5,3.7,4.2
			c0.5,0.9,0.4,1.8,0.2,2.7c-0.9,1.3-2,2.5-1.9,4.2c-0.2,0.4-0.4,0.7-0.7,1.1c-3,1.1-5.1-0.5-6.9-2.6c-0.3-0.3-0.5-0.6-1-0.7
			c0.4,0.3,0.7,0.6,0.8,1.1c0.9,3.4-1.6,4-3.9,4.7c-0.9,0.4-1.9,0.6-2.8,0c-1.1-1.2-1.3-2.5-0.3-3.8c2.7-1.4,3.6-4.1,4.7-6.7
			c0.6-0.5,1.2-0.8,1.9-0.7c2.2,0.5,2.9-0.8,3.2-2.6C136,36.7,136.1,36.3,136.5,36z"/>
		<path fill="#61737A" d="M215.8,28.2c0.6,0.7,0.9,1.6,0.7,2.5c-0.4,2,0.5,2.9,2.3,3.4c0.6,0.9-0.1,1.4-0.5,2.1
			c1.4,1.3-0.1,2.1-0.6,3c-0.1,1.3,0,2.7-1.6,3.3c-2,0.7-3.9,1-5.8-0.4c-0.8-0.9-1.4-1.9-1.7-3c-0.2-1.3-0.3-2.5,0.6-3.6
			c1.1-0.8,2.5-0.6,3.8-0.9c-0.6-1.7-2.2-2.5-3.3-3.6c-0.1-0.3-0.2-0.5-0.3-0.8c0.1-1.1,0.7-1.9,1.5-2.5
			C213.4,29,213.4,29,215.8,28.2z"/>
		<path fill="#61737A" d="M193.3,117c-0.2,1.5,0.3,2.2,2,2.2c1.6,0.1,3.2,0.6,3.8,2.4c1,3,3.3,3.3,6.1,3.1c2.3-0.2,4.8-0.9,7,0.6
			c0.3,0.3,0.3,0.6,0,0.9c-1.7-1.1-3.5-1.1-5.5-0.6c-3,0.8-6.1,1.3-9-0.3c-0.7-2-2.3-2.9-4.1-3.7c-3.9-1.7-5.6-5.1-4.4-8.3
			c1.3-1.3,1.1-4.2,4-3.9C196,111.9,194,114.4,193.3,117z"/>
		<path fill="#61737A" d="M153.6,74.5c5.1,1.2,10.2,2.4,15.3,3.6c-0.1,0.1-0.1,0.2-0.2,0.4c-1.9,0.9-2.3,2.8-3.3,4.5
			c-1,0.9-1.9,0.4-2.8-0.1c-1.3-1.5-2.6-1.6-4-0.1c-0.7,0.8-1.4,1.7-2.6,1.7c-0.9-0.6-1.4-1.4-1.6-2.5c0.3-2.2,1.3-4.4-1.2-6
			C153.1,75.4,152,74.6,153.6,74.5z"/>
		<path fill="#61737A" d="M196.2,96c5.3,6.3,5.2,11.4-0.5,17.2c-1.2-1-0.6-2.8-1.9-3.8c-3-0.5-2.8-2.8-3-5c-0.1-1.4-0.1-2.9,0.3-4.2
			c0.3-0.9,0.8-1.8,1.8-1.9c1-0.1,1.7,0.7,2,1.6c0.9,2.9,2.4,5.7,2.1,7.8c0.8-3,0.5-6.8-2.2-10.2c-0.5-0.6-1-1.6,0-2.4
			C195.6,94.9,196,95.3,196.2,96z"/>
		<path fill="#61737A" d="M164.3,127c1.1-1.3,2.8-1.3,4.3-1.7c1.5-0.4,2.7-0.9,2.9-2.6c0.8-3.2,2.9-5.4,5.7-7
			c1.7-0.9,3.4-1.7,5.1-2.6c1.6-0.9,2.8-2.1,2.6-4.1c0.2-1,0.3-2.1,1.7-2.1c0.6,0.5,0.6,1.2,0.5,2c0,0.4-0.3,0.7-0.2,1.1
			c0.1-0.5,0.4-0.7,0.8-0.6c0.6,0.5,0.8,1.2,0.9,2c-0.1,2.4-1.5,4.2-3.1,5.9c-0.8,0.6-1.6,0.9-2.5,0.5c-0.9-0.9,0-1.4,0.5-2
			c0.8-0.9,1.9-1.5,2.4-2.9c0.1-0.2-0.5,0-0.1,0.1c0.1,0,0.1,0.1,0,0.3c-1.1,1.6-2.8,2.6-4.1,4c-2.4,1.7-4.4,3.7-6.3,6
			c-1.5,1.8-3.3,3.2-5.8,3.2C167.9,126.1,166.2,128.2,164.3,127z"/>
		<path fill="#61737A" d="M218.3,77.6c0.4,1.4,2.1,1.9,1.9,3.8c-0.2,2.3-1.2,2.6-2.9,1.7c-1.1-0.6-2.2-1.3-3.5-1.6
			c-1.2-0.4-2-0.5-2.7,0.9c-1.1,2.2-3.5,1-4,0.2c-0.8-1.4-2.2-1.1-3-2c0.2-0.2,0.4-0.4,0.6-0.5c1.2-0.3,2.2-0.8,3.1-1.5
			c2.1,0.1,1.8-2.7,3.7-2.9c1.9,0.3,3,1.4,3.6,3.1c0.2,0.6-0.8,1.5,0.5,1.7c1,0.1,1.3-0.8,1.6-1.5c0.4-0.7,0.3-1.3,0.2-2
			C218.1,76.8,218.5,76.9,218.3,77.6z"/>
		<path fill="#61737A" d="M152.9,33.2c1.1,0.3,1.7,1.1,2.3,1.9c1.2,1.7,2.7,2.1,4.5,1c1.1-0.7,2-0.5,2.7,0.3c1,1,1.2,2.6,3.6,1.9
			c1.7-0.5-0.3,2.1,1,2.8c0.8,1.1,0,1.8-0.6,2.5c-1.3-0.8-4.2,0.4-3.6-3.1c0.1-0.8-2.4-0.9-3.4-0.4c-2.7,1.3-3.9,0.9-5.2-2
			C151.5,36.9,152.6,34.9,152.9,33.2z"/>
		<path fill="#61737A" d="M185.3,116.7c1.2-1.7,2.5-3.4,3.1-5.5c0.1-0.9,0.4-1.6,1.5-1.5c1.5,1.4-0.3,2.6-0.2,3.9
			c-1,2.7,1,6,4.7,7.9c1.6,0.8,3.5,1.4,3.2,3.7c-1.8,0-1.1-2.7-3.2-2.8c-1.8-0.1-3.1-0.2-3.8,1.8c-1.3,1-2-0.2-2.7-0.9
			C186.1,121.5,185.1,119.3,185.3,116.7z"/>
		<path fill="#61737A" d="M186.4,106.9c-0.7,0.7-1.1,1.5-1.1,2.5c-0.1,1.9-1.5,2.9-2.7,4c-1.6,0.5-3,1.7-4.6,2.2
			c-1.5,0.5-2.5,0.4-1.8-1.6c0.3-0.3,0.5-0.6,0.8-0.8c6-4,6.9-6.1,5.3-12.9c0.4-0.9,1-0.9,1.7-0.5
			C186.2,100.7,187.4,104.4,186.4,106.9z"/>
		<path fill="#61737A" d="M133.6,45.3c1.9,1.6,3.9,3.2,6.6,3c-0.3,2.8-1.4,5.6-1.2,8.5c-1.3,1.8-2.2-0.1-3.3-0.4
			c-0.3-0.4-0.3-0.8-0.2-1.3c0.3-1,1.9-1.4,1.3-2.7c-0.4-0.9-1.2-0.8-2-0.5c-0.9,0.5-1.8,0.9-2.6,1.5c-1.1,0.8-1.7,0.2-2.2-0.7
			c-0.4-0.9-0.9-1.7-0.9-2.7c2.6-0.2,3.6-1.8,3.7-4.2C132.9,45.5,133.1,45.3,133.6,45.3z"/>
		<path fill="#61737A" d="M170.1,125.9c2.1-0.2,3.5-1.4,4.8-2.9c2-2.4,3.8-5,6.8-6.4c0.5-0.2,0.8,0.1,0.9,0.6
			c-0.9,2.1-0.8,3.8,1.6,5.1c1.2,0.7,2.4,1.9,1.9,3.7c-2.8,0.4-5.4,0.6-7-2.5c-0.8-1.4-1.5-0.2-2.2,0.2c-1.6,1-2.8,2.7-4.8,2.8
			C171.3,126.6,170.3,127.3,170.1,125.9z"/>
		<path fill="#61737A" d="M168.9,78.1c2.6,0.7,5,1.7,7.3,3.1c0.9,2.4,1.3,4.7-1.1,6.5c-2,0.3-3-1.4-4.4-2.2
			c-0.8-0.6-1.4-1.6-2.7-1.4c-0.4,0-0.8-0.1-1.1-0.4c-0.1-0.3-0.2-0.5-0.2-0.8c0.3-1.7,0.6-3.4,2-4.6L168.9,78.1z"/>
		<path fill="#61737A" d="M169.9,41.1c-2.5-1.8-2-4.6-2.6-7c-0.7-3.1,2.2-3.8,3.9-5.3c0.8,0.6,1.5,1.2,1.2,2.4
			c-1.4,1.2-0.7,3.5-2.4,4.6c-0.1,0.1,0.1,0.8,0.3,1c0.4,0.3,0.7-0.1,1-0.4c1.2-1.4,2.4-1.9,3.6,0c0.1,0.2,0.2,0.5,0.2,0.8
			c-1.6,0.9-0.2,2.8-1.3,3.9C172.5,41.7,171.2,40.6,169.9,41.1z"/>
		<path fill="#61737A" d="M186,125.9c-0.6-1.6-1.6-3.1-3-3.7c-3.3-1.4-2.5-3-0.7-4.9c0.2-0.3,0.3-0.3,0.6-0.1
			c0.9,0.1,1.7-0.2,2.4-0.6c1.4,2.4,1.5,5.4,4.1,7.1c0.4,0.3,0.8,0.5,1.3,0.5c0.3,0.7,0.6,1.3,0.8,2c-0.9,2.3-2.4,0.5-3.7,0.6
			C187.2,126.5,186.6,126.2,186,125.9z"/>
		<path fill="#61737A" d="M194.5,21.4c-0.8-0.7-2.5-0.3-2.5-2c0-1-0.3-2.3,0.9-2.7c2.3-0.7,1.8-2,1-3.4c-0.5-0.8-0.8-1.4-0.3-2.2
			c0.5-0.9,0.2-1.4-0.9-1.1c-1.1,0.4-1.5-0.5-1.2-1.1c0.9-1.9-0.5-2-2-2.2c1.6-1,2.9-0.5,3.3,0.4c0.9,2.5,5.3,3.6,2.9,7.3
			c2.4,1.2,1.3,4.6,3.9,5.7c-0.1,1.1-0.9,0.9-1.6,0.8C196.7,20.7,195.6,20.9,194.5,21.4z"/>
		<path fill="#61737A" d="M129.2,50.1c0.4,0.8,0.8,1.7,1.2,2.5c0.8,1.5-0.1,2.5-1.1,3.3c-1.1,0.9-2.4,1.5-3.6,2.2
			c-1.6,0-2.3-1.9-3.9-1.8l0,0c-1.2-1.2-1.9-2.6-1.2-4.3c0.2-0.2,0.4-0.4,0.6-0.6c1.1-0.4,2.5,0.9,3.6-0.5c0.6-0.4,1.3-0.6,2-0.2
			C127.7,51,128.4,50.5,129.2,50.1z"/>
		<path fill="#61737A" d="M223.2,42.2c0.2,0.2,0.4,0.4,0.6,0.6c1.9,1.1-0.1,3,0.8,4.3c-0.1,0.8-0.7,1.2-1.1,1.7
			c-0.9,0.8-1.3,2-2.5,2.3c-4-0.4-4.6-1-3.9-4c0.3-0.5,0.6-1.1,1-1.6c0.5-0.6,0.8-1.3,1-2.1C219.7,40.7,220.9,40.4,223.2,42.2z"/>
		<path fill="#61737A" d="M192.7,84.4c0.4-0.4,0.8-0.8,1.2-1.3c0.6-0.9,1-2.1,2.3-2.1c1.7,0,1.1,1.9,2,2.6c0.4,0.1,0.9-0.3,1.2,0.1
			c1.4,3.1,0.3,5.8-2.4,6.1c-1.7,0.2-3-0.6-4.1-1.9C192.9,86.8,191.7,85.6,192.7,84.4z"/>
		<path fill="#61737A" d="M204.8,80.6c-0.2,0-0.4,0-0.7,0c-0.1,0-0.3,0-0.4,0.1c-0.3-1.3-0.6-2.5-0.8-3.8c0.3-3,1.8-4,5.1-3.5
			c1.1,0.9,2.8,1,3.6,2.3c0,0,0,0,0,0c-0.6,1-1.4,2-1.8,3.1c-0.7,2.3-1.3,0-2,0.1C206.9,79.6,205.8,80,204.8,80.6z"/>
		<path fill="#61737A" d="M218.3,63c-0.3,0.5-0.8,1-0.9,1.5c-0.7,3.1-2.4,2.8-4.6,1.5c-1.2-0.6-2.1-1.6-3.2-2.4
			c-0.1-0.9,0.6-1.2,1.2-1.4c0.5-0.1,1,0,1.4-0.3c-0.5,0-0.9,0.2-1.4,0.1c-0.7-0.2-1.4-0.5-1.3-1.5c0.6-1,1.4-1.6,2.5-1.8
			c0.9-0.1,1.8-0.1,2.7,0c0.3,0,0.6,0.1,0.8,0.2c0.9,0.5,1.4,1.4,1.6,2.4C217.4,61.9,218,62.4,218.3,63z"/>
		<path fill="#61737A" d="M215.8,28.2c-2.9,3-3.1,3-4.7-0.6c-0.7-0.1-0.9-0.6-0.9-1.2c0.4-0.9,1.2-1.2,2.1-1.3
			c0.6,0.3,1.9,0.5,1.2-0.5c-1.9-2.6,0.8-5.9-1.6-8.3c-0.5-0.5,0.4-1.1,1-1.2c1-0.3,1.3,0.5,1.2,1.2
			C213.6,20.4,215.3,24.2,215.8,28.2z"/>
		<path fill="#61737A" d="M146.9,39.2c1.3-0.5,0.7-1.4,0.6-2.2c-0.1-2.9,1.7-4,4.3-2.7c0.5,1.6,0.6,3.1-0.6,4.4
			c-1.8,1.8-2.3,5-5.6,5.3c-0.5-0.4-0.8-0.8-0.9-1.5C144.8,41,144.9,39.5,146.9,39.2z"/>
		<path fill="#61737A" d="M195.7,75.7c-1.9,1.8-3.4,4.2-6.4,4.4c-1.1-1.9,0.2-6.1,2.4-6.9C193.9,72.4,195.1,73.7,195.7,75.7z"/>
		<path fill="#61737A" d="M223.2,48.3c0.4-0.4,0.8-0.8,1.2-1.2c0.7-1.2,0.8-1.2,1.8,0c2.7,2.7,3.7,6.1,4.1,9.8
			c0.3,2.8-2.3,1.9-3.4,2.9c-0.8,0-1.4-0.3-1.4-1.2c0.2-0.4,0.5-0.7,0.9-0.8c0.5-0.2,1.5-0.1,1.1-0.9c-0.4-0.8-1.2,0.2-1.9,0.2
			c-0.5,0-0.8-0.3-0.9-0.8c0-0.1,0-0.2,0-0.3C226.8,51.6,226.8,51.6,223.2,48.3z"/>
		<path fill="#61737A" d="M176.2,113.9c-0.2,1.6,0.4,1.7,1.7,1.2c1.7-0.6,3-2.1,4.9-2.2c0.2,0.1,0.2,0.3,0.1,0.4
			c-0.1,0.1-0.1,0.2-0.2,0.2c-1.2,0.7-2.4,1.6-3.7,2c-3.7,1.2-5.3,4.6-7.6,7.2c-1.9,1.4-4,1.7-6.3,1.3c-0.3-0.7,0.1-1.1,0.6-1.5
			c1.9-0.9,4.2-1,5.7-2.7C173,117.8,174.6,115.9,176.2,113.9z"/>
		<path fill="#61737A" d="M166.9,96c-1.8-0.3-3.4,1.1-5.4,0.5c-2.3-0.6-4.3-1.2-3.8-4.2c0.2-0.3,0.4-0.4,0.7-0.5
			c0.8-0.2,1.5,0.2,2.1,0.5c0.5,0.3,1,0.4,1.7,0c2.9-1.7,3.4-1.5,4.4,1.5c0.2,0.6,0.5,1.1,0.5,1.7C167.1,95.7,167,95.8,166.9,96z"/>
		<path fill="#61737A" d="M188.3,26.3c0.5,1.2,0,2.5,0,3.7c-0.8,1.5-1.6,0.9-2.1-0.1c-0.7-1.2-1.5-1.3-2.7-1.1
			c-0.6-1.2-1-2.7-2.7-2.8c-0.6-0.4-1.3-0.7-1-1.7c1.6-0.7,2.8-1.7,3.8-3.1c0.3,0,0.7,0,1,0c1.1,1.1,1.3,2.7,2.2,3.9
			c0.1,0.4,0-0.1,0.1,0.3C187.2,26.1,187.1,27.5,188.3,26.3z"/>
		<path fill="#61737A" d="M136.5,37.3c1.3,1.2-2.7,1.9,0.1,3.3c-2.2-0.4-4-0.4-5.8-0.3c0-0.2,0.1-0.5,0-0.6
			c-0.8-1.1-2.4-1.8-1.2-3.5c1.1-1.7,2.7-1.6,4.3-1.2C134.6,35.9,134.8,37.5,136.5,37.3z"/>
		<path fill="#61737A" d="M129.7,83.2c2.6,3.2,3.5-0.3,5.1-1.2c0.4-0.8,1-1,1.9-0.9c1.2,1,3.2,1.1,3.2,3.2c-0.3,1-0.7,2-1.6,2.7
			c-1.2,0.4-2.1-0.4-3-0.9l0.1,0c-1-0.7-2.1-0.1-3.1-0.1c-1.1,0.1-2.2,0.4-3-0.6c-1.2-0.8-0.7-1.6,0-2.3
			C129.3,82.8,129.5,82.9,129.7,83.2z"/>
		<path fill="#61737A" d="M207.9,69.8c0.2-0.5,0.4-0.9,0.6-1.4c0-0.6,0.2-1.1,0.7-1.5c0.9-0.1,1.7,0.1,2.4,0.8
			c0.9,0.3,2.4-0.5,2.5,1.3c0.1,1.9,0.3,3.8-1.9,4.8c-1.2-1.1-2.6-1.3-4.1-0.9C206.4,72,207.3,70.9,207.9,69.8z"/>
		<path fill="#61737A" d="M201.2,18.9c1.2-0.9,2.4-1.9,4.1-1.8c0.8,0,1.9-0.4,2.4,0.7c0.4,0.9,0.2,2-0.5,2.6c-1.3,1.1-2,1.9,0,3
			c0.2,0.1,0.1,0.8,0.1,1.2c-0.6,0.7-1.6-0.2-2.1,0.7c-0.9-0.4-1-1.2-1-2c0-1.2-0.8-1.4-1.8-1.6C201.4,21,201.5,19.9,201.2,18.9z"/>
		<path fill="#61737A" d="M139.5,70.2c-2.8,0-4.1-2.6-6.5-3.7c0.8-0.6,1.5-1.2,2.2-1.7c1.8-0.5,3.3-2.6,5.4-0.7
			c0.1,0.2,0.2,0.4,0.3,0.7c-1.4,1.3-0.3,2.8-0.3,4.2C140.4,69.6,140.1,70.1,139.5,70.2z"/>
		<path fill="#61737A" d="M129.1,85.5c2,0.3,4.3-1.7,6.1,0.7c-1.1-0.1-1.2,0.6-1.2,1.5c0,1.3-0.5,2.5-1.9,2.7
			c-1.6,0.3-2.7-1.1-3.8-2C127.3,87.3,128.6,86.4,129.1,85.5z"/>
		<path fill="#61737A" d="M193.1,88c1.4,0.4,2.7,0.9,3.9,1.8c0,2.1,1.3,4.3-0.7,6.2c-0.3-0.3-0.7-0.5-1-0.8c-2-0.2-3.1-1.2-2.9-3.3
			c0.1-0.9-0.2-1.8-0.2-2.7C192.2,88.7,192.2,88,193.1,88z"/>
		<path fill="#61737A" d="M190.8,19.6c0.9,1.6,0.8,3-0.7,4.2c-0.2,0.2-0.5,0.2-0.7,0c-0.3-2.5-3.1-1.7-4.2-3.1
			c0-1.6-0.5-3.4,2.3-3.2c-0.8-1.6-2.4-1.3-3.5-2c2.3-0.9,3.9,0.2,5,2C189.6,18.3,190,19.2,190.8,19.6z"/>
		<path fill="#61737A" d="M171.4,119.7c-1.2,2.4-3.3,2.9-5.7,3.1c-1,0.5-1.9,1.2-3,1.4c-0.9,0.1-1.9,0.6-2.7-0.3
			c-1.1-2.4,0.6-2.7,2.3-3C165.3,120.3,168.5,120.7,171.4,119.7z"/>
		<path fill="#61737A" d="M129.7,83.2l-0.3,0l-0.3,0c-0.8-0.2-1.4,0.3-1.9,0.8c-1.2,1.1-2.1,0.9-2.9-0.5c-0.1-0.3-0.3-0.7-0.5-0.8
			c-3.6-1.1-2.1-2.5-0.3-3.9c1.1,0.6,1.9,1.6,3.5,1.4C128.9,80.1,129.1,82,129.7,83.2z"/>
		<path fill="#61737A" d="M120.6,51.9c0.9,1.3,0.7,2.9,1.2,4.3c-0.7,0-1.5-0.4-2-0.1c-2.1,1.3-2.8-0.5-2.9-1.6
			c-0.2-2,0.1-4.1,0.4-6.1c0-0.2,0.8-0.3,1.4-0.5C119,49.5,116.2,52.8,120.6,51.9z"/>
		<path fill="#61737A" d="M138.8,36.1c-0.2,0-0.4,0-0.5,0c-0.1-0.3,0-0.7-0.2-0.9c-1-1.3-1.7-2.8-0.7-4.1c1-1.4,2.6,0,3.9,0
			c0.1,0.2,0.2,0.3,0.2,0.5c0,0.3-0.8,1.1,0.4,0.7c0.4,0.6,0.9,1.1,1.1,1.8c0.5,1.4-0.2,2.4-1.6,1.7
			C140.3,35.5,139.6,35.1,138.8,36.1z"/>
		<path fill="#61737A" d="M142,29.4c-0.4-2.4-1-4-3.9-2.3c-1.3,0.8-2.7-0.3-3.7-1.4c-0.8-0.9-1.3-1.9-0.5-3.3c1.2-2.2,2.7-4.2,2.8-7
			c1.1,0.5,1,1.2,0.7,1.8c-0.5,1.2-1.1,2.4-1.7,3.6c-2,4.1-1.4,5,3,4.8c3.5-0.2,4.3,0.8,3.8,4.4C142.3,30,142.2,29.6,142,29.4z"/>
		<path fill="#61737A" d="M223.2,42.2c-1.9-0.7-3.9-1.6-3.4,1.9c0.2,1.3-1,1.3-1.6,1.8c-0.5,0-0.8-0.3-0.8-0.8
			c0.4-1.9-0.8-3.9,0.8-5.6c0.6-0.8,1.5-1.4,2.3-0.8c2.3,1.8,2,0,2.2-1.4c0.2-0.2,0.4-0.2,0.6,0C223.2,38.9,223.2,40.6,223.2,42.2z"
			/>
		<path fill="#61737A" d="M140.7,64.1c-2-0.9-3.5,1.1-5.4,0.7c0.5-0.5,1.3-1,0.6-1.9c-1.5-1.1-2.1-2.3-0.6-3.8
			c1.4,0,2.9-0.6,4.3,0.2C139.9,60.9,140.3,62.5,140.7,64.1z"/>
		<path fill="#61737A" d="M178.6,28.8c-1.1-0.3-1.1,0.9-1.8,1.2c-1.4-0.4-2-2.1-3.6-2.2c-0.3,0-0.5-0.1-0.7-0.3
			c-0.6-1.5-1.4-3.1,1.6-2.6c1.3,0.2,1.6-2.2,3.3-1.6c0.6,1.3,1,2.7,2.6,3.2C179.9,27.5,179,28,178.6,28.8z"/>
		<path fill="#61737A" d="M166.4,43.4c0.2-0.8,0.4-1.7,0.6-2.5c0.3-0.1,0.5-0.2,0.8-0.3c0.2,1.5,1,3.5,0.4,4.4
			c-1.1,1.6-2.9,3.1-5.3,2.9c-1.1-0.1-1.6-1-1.7-1.9c-0.1-1.7,1-0.3,1.5-0.6C164,44.9,166.1,45.7,166.4,43.4z"/>
		<path fill="#61737A" d="M201.2,18.9c0.5,0.8,1.1,1.5,1.1,2.5c-1.2,0.9-3.1,1.1-3.3,3.1c-0.3,0.3-0.7,0.5-1.1,0.5
			c-0.3,0-0.6-0.1-0.8-0.2c-0.7-0.4-1.4-0.9-1.9-1.6c-0.2-0.6-0.5-1.2-0.7-1.8c0.3-1.4,1.1-1.5,2.4-1.3c0.9,0.1,1.8,0.8,2.7,0
			C200.1,19.7,200.7,19.3,201.2,18.9z"/>
		<path fill="#61737A" d="M125.6,73.9c1.3-0.1,2.1,0.5,2.5,1.7c0.4,1,0.7,2-0.2,2.8c-0.9,0.8-1.9,0.6-2.7-0.2
			c-0.6-0.5-1.2-1.1-2-1.2c-1-1.6,1.7-1.7,1.2-3.1C124.7,73.6,125.2,73.6,125.6,73.9z"/>
		<path fill="#61737A" d="M178.6,28.8c-0.6-1.3,0-1.8,1.2-1.9c0.4-0.4,0.6-1,1.2-1.2c2.6-0.4,3.3,0.8,2.5,3.1
			C181.8,33,180.2,29.4,178.6,28.8z"/>
		<path fill="#61737A" d="M186.4,106.9c0.2-2-0.5-3.8-1.5-5.4c-0.5-0.8-1.2-2.1-2.6-1.2c-0.2-0.2-0.4-0.4-0.6-0.7
			c-0.8-0.9-0.3-1.8,0.2-2.7c0.3-0.4,0.7-0.6,1.3-0.4c2.4,2.5,4.6,5.1,5.2,8.6c0.3,1.4,0.6,3-0.6,4.3c-0.3,0.4-0.6,0.8-1.1,1.6
			C186.6,109.3,186.5,108.1,186.4,106.9z"/>
		<path fill="#61737A" d="M125.6,73.9c-0.4,0-0.9,0-1.3,0c-0.4-0.4-0.7-1-1.2-1.3c-2.1-1.4-1.7-2.8,0-4.2c0.5-0.5,1.1-0.6,1.8-0.5
			c1,0.4,1.6,1.1,1.3,2.2C126.8,71.5,125.7,72.7,125.6,73.9z"/>
		<path fill="#61737A" d="M155.3,91.2c-0.6-0.1-1.1-0.2-1.7-0.3c-1.4-0.5-1.5-1.8-1.8-3c-0.1-0.6,0-1.2,0.4-1.8
			c2.4-0.4,4.2,1.4,6.4,1.9c0.4,0.3,0.7,0.6,0.8,1.1c0,0.3-0.1,0.6-0.3,0.9C157.9,90.7,156.7,91.2,155.3,91.2z"/>
		<path fill="#61737A" d="M186.5,82.5c-2.3,3-2.3,3-6.7,0.6C182,81.8,184,79.9,186.5,82.5z"/>
		<path fill="#61737A" d="M176.7,95.2c-1.4-0.6-2.6,1.6-4,0.2c-0.5,0.3-0.8,0.9-1.5,0.7c-0.9-0.9-1.4-1.8-1.3-3.1c1-1.4,2.5-1,3.9-1
			c0.3,0,0.6,0,0.9,0.1c1,0.3,2.1,0.4,2.5,1.6C177.3,94.2,177.3,94.7,176.7,95.2z"/>
		<path fill="#61737A" d="M174.4,87.3c2.3-1.5,1.5-4,1.7-6.1c0.5,0,1,0.1,1.2,0.6c-0.1,2.5,1,4.6,1.8,6.8c0.2,0.5-0.1,0.7-0.6,0.9
			c-1.1,0-2-0.7-3.1-0.6c-0.3,0-0.5-0.1-0.8-0.2C174.4,88.3,173.8,87.9,174.4,87.3z"/>
		<path fill="#61737A" d="M170.1,125.9c0.5,0.7,1.3,0.5,1.9,0.6c-5.3,0-9.3,4.5-14.7,4.3c-0.2-0.1-0.2-0.3-0.2-0.4
			c0.1-0.1,0.1-0.2,0.2-0.2c2.7-0.4,4.9-1.7,7-3.2C166.2,126.6,168.1,126.2,170.1,125.9z"/>
		<path fill="#61737A" d="M185.2,20.7c1.2,0.2,2.5,0.4,3.7,0.8c1.3,0.4,1.2,1.3,0.6,2.3c-1.1,0.5-2.2,1-3,1.9
			c-1.4-1.1-1.9-2.6-1.9-4.4C184.8,21.1,185,20.9,185.2,20.7z"/>
		<path fill="#61737A" d="M123,65.3c-2.4,1.4-2.4-1-2.7-2.1c-0.4-1.3,0.3-2.3,1.9-2.3c1.2,0,2.8,0.7,2.5-1.6c0-0.6,0.2-0.9,0.9-0.7
			c0.8,1,0.7,2.1,0.4,3.2C124.7,62.7,123.7,63.9,123,65.3z"/>
		<path fill="#61737A" d="M182.1,97.3c-0.1,0.7-0.3,1.5-0.4,2.2c-0.2,0-0.4,0-0.6,0c-4,0.5-4.3,0.2-2.9-3.8
			C179.9,95.2,181.4,95.4,182.1,97.3z"/>
		<path fill="#61737A" d="M146.9,39.2c-1.5,0.8-1.1,2.5-1.8,3.6c-0.9,0.6-1.7,0.7-2.4-0.2c-0.7-0.8-0.5-1.6-0.1-2.4
			C143.2,36.7,145.1,38.4,146.9,39.2z"/>
		<path fill="#61737A" d="M145.7,92.9c-2-1.9-1.6,0.8-2.4,1.2c-0.8-0.6-1-1.4-0.9-2.4c1.3-1.5,3.5-1.3,4.9-2.5
			c0.4-0.5,0.9-0.6,1.5-0.6c0.6,0.1,1.1,0.2,1.3,0.9c-0.6,1.4,0.5,2.6,0.5,3.9c-1.1-0.1-1.8,0.5-2.4,1.3
			C147.3,94.1,147,92.9,145.7,92.9z"/>
		<path fill="#61737A" d="M211.6,67.8c-0.9,0.1-1.7,0-2.3-0.7c-0.8,0-1.2-0.5-1.3-1.2c0-0.4,0-0.8,0-1.2c0.5-0.6,0.7-1.6,1.8-1.4
			c1.9-0.2,2.4,1.3,3.1,2.5C212.4,66.5,212,67.2,211.6,67.8z"/>
		<path fill="#61737A" d="M138.9,91c0.2-0.9-1-1.5-0.4-2.5c0.1-0.5,0.3-0.8,0.8-0.9c1.3,0.1,2.5-0.2,3.7-0.5c1,0.2,1.8,0.7,1.9,1.9
			C143.6,91.2,141.9,91.8,138.9,91z"/>
		<path fill="#61737A" d="M146.4,71.4c2,0.9,4,1.7,5.9,2.6c0.8,1.3-0.2,1.9-1,2.6c-0.3,0.1-0.6,0.2-0.9,0.3c-1.5,0-2.4-1-3.2-2.1
			c-0.4-1-1.1-2-1.1-3.1C146.2,71.6,146.3,71.5,146.4,71.4z"/>
		<path fill="#61737A" d="M126.7,50.7c-0.7,0.2-1.3,0.4-2,0.7c-2.2,0.1-2.7-1.3-2.9-3.1c1.2-1.2,2.6-1.8,4.3-1.2
			C126.1,48.3,125.9,49.6,126.7,50.7z"/>
		<path fill="#61737A" d="M182.1,97.3c-1.2-0.9-2.5-1.3-3.9-1.6c-0.5-0.2-1-0.4-1.5-0.6c0-0.6,0.1-1.1,0.1-1.7
			c0.9-0.5,1.9-0.7,2.9-1c0.3,0,0.5,0,0.8,0.1c0.4,0.2,0.7,0.4,1,0.7c0.8,1,1.9,1.8,1.4,3.3C182.6,96.8,182.4,97.1,182.1,97.3z"/>
		<path fill="#61737A" d="M142.6,42.7c0.8,0.1,1.6,0.1,2.4,0.2c0.5,0.2,0.6,0.6,0.6,1.1c-0.4,0.4-0.9,0.8-1.3,1.2
			c-0.8,1-1.7,1.6-3,1.9c-0.2,0-0.3,0.1-0.5,0.1C138.8,44.7,141.5,44,142.6,42.7z"/>
		<path fill="#61737A" d="M139.5,59.3c-1.4,0.3-2.9,1.2-4.2-0.1c-0.2-0.1-0.4-0.3-0.5-0.5c0.1-0.6,0.2-1.2,0.3-1.8
			c0.1-0.4,0.4-0.6,0.8-0.7c1.2-0.5,2,0.9,3.2,0.6C139.7,57.6,139.5,58.5,139.5,59.3z"/>
		<path fill="#61737A" d="M140.2,69.2c0.3-1.5-3.4-3.6,0.8-4.4c1.2,0.6,2.5,1.3,2.3,3c-0.2,1-0.9,1.5-1.8,1.7
			C141,69.6,140.5,69.5,140.2,69.2z"/>
		<path fill="#61737A" d="M138.9,91c1.8-1,4.8,0.8,5.5-2.5c0.2-0.2,0.5-0.3,0.7-0.3c1,0.2,1.7,0.7,2.3,1.5c-0.5,2.1-2.8,0.6-3.7,1.9
			c-0.2,0.2-0.8,0.1-1.2,0.1c-0.5,0.7-1.1,1-1.9,1.1c-1,0-1.8-0.4-2.3-1.2C138.5,91.4,138.7,91.2,138.9,91z"/>
		<path fill="#61737A" d="M183.6,21.3c0.1,2.6-1.4,3.4-3.8,3.1c-0.3-0.2-0.5-0.5-0.6-0.8c0.2-3.7,0.9-4.3,3.7-2.9
			C183.2,20.9,183.4,21.1,183.6,21.3z"/>
		<path fill="#61737A" d="M199.9,61.1c0.2,0.5,0.3,1.4,0.7,1.6c2.9,1.8,2.1,3.7,0.4,5.8C200.2,67.4,199.4,62.6,199.9,61.1z"/>
		<path fill="#61737A" d="M194.4,108.7c1.6,1.1,1.1,2.9,1.3,4.4c-0.8,1.3-1.6,2.5-2.5,3.8c-0.1-2.5,2-5.2-0.7-7.5
			C192.6,107.9,193.6,108.4,194.4,108.7z"/>
		<path fill="#61737A" d="M205.4,25.1c0.1-1.9,1.3-0.4,1.9-0.6c0.3,0.6,0.7,1.1,1.4,1.1c0.1,0.1,0.1,0.3,0.2,0.4
			c0.2,0.9-0.2,1.7-0.6,2.5c-0.5,0.7-1.2,0.8-2,0.6c-0.6-0.2-1.1-0.5-1.5-0.9c-0.6-0.6-1.8-0.7-1.7-1.8
			C203.2,25.1,204.6,25.6,205.4,25.1z"/>
		<path fill="#61737A" d="M150.6,93.4c-0.4-1.2-3.2-2-0.6-3.7c0.7-0.7,1.1-1.8,2.3-1.8c0.4,1,0.9,2,1.3,3
			C152,91,151.9,92.9,150.6,93.4z"/>
		<path fill="#61737A" d="M171.4,95.9c0.4-0.2,0.8-0.4,1.2-0.6c0.1,2.5-1,2.1-3.1,2.7c-3,0.8-2.5-0.4-2.6-2l0.2-0.2
			c0.3-0.5,0.8-0.7,1.3-0.9C169.6,94.7,170.4,95.6,171.4,95.9z"/>
		<path fill="#61737A" d="M183,20.7c-3-0.9-3.2,1.1-3.3,3.2c-1.4,0-0.4-1.4-1.1-1.9c-1.1-1.7-0.6-2.6,1.4-3.2
			C182.1,18.1,182.8,18.8,183,20.7z"/>
		<path fill="#61737A" d="M207.8,72.6c1.8-0.8,3.7-1.9,4.4,1.2c-0.8,0.5-0.6,1.2-0.6,1.9c-1.1-0.9-3.1-0.1-3.7-2
			C207.6,73.4,207.5,73,207.8,72.6z"/>
		<path fill="#61737A" d="M160,123.9c1-0.1,2-0.3,3-0.4c0.3,1.3-0.7,1.4-1.5,1.8c-2.7,0-5.5-0.3-8,1.3c-0.6,0.1-0.8-0.1-0.6-0.7
			C155,124,157.5,124.1,160,123.9z"/>
		<path fill="#61737A" d="M138.3,91.5c0.8,0.3,1.7,0.5,2.5,0.8c0.3,0.8,0.4,1.6,0.6,2.4c-0.4,0.2-0.9,0.5-1.3,0.7
			c-0.8,0.4-1.6,1-2.5,0.1c-0.8-0.9-0.4-1.7,0-2.5C137.9,92.5,138.1,92,138.3,91.5z"/>
		<path fill="#61737A" d="M218.3,77.6c-0.3-0.2-0.5-0.4-0.8-0.6c-2.1-0.2-2.1-0.3-1-3.3c0.5,0.6,0.9,1.2,1.4,1.8
			c1.2-1,1.6-2.8,3.8-3.3C220.4,74.1,219,75.6,218.3,77.6z"/>
		<path fill="#61737A" d="M178.6,22c0.4,0.6,0.7,1.2,1.1,1.9c0.1,0.2,0.1,0.4,0.1,0.5c0.4,0.4,0.8,0.9,1.2,1.3
			c-0.1,0.8-0.4,1.2-1.2,1.2c-3,0.3-2.5-1.8-2.5-3.6C178.1,23.2,178.6,22.9,178.6,22z"/>
		<path fill="#61737A" d="M141.3,69.2c0.6-0.5,1.3-0.9,1.9-1.4c1.1,1.2,2.1,2.4,3.2,3.6c0,0-0.2,0.1-0.2,0.1c-0.7,0.8-1.5,1-2.5,0.9
			C142.3,71.8,140.7,71.3,141.3,69.2z"/>
		<path fill="#61737A" d="M218.1,39.6c-0.2,1.1-0.9,2.3,0,3.4c0.9,1.1-0.3,1.6-0.6,2.3c-1.2,0.3-2.2,0-2.8-1
			c-0.8-1.3,0.7-1.8,1.1-2.7c1.8,0.1,0.8-2,1.9-2.5C217.8,39.3,218,39.4,218.1,39.6z"/>
		<path fill="#61737A" d="M226.2,47.1c-0.6-0.1-1.2-1.1-1.8,0c-1-0.5-1.5-1.1-0.6-2.1c0.7-0.8,0.3-1.5,0-2.2
			C227,42.9,227,44.8,226.2,47.1z"/>
		<path fill="#61737A" d="M225.7,58.7c0.4,0.4,0.8,0.7,1.1,1.1c-1,1.1-1.2,3.6-3.7,2.4c-0.5-0.8-1.7-1.3-1.1-2.5
			C223.1,59,224.2,58.1,225.7,58.7z"/>
		<path fill="#61737A" d="M152.9,125.8c0.2,0.2,0.4,0.5,0.6,0.7c-1.2,1.4-2.7,1.9-4.5,1.8c-1.7-0.1-3.3-0.2-5,0.5
			c1.3-1.5,3.1-1.7,4.8-1.7C150.4,127.1,151.7,126.8,152.9,125.8z"/>
		<path fill="#61737A" d="M123,65.3c0.5-1.3-1.2-4.3,2.5-3c0.8-0.4,1.4,0,2,0.5c0.3,0.6,0.2,1.1-0.3,1.5c-1.1,0.6-2,2-3.6,1.1
			C123.4,65.4,123.2,65.4,123,65.3z"/>
		<path fill="#61737A" d="M218.3,36.1c0.2-0.7,0.4-1.4,0.5-2.1c0.1-1.2,0.5-2,1.9-1.4c0.7,0.3,1.7,0.5,1.7,1.4
			c0,1.1-0.8,1.4-1.8,1.6C219.8,35.8,219.1,36,218.3,36.1z"/>
		<path fill="#61737A" d="M151.2,38.7c0.5-1.4-0.4-3,0.6-4.4c0.4-0.4,0.8-0.8,1.1-1.1c0.7,1.5-0.4,3.5,1.3,4.8
			C153.2,38.2,152.2,38.4,151.2,38.7z"/>
		<path fill="#61737A" d="M187.8,126.9c1.1-0.7,2.6,0.8,3.7-0.6c1.5,0.6,3.1,0.8,4.4,1.9c-0.3,0.3-0.6,0.4-1,0.1
			C192.5,128,189.8,129,187.8,126.9z"/>
		<path fill="#61737A" d="M121.8,48.3c1,1,1.3,2.7,2.9,3.1c-1.2,2.5-2.4,1-3.5,0C121.3,50.3,119.5,48.9,121.8,48.3z"/>
		<path fill="#61737A" d="M173,27.6c0.2-0.5,0.5-1.5,1-0.8c0.8,1.2,2.5,1.6,2.8,3.2c-1,1.1-2,0.5-3-0.1
			C173,29.3,172.7,28.5,173,27.6z"/>
		<path fill="#61737A" d="M125.4,58.7c-0.2,0.2-0.4,0.4-0.7,0.6c-1.2-0.8-3.3-0.9-2.9-3.2c2.4-1.6,2.7,0.7,3.7,1.9l0.2,0.2
			C125.7,58.6,125.6,58.7,125.4,58.7z"/>
		<path fill="#61737A" d="M123.6,65.4c1.4,0.3,1.8-1.6,3.2-1.2c0.2,1.8-0.7,3.1-1.9,4.2c-0.6,0-1.2,0-1.8,0
			C123.2,67.4,123.4,66.4,123.6,65.4z"/>
		<path fill="#61737A" d="M212.2,25c-0.7,0.5-1.3,0.9-2,1.4c-0.9,0.5-1.3-0.1-1.7-0.8c0,0,0.1,0,0.1,0
			C210.2,22.6,210.5,22.6,212.2,25z"/>
		<path fill="#61737A" d="M141.4,94.7c-1.9-0.4-1.2-1.4-0.6-2.4c0.6-0.3,1-0.9,1.8-0.6c0.5,0.7,0.7,1.5,0.7,2.4
			C142.8,94.8,142,94.6,141.4,94.7z"/>
		<path fill="#61737A" d="M169.9,41.1c0.2-1,0.6-1.4,1.6-0.9c0.7,0.4,1.4,0.9,2.3,0.7c0.2-0.1,0.5-0.1,0.7,0.1
			c0.1,0.3,0,0.5-0.1,0.7C172.8,42.1,171.1,43.3,169.9,41.1z"/>
		<path fill="#61737A" d="M136.5,37.3c-0.8,0.3-1.3,1.5-2.3,0.9c-1.4-0.9,0.3-2.2-0.3-3.2c0.9,0.3,1.7,0.7,2.6,1
			C136.5,36.4,136.5,36.9,136.5,37.3z"/>
		<path fill="#61737A" d="M194.9,128.3c0.3,0,0.7-0.1,1-0.1c2,1.1,4,1.6,6.3,1.5C199.4,131.3,197.1,130.2,194.9,128.3z"/>
		<path fill="#61737A" d="M221.8,60c0.8,0.5,1.6,1.1,1.3,2.2l-0.3,0.1l-0.3,0c-1.6-1-3.3,0.8-4.9-0.4c-0.3-1.4,1-1.6,1.7-2.3
			c0.4-0.2,0.9-0.3,1.3-0.3C221.2,59.4,221.6,59.5,221.8,60z"/>
		<path fill="#61737A" d="M173,27.6c0.6,0.7,0.7,1.5,0.8,2.3c-0.4,0.4-0.9,0.9-1.3,1.3c-0.3-0.8-1.3-1.4-1.2-2.4
			c0.4-0.4,0.8-0.8,1.2-1.2C172.6,27.5,172.8,27.6,173,27.6z"/>
		<path fill="#61737A" d="M217.6,61.6c1.6,0.5,3.4-0.7,4.9,0.6c-1.4,0.2-2.8,0.5-4.2,0.7c-0.7-0.2-2,0.1-1.2-1.4
			C217.3,61.4,217.5,61.5,217.6,61.6z"/>
		<path fill="#61737A" d="M155.3,91.2c1.1-0.9,2.2-1.6,3.7-1.4c0.6,1,0.1,1.7-0.5,2.5c-0.3,0-0.5,0.1-0.8,0.1
			C156.9,91.9,156.1,91.6,155.3,91.2z"/>
		<path fill="#61737A" d="M161.5,125.2c0.5-0.6,1-1.2,1.5-1.8c0.9-0.3,1.7-1,2.7-0.6c-0.2,0.4-0.4,0.8-0.6,1.2
			C164,124.5,163.2,126.1,161.5,125.2z"/>
		<path fill="#61737A" d="M199.3,83.7c-0.4,0.2-0.8,0.4-1.2,0.6c-0.3-0.4-0.4-0.8,0.1-1.1c1.1-1.3,2.2-2.7,4.1-1.4
			C201.4,82.5,200.1,82.7,199.3,83.7z"/>
		<path fill="#61737A" d="M176.9,31.2c0.7,0.1,1.4,0.3,1.2,1.2c-0.1,0.6-0.4,1.2-1.1,1.2c-0.9-0.1-1.1-0.8-1.3-1.4
			C175.6,31.3,176.3,31.2,176.9,31.2z"/>
		<path fill="#61737A" d="M145.7,92.9c2.5-1.6,2.4,0.1,2.4,1.8C146.2,95.6,146.2,93.9,145.7,92.9z"/>
		<path fill="#61737A" d="M123.9,43.3c-0.6-0.2-1.4-0.3-1.3-1.2c0.1-0.5,0.2-1.4,1-1.2c0.7,0.1,1.1,0.9,1.2,1.6
			C124.9,43.1,124.5,43.3,123.9,43.3z"/>
		<path fill="#61737A" d="M225.5,27.1c2,1.5,1.4,3.1,0.4,5.3C225.3,30.3,226.9,28.6,225.5,27.1z"/>
		<path fill="#61737A" d="M174.4,41.6c0-0.3-0.1-0.6-0.1-0.9c0.2-1.2-0.4-2.5,0.7-3.5c0-0.3,0-0.5,0-0.8
			C177.2,38.5,176,40.1,174.4,41.6z"/>
		<path fill="#61737A" d="M141.4,47.1c0.6-1.2,1.8-1.6,3-1.9C144.1,47,143.5,48.3,141.4,47.1z"/>
		<path fill="#61737A" d="M142,29.4c0.2,0.2,0.4,0.4,0.6,0.6c0.2,0.9-0.5,1.6-0.7,2.3c-0.4,0.5-0.8,1-1.5,1.8
			c-0.2-1.4,0.7-2.1,0.9-3C141.6,30.6,141.8,30,142,29.4z"/>
		<path fill="#61737A" d="M151.1,76.4c0.3-0.8,1.3-1.3,1.2-2.4c0.5-0.1,1,0.1,1.3,0.5c-0.7,0.4-0.1,0.9-0.1,1.3
			C153.2,77.7,152.4,77.9,151.1,76.4z"/>
		<path fill="#61737A" d="M138.9,88c-0.1,0.2-0.3,0.3-0.4,0.5c-0.9-1-3-0.6-3.3-2.4c1.1-0.1,2.1,0.5,3.1,0.9
			C138.8,87.1,139.3,87.3,138.9,88z"/>
		<path fill="#61737A" d="M223.2,37.3c-0.2,0-0.4,0-0.6,0c0.2-1.6,0.9-2.9,2.5-3.9C224.4,34.7,223.8,36,223.2,37.3z"/>
		<path fill="#61737A" d="M212.2,126.2c0-0.3,0-0.6,0-0.9c1,0.7,2,1.5,3.5,2.6C213.5,128.1,212.9,127,212.2,126.2z"/>
		<path fill="#61737A" d="M157.3,130.2c0,0.2,0,0.4,0,0.6c-1.2,0.4-2.4,0.8-4.2,1.5C154.6,130.5,155.8,130.1,157.3,130.2z"/>
		<path fill="#61737A" d="M205.4,25.1c0.9,2.7-2.2-0.8-1.7,1.6c0.7,0.5,2.1,0.7,2.5,2c0.2,1.5-0.6,2.9-0.8,4.3
			c-0.2,0.4-0.5,0.7-1.1,0.6c0.5-1.7-1-1.5-1.9-1.9c-0.3-2.2-1.1-4.2-2.9-5.6c-0.5-0.4-1.1-0.9-0.8-1.7c-0.2-2.8,1.3-3.4,3.7-3
			c2-1.1,3-0.7,2.6,1.8C204.8,23.8,204.8,24.6,205.4,25.1z"/>
		<path fill="#61737A" d="M205,33.1c-0.4-1.7-0.1-3.1,1.1-4.4c0.6,0.1,1.3,0.2,1.8-0.3c1.4-0.5,1.2,0.8,1.6,1.4
			c0.1,0.2,0.2,0.5,0.2,0.7c-0.9,1.6-1.1,3.2-0.1,4.9c-1.1,1.1-0.4,2.5-0.7,3.8c-1.1,0.2-2-0.2-3-0.6c-0.8-0.9-1.7-1.7-1.8-3.1
			C204.8,34.8,205.8,34.3,205,33.1z"/>
		<path fill="#61737A" d="M215.8,41.6c-1.4,2.2-0.1,3.1,1.8,3.7c0.2,0.2,0.4,0.4,0.6,0.6c0.1,0.5,0.1,0.9-0.5,1.1
			c-1.8-0.3-1.8,2.7-3.8,2.1c-1.5-1.1-2.9-2.4-4.1-4c-0.1-0.8-0.2-1.5-0.3-2.3c-0.1-0.7,0.2-1.2,0.8-1.5
			C212.1,42.8,214,42.4,215.8,41.6z"/>
		<path fill="#61737A" d="M198.7,24.4c1.3,1.3,2.7,2.6,3.8,4c0.6,0.9,0.9,2.2,0,3.3c-2.1,0.8,0.9,1.4,0,2.3c-1.4,0-1.5-1.7-2.4-2.2
			c-1.4-0.3-2-1.5-2.8-2.5c-1-1.7-1.4-3.4,0.3-4.9C197.8,24.4,198.2,24.4,198.7,24.4z"/>
		<path fill="#61737A" d="M209.8,45.2c1.9,0.6,3,2.2,4.2,3.7c0.9,1.9-0.5,2.8-1.7,3.8c-0.3,0.1-0.5,0.1-0.8,0.1
			c-1.3-1.1-2.5-2.3-2.9-3.9C207.4,47.1,210.2,46.6,209.8,45.2z"/>
		<path fill="#61737A" d="M212.2,59.2c-1.1-0.1-1.3,1.6-2.5,1.4c-0.5-0.3-0.6-0.9-0.6-1.4c-2.9-3.2-2.9-3.2,1.2-6
			c0.3-0.2,0.5-0.2,0.8,0C212.2,55.1,212.8,57,212.2,59.2z"/>
		<path fill="#61737A" d="M207.8,72.6c0,0.4,0,0.8,0,1.2c-2.6-0.4-4.1,0.8-4.9,3.1c-1.3-0.1-1.9-0.6-0.8-1.8
			c0.7-0.8,1.4-1.6,2.1-2.4c1.4-0.8,0.8-4,3.7-2.9C208.9,70.8,206.8,71.7,207.8,72.6z"/>
		<path fill="#61737A" d="M197.4,24.4c-0.5,1.7-0.5,3.3,0.2,4.9c0.2,0.5,0.3,1-0.1,1.4c-1.9-1.4-4.7-2-4.2-5.3
			c0.1-0.3,0.4-0.6,0.6-0.9c1,0,2.1,0.5,3.1,0C197.1,24.5,197.2,24.5,197.4,24.4z"/>
		<path fill="#61737A" d="M210.4,41.4c-0.3,0.5-0.5,1-0.8,1.5c-2.1,0.4-2.6-0.2-3.5-4.3c1.2-1,2.1-0.1,3,0.6
			C209.4,39.9,210.5,40.3,210.4,41.4z"/>
		<path fill="#61737A" d="M210.9,53.1c-0.2,0-0.3,0.1-0.5,0.1c-3.6-1.2-3.9-2-1.8-4.4c1.3,0.9,2.2,2.1,2.8,3.6
			C211.3,52.8,211.2,53,210.9,53.1z"/>
		<path fill="#61737A" d="M209.2,59.2c0.6,0.3,0.5,0.9,0.6,1.4c0.4,0.4,0.9,0.8,1.3,1.2l0.2,0.2l-0.2,0.2c-0.4,0.4-0.9,0.8-1.3,1.1
			c-0.6,0.5-1.2,0.9-1.8,1.4C208,62.8,208.3,60.9,209.2,59.2z"/>
		<path fill="#61737A" d="M186.5,25.7c0-2.3,1.2-2.6,3-1.9c0.2,0,0.4,0,0.6,0.1c-0.6,0.8-1.2,1.6-1.8,2.4
			C187.2,27.6,186.7,27.2,186.5,25.7z"/>
		<path fill="#61737A" d="M197,24.5c-1,1.8-2.1,2.2-3.1,0c0.4-0.4,0.9-0.8,1.3-1.2C196.1,23.2,196.9,23.2,197,24.5z"/>
		<path fill="#61737A" d="M197.5,30.7c0-0.5,0.1-0.9,0.1-1.4c0.9,0.7,1.8,1.4,2.4,2.5C198.5,32.9,197.3,33.5,197.5,30.7z"/>
		<path fill="#61737A" d="M205,33.1c0.7,0,1.7-0.2,1.5,0.8c-0.2,1.1-1.2,1.5-2.3,1.5c0-0.6,0-1.2,0-1.8
			C204.5,33.5,204.7,33.3,205,33.1z"/>
		<path fill="#61737A" d="M207.9,65.9c0.4,0.4,0.9,0.8,1.3,1.2c-0.1,0.5-0.2,1.1-0.7,1.4C206.6,68,207.3,67,207.9,65.9z"/>
		<path fill="#61737A" d="M240.4,102.3c-1.2-3.8-3.3-5.4-7.5-5.3c-3.9,0-6,1.6-7,5.4c-0.9,3.6-0.8,7.3-0.2,10.9
			c0.6,4.1,3.1,6.2,6.9,6.4c4.4,0.2,6.8-1.7,7.9-5.9c0.5-1.8,0.3-3.6,0.4-5.5C240.9,106.3,241.1,104.3,240.4,102.3z M236.1,114.1
			c-0.6,1.3-1.5,2.1-3,2.1c-1.5,0-2.5-0.8-2.9-2.2c-1.1-3.8-1.1-7.6,0-11.4c0.4-1.4,1.4-2.3,2.9-2.3c1.7-0.1,2.6,1,3.1,2.4
			c0.7,1.8,0.4,3.8,0.6,5.6C236.7,110.3,236.9,112.2,236.1,114.1z"/>
		<path fill="#61737A" d="M276.1,110.8c-2.1,0.1-1.9-1.2-1.9-2.5c0-1.4,0-2.8,0-4.3c0-1.4,0.1-2.8,0-4.3c-0.1-0.9,0.5-2.3-0.9-2.5
			c-1.2-0.2-2.6-0.6-3.6,0.8c-2.9,4-6,7.9-8.8,12c-1.7,2.5-0.6,4.1,2.4,4.1c1.2,0,2.5,0.1,3.6,0c2.5-0.3,3.6,0.5,3.2,3.1
			c-0.3,1.6,0.2,2.4,2.1,2.4c1.9,0,2.1-0.9,2.1-2.5c-0.1-1.4-0.6-3.2,2-3c0.8,0.1,1.1-0.7,1.1-1.5
			C277.3,111.6,277.1,110.7,276.1,110.8z M264.4,110.6c1.9-2.6,3.5-4.9,5.2-7.2C271.5,109.2,270.4,110.9,264.4,110.6z"/>
		<path fill="#61737A" d="M117.5,102.5c-4.1-0.9-7.6,0.7-8.5,4.4c-1.4,5.6-0.6,10.4,3.4,12.1c2.8,1.2,5.8,0.8,8.7,0.2
			c1.3-0.2,1.1-1.2,1.1-2.1c0-1.3-0.9-1.1-1.7-1.1c-1.7,0-3.5,0.1-5.2,0.1c-1.7-0.1-2.8-1.1-2.7-2.7c0.1-1.8,1.7-0.8,2.6-1
			c0.8-0.1,1.6,0,2.4,0c1.2,0,2.4,0,3.7,0c0.8,0,1.3-0.2,1.5-1.1C123.7,107.7,121.1,103.3,117.5,102.5z M115.6,109.6
			c-1-0.6-2.8,0.8-2.9-1.1c-0.1-1.8,1.3-2.7,2.9-2.8c1.7,0,3.1,1,3,2.7C118.5,110.7,116.5,108.9,115.6,109.6z"/>
		<path fill="#61737A" d="M182.9,96.5c-0.6-1-1.2-2-1.8-3.1c1.9-1.4,4-0.6,5.8-0.2c2,0.4,0.9-0.9,1.2-1.4c0.1-0.3,0.3-0.4,0.6-0.6
			c1.9-0.2,1.7-2.3,2.8-3.2c0.2,0,0.4,0,0.5,0c0.5,0.3,0.2,0.9,0.5,1.3c0.1,1,1,1.8,0.5,3.1c-0.8,1.9,1.5,1.9,2.2,2.9
			c-0.7,1.4,0.3,2.4,1,3.2c3.3,4,1.8,8.1,0.4,12.2c0.2-3.5-1.3-6.6-2.1-9.9c-0.2-0.9-0.6-2-1.6-1.8c-0.7,0.2-1.6,1.2-1.2,2.2
			c0.4,1.2-0.5,2.2-0.3,3.3c0,2-0.1,4.1-1.9,5.5c-0.4,0.4-0.7,0.9-1.1,1.3c-0.8-0.4-0.6-1.2-0.7-1.9
			C188.8,104,185.2,100.5,182.9,96.5z"/>
		<path fill="#61737A" d="M180.5,92.7c-0.2,0-0.4,0.1-0.7,0.1c-0.8-1.1-1.4-2.2-1.3-3.6c0.2-0.2,0.5-0.4,0.7-0.6
			c2.2-0.5,4.5-0.7,6.7-0.6c0.6,1.3,2.6,1.7,2.2,3.5c-2.1,1.7-4.6,0.8-6.8,0.5C180.2,91.8,181,92.9,180.5,92.7z"/>
		<path fill="#61737A" d="M198.2,83.2c0,0.4-0.1,0.8-0.1,1.1c-0.3,0.3-0.5,0.2-0.6-0.2c-0.4-3.2-1.9-2.7-3.7-1
			c0.1-0.8,0-1.6,0.3-2.4c0.4-1.1,0.9-2.1,2.4-1.9c1.5,0.2,1.6,1.3,1.6,2.5C198.1,81.9,198.2,82.5,198.2,83.2z"/>
		<path fill="#61737A" d="M191.5,88c-0.4,1.5,0.6,4-2.5,3.6c-0.9-0.9-1.8-1.6-1.8-3C188.3,86.3,190,87.6,191.5,88z"/>
		<path fill="#61737A" d="M192.5,89.2c-0.4-0.3-0.5-0.8-0.5-1.3c-0.2-1-0.4-2.1-0.5-3.1c-0.1-1,0.4-1.3,1.2-0.5
			c-0.3,1.3,0.9,2.4,0.4,3.6C192.9,88.4,192.7,88.8,192.5,89.2z"/>
		<path fill="#61737A" d="M187.1,88.6c0.6,1,1.2,2,1.8,3c-0.2,0-0.4,0-0.6,0c-0.2,0.3-0.4,0.3-0.6-0.1c0-1.5-2-2-1.9-3.6
			C186.3,88.2,186.7,88.4,187.1,88.6z"/>
		<path fill="#61737A" d="M135.9,56.2c-0.2,0.2-0.5,0.4-0.8,0.7c-2.4,0.8-3.6,3-5.5,4.3c-0.6,0.7-1,1.8-2.3,1.3
			c-0.7-1.4-1.6-2.8-1.8-4.5l0,0c-0.1-1.4,1.1-1.4,1.9-1.9c1.4-0.9,3.1-1.5,3-3.6c2,1.5,2.7-1.1,4.2-1.3c1,1,1,2.4,1.3,3.7
			C135.9,55.4,135.9,55.8,135.9,56.2z"/>
		<path fill="#61737A" d="M132.2,80.7c-1.8-2.2-1.2-5.9,1.3-7.1c2.7-1.3,3.1,1.5,4.3,2.9c0.2,1-1.2,0.9-1.3,1.7
			c-0.3,1-0.9,1.7-1.8,2.3C133.9,80.8,133,81.1,132.2,80.7z"/>
		<path fill="#61737A" d="M127.3,62.5c1.2,0.3,1.2-1.5,2.3-1.3c-0.7,2,1.4,4.4-1,6c-0.4,1.1-0.4,2.5-2,2.8c-0.2,0.1-0.3,0.1-0.5,0.1
			c-0.4-0.6-0.8-1.2-1.2-1.8c0.3-1.6,1.1-2.9,1.9-4.2c0.5-0.4,0.8-0.9,0.6-1.5L127.3,62.5z"/>
		<path fill="#61737A" d="M135.9,77.7c-0.3-1.8,1.7-0.2,1.8-1.3c0.7-1-0.1-2.1,0-3.1c1.9-0.4,2.1,2,3.6,2.3c0.6,0.6,0.7,1.2,0.4,2
			c-0.2,0.4-0.5,0.7-0.9,1C138.9,79.9,137,80.5,135.9,77.7z"/>
		<path fill="#61737A" d="M134.8,58.7c0.2,0.2,0.3,0.3,0.5,0.5c-0.7,1.4,0.2,2.5,0.6,3.7c-1.5,1.8-2.8,0.9-3.9-0.4
			c-1.2-1.4,0.6-1.7,1.1-2.5C133.4,59.4,133.8,58.6,134.8,58.7z"/>
		<path fill="#61737A" d="M126.6,70.1c1.1-0.6,0.7-2.4,2-2.8c1,1.2,4.2,0.9,3.3,2.9c-0.8,1.9-3.1,0.9-4.7,0
			C127,70.1,126.8,70.1,126.6,70.1z"/>
		<path fill="#61737A" d="M141.4,77.6c0-0.7,0-1.4-0.6-1.8c-0.4-1.8-2.5-2.5-3.1-4.3c0.6-0.2,1.2-0.4,1.8-0.6
			c1.5-0.3,2.2,0.9,3.2,1.7c0,1.6,0.5,3.2,1.4,4.5c0.1,0.5,0,0.9-0.3,1.2C142.9,78.6,142.1,78.3,141.4,77.6z"/>
		<path fill="#61737A" d="M137.7,71.5c1.7,0.9,3.5,1.8,3.1,4.3c-1.9,0.2-1.5-2.3-3.1-2.4c-0.3-0.2-0.6-0.5-0.9-0.6
			c-0.8-0.3-1.7-0.7-1.2-1.6C136.3,69.9,137,71.3,137.7,71.5z"/>
		<path fill="#61737A" d="M132.2,80.7c0.7-0.5,1.5-0.7,2.4-0.7c2.1-0.9,4.1-0.3,6,0.4c0.3,0.2,0.4,0.5,0.4,0.9
			c-1.5,2-3.1,0.4-4.7,0.1c-0.5,0.2-1,0.4-1.6,0.6C133.7,81.9,132.7,81.8,132.2,80.7z"/>
		<path fill="#61737A" d="M142.6,72.7c-1.4,0-1.9-1.4-3-1.8c0-0.2,0-0.4,0-0.7c0.2-0.3,0.5-0.7,0.7-1c0.4,0,0.8,0,1.1-0.1
			c0.2,1.6,1.7,2,2.5,3C143.8,73.1,143.3,73.1,142.6,72.7z"/>
		<path fill="#61737A" d="M133.6,45.3c-0.2,0.2-0.5,0.4-0.7,0.6c-0.8-0.6-1.6-1.2-2.5-1.8C131.9,43.7,132.6,44.7,133.6,45.3z"/>
		<path fill="#61737A" d="M209.7,35.4c-2.7-1.7-2.6-2.5,0.1-4.9c2.5,0.6,3.3,2.9,4.9,4.9C212.8,35.4,211.3,35.4,209.7,35.4z"/>
		<path fill="#61737A" d="M209.6,29.8c-1.3,0.4-0.8-1.2-1.6-1.4c0.2-0.9,0.4-1.8,0.6-2.8c0.6,0.3,1.1,0.5,1.7,0.8
			c0.3,0.4,0.6,0.8,0.8,1.2C211.1,28.7,210.1,29.1,209.6,29.8z"/>
		<path fill="#61737A" d="M189.5,109.9c0.6-1.8,1.3-3.7,1.9-5.5c0.1,0.1,0.4,0.3,0.4,0.4c-0.5,2.3,0.5,3.5,2.7,3.9
			c-0.7,0-1.5-0.1-1.9,0.8c-1.4,1.1-1.8,2.9-2.9,4.2C189.1,112.4,190.6,111.1,189.5,109.9z"/>
		<path fill="#61737A" d="M143.8,78.1c0-0.3,0-0.7,0-1c0.7-0.4,1.4-0.3,2.1-0.4c1.5,0.4,2.2,1.8,3.6,2.3c1.7,1,4,1,5.3,2.9
			c0.3,0.8,1.3,1.3,1.2,2.4c1.2,0.7,1.6-0.7,2.5-0.9c1.2-0.3,2.3-0.5,3.3,0.5c0.4,1.7,2.4,2.9,1.5,5c-1.4,0.8-2.8,0.5-4.1-0.4
			c-2.1-1-4.7-1.2-6.4-3c0.5-1.8-0.6-2.5-1.9-3.3c-2.1-1.1-2.4,1.3-3.6,1.9c-2,0-2.2-1.6-2.6-3C144.9,79.9,144.2,79,143.8,78.1z"/>
		<path fill="#61737A" d="M154.8,81.9c-1.9-0.8-3.7-1.7-5.6-2.5c-2.2-2.3,0.4-2.3,1.4-3c0.2,0,0.3,0,0.5,0c1,0.6,1.9,0.7,2.5-0.6
			C157.2,77.2,155.7,79.6,154.8,81.9z"/>
		<path fill="#61737A" d="M163.4,88.5c-0.3-1.7-2.4-2.7-1.9-4.7c-0.3-1.1,0.5-1.2,1.2-1.3c0.8-0.2,1.6,1.1,2.5,0
			c1-0.6,1.6-0.2,1.8,0.9c0,0.1,0,0.3,0,0.4c-0.1,1.3-1.3,2.2-1.3,3.6c-0.3,0.7-0.8,1.1-1.5,1.4C163.9,88.8,163.6,88.7,163.4,88.5z"
			/>
		<path fill="#61737A" d="M162.7,82.5c-0.4,0.4-0.8,0.9-1.2,1.3c-2-0.6-3.4,0.7-5,1.4c-1.3,0.5-1.1-0.1-0.5-0.9
			c0.9-0.9,1.6-2,2.7-2.7C160.2,80.6,162,79.5,162.7,82.5z"/>
		<path fill="#61737A" d="M167,83.4c-0.6-0.3-1-0.9-1.8-0.9c0.8-1.7,0.5-4.3,3.5-4.2C168.1,80,167.6,81.7,167,83.4z"/>
		<path fill="#61737A" d="M182.9,117.3c-0.2,0-0.4,0-0.6,0.1c-0.2-0.3-0.5-0.5-0.7-0.8c1.5-1.3,3-2.6,4.9-4.2
			C185.7,114.8,183.7,115.6,182.9,117.3z"/>
		<path fill="#61737A" d="M182.8,113.5c0-0.2,0-0.4,0.1-0.6c0.8-1.2,1.6-2.4,2.5-3.6C186.1,111.7,184.4,112.5,182.8,113.5z"/>
		<path fill="#61737A" d="M204.8,80.6c0.7-1.1,1.5-2,3-1.8C207.5,80.6,206.1,80.6,204.8,80.6z"/>
		<path fill="#61737A" d="M135.9,55c-1.7-0.8-1.1-2.4-1.2-3.7c1.8-1.4,2.8,0,3.4,1.3C138.9,54.6,136.6,54.2,135.9,55z"/>
		<path fill="#61737A" d="M165.2,87.2c-0.4-1.6,0.5-2.6,1.8-3.4c0.4,0,0.8,0,1.2,0c0.9,0.2,1.1,0.9,1.2,1.7c0,0.4,0,0.9-0.2,1.3
			C168.1,88.6,166.7,88.3,165.2,87.2z"/>
		<path fill="#61737A" d="M168.9,86.7c0-0.3,0.1-0.7,0.1-1c0.5-0.4,1.1-0.7,1.7-0.7c1.3,0.8,2.5,1.6,3.8,2.4
			c0.2,0.4,0.3,0.8,0.5,1.3C172.5,89.2,170.7,88,168.9,86.7z"/>
		<path fill="#61737A" d="M170.7,84.9c-0.3,1-0.9,1.2-1.7,0.7c-0.3-0.6-0.5-1.3-0.8-1.9C169.8,82.4,170,84.3,170.7,84.9z"/>
		<path fill="#61737A" d="M175,37.3c0.1,1.2,0.1,2.4-0.7,3.5c-0.1,0.1-0.3,0.1-0.5,0.1c-0.2-0.9-0.3-1.7-0.5-2.6
			C173.2,36.8,173.9,36.8,175,37.3z"/>
		<path fill="#61737A" d="M220.7,59.8c-0.4,0.1-0.8,0.1-1.2,0.2c-1.2-0.2-2.5-0.1-3.7-0.6c-0.2,0-0.4-0.1-0.5-0.2
			c-0.2-1.1-1.5-1.8-1.3-3.1c0.4-0.3,0.8-0.7,1.3-0.7c3.1-0.1,4.6-2.2,6-4.6c0.5-0.9,0.7-2.1,1.9-2.5c2,0.4,3.3,1.7,4.2,3.5
			c1.3,2.6-2.1,2.7-2.4,4.4C222.6,56.3,221.9,58.4,220.7,59.8z"/>
		<path fill="#61737A" d="M221.3,50.7c0,5-4,4.8-7.2,5.5c-2.4-0.3-2.8-1.7-2-3.7c0.3-1.4,2.4-1.9,2-3.7c1.4,0.1,1-1.2,1.5-1.8
			c0.8-1,1.5-1.2,2.2,0c-0.9,1.6-0.9,2.8,1.3,3.1C219.8,50.2,220.5,50.5,221.3,50.7z"/>
		<path fill="#61737A" d="M212,52.6c0,1.6,0.4,3,2,3.7c1,0.7,1.9,1.4,1.2,2.9c-1,0-2.1,0-3.1,0c-0.4-2-0.9-4.1-1.3-6.1
			c0.2-0.2,0.3-0.4,0.5-0.6C211.6,52.5,211.8,52.5,212,52.6z"/>
		<path fill="#61737A" d="M215.8,59.3c1.3-0.5,2.7-0.8,3.7,0.6c0.1,1.4-1.3,1-1.9,1.7c-0.2,0-0.3,0-0.5-0.1
			C216.7,60.8,216.2,60.1,215.8,59.3z"/>
		<path fill="#61737A" d="M211,62.2c-0.1-0.1-0.1-0.3,0-0.4c0.1-0.1,0.2-0.1,0.2-0.2c0.7-0.6,1.3-1.5,2.3-0.8c0.2,0.1,0.4,0.9,0.3,1
			C213.1,62.7,212.2,63.3,211,62.2z"/>
		<path fill="#61737A" d="M220.7,59.8c0.9-3.3,0.7-4.7,4.2-3.6c0.2,0.2,0.5,0.4,0.7,0.6c0.6,0.2,0.9,0.6,0.8,1.3
			c-0.2,0.2-0.5,0.4-0.7,0.6c-1.3,0.4-2.4,1.3-3.8,1.3C221.5,59.9,221.1,59.8,220.7,59.8z"/>
		<path fill="#61737A" d="M226.4,58.1c-0.3-0.4-0.5-0.8-0.8-1.3c0.6-1,1.4-1.9,2.6-1.2c0.7,0.4,0.6,1.5,0.4,2.2
			C228.1,59.2,227.2,58.4,226.4,58.1z"/>
		<path fill="#61737A" d="M168.2,95.3c-0.2,0.4-0.6,0.6-1.1,0.5c-0.4-0.5-1.1-0.7-1.3-1.5c-0.8-3.3-1-3.3-3.3-1
			c-1.1,1.1-1.7,0.7-2.2-0.5c0.5-1.1,0.8-2.4,1.9-3.2c2.7,0.4,5.2,1.3,7.3,3C169.9,93.9,169.2,94.7,168.2,95.3z"/>
		<path fill="#61737A" d="M162,89.9c-0.2,1.2,0.2,2.8-1.8,2.9c-0.6-0.2-1.2-0.4-1.8-0.6c0.2-0.8,0.4-1.7,0.5-2.5
			c0.1-0.2,0.2-0.3,0.2-0.5C160.4,88.4,161.3,89,162,89.9z"/>
		<path fill="#61737A" d="M136.3,81.4c1.5,0,3-0.1,4.4-0.1c1.2-0.2,1.3,0.8,1.7,1.5c0.6,1.5,2.2,1.9,3.5,2.5
			c1.3,1.6,0.1,2.4-1.1,3.2c-0.2,0.1-0.3,0.1-0.5,0.1c-0.5-0.4-1-0.8-1.6-1.2c-1.4-0.7-2-2.2-3.2-3.1C139,82.8,137,82.9,136.3,81.4z
			"/>
		<path fill="#61737A" d="M139.7,84.3c2.4-0.4,2.6,1.6,3.2,3.1c-1,2-2.6,0.7-3.9,0.7c-0.2-0.3-0.4-0.7-0.6-1
			C138.4,85.9,138.7,84.9,139.7,84.3z"/>
		<path fill="#61737A" d="M162,89.9c-1-0.1-1.8-0.9-2.8-0.6c-0.2-0.2-0.5-0.5-0.7-0.7c-0.1-0.6,0-0.9,0.7-0.6c1.4,0.4,2.7,1,4.2,0.6
			c0.2,0,0.3,0,0.5,0c2.6,0,5.2,0.4,7.5,1.5c1,0.5,2.4,0.8,2.4,2.3c-1.1,1.3-2.7-0.6-3.8,0.7l-0.3,0.1l-0.2-0.2
			C167,91.9,164.5,90.9,162,89.9z"/>
		<path fill="#61737A" d="M152.3,87.9c-0.6,0.9-0.9,2.1-2.3,1.8c-0.5-0.2-1.1-0.4-1.6-0.6c0-2,0.5-3.7,2.8-4.2
			c0.7,0.1,1.4,0.3,1.4,1.2C152.4,86.7,152.4,87.3,152.3,87.9z"/>
		<path fill="#61737A" d="M152.5,86.2c-0.5-0.2-0.9-0.5-1.4-0.7c-0.6-0.3-1.1-0.8-0.3-1.3c0.9-0.6,1.7-0.2,2.1,0.8
			c1.8,1.7,4.3,1.7,6.2,3c-0.2,0.2-0.4,0.4-0.7,0.6C156.3,88.2,154.4,87.2,152.5,86.2z"/>
		<path fill="#61737A" d="M173.8,92.3c-2-1.6-4.3-2.4-6.9-2.7c-1-0.1-2.1-0.7-3.1-1.1c0.4-0.4,0.9-0.9,1.3-1.3
			c1.2-0.1,2.6,1.2,3.6-0.5c2.2,0,4,1.6,6.1,1.9l0,0.1c0.4,1.3,0.4,2.5-0.8,3.5C174.1,92.2,173.9,92.2,173.8,92.3z"/>
		<path fill="#61737A" d="M174.2,92.2c0.1-1.2-0.1-2.5,0.8-3.5c1.4-1.4,2.5-0.2,3.6,0.6c1.1,0.9,1.6,2.1,1.3,3.6
			c-0.9,0.9-1.7,1.7-3,0.7C176.2,92.5,174.8,93.2,174.2,92.2z"/>
		<path fill="#61737A" d="M169.5,92.9c0.2,0,0.3,0,0.5,0.1c0.5,1,0.9,1.9,1.4,2.9c-1.2,0.7-2.1-0.9-3.2-0.6
			C168.7,94.5,169.1,93.7,169.5,92.9z"/>
		<path fill="#61737A" d="M127.3,62.5c0,0,0.1,0.2,0.1,0.2c-0.7,0.3-1.3,0-1.9-0.3c0-1.2-0.1-2.4-0.1-3.6c0-0.2,0.1-0.5,0.1-0.7
			C126,59.5,127.7,60.6,127.3,62.5z"/>
		<path fill="#61737A" d="M152.9,84.9c-0.6-0.3-1.2-0.9-1.9-0.5c-0.5,0.3,0,0.7,0.1,1c-1.9,0.5-1.6,2.7-2.8,3.7
			c-0.3,0.2-0.6,0.4-0.9,0.6c-1.2,0.2-1.6-1.1-2.5-1.4c-0.6-1.2,2.1-1.6,0.7-3c-0.2-1.4,1.1-1.2,1.8-1.6c0.6-1.1,0-3.3,2.2-2.9
			c1.7,0.3,3.5,1,4.1,3.1C153.9,84.8,153.4,84.8,152.9,84.9z"/>
		<path fill="#61737A" d="M145.7,77c-0.6,0.4-1.3,0.4-1.9,0.1c-1.6-1.1-2.4-2.4-1.2-4.3c0.4-0.2,0.8-0.4,1.3-0.6
			c0.7-0.5,1.5-0.8,2.4-0.6c0.5,1,1.5,1.8,1.3,3.1C147.7,76,146.7,76.5,145.7,77z"/>
		<path fill="#61737A" d="M145.7,77c0.6-0.8,1.2-1.6,1.8-2.4c1.1,0.5,1.8,1.8,3.2,1.8c-0.2,1.1-2.9,1.1-1.4,3
			C147.5,79.4,147.1,77.5,145.7,77z"/>
		<path fill="#61737A" d="M187.8,91.6c0.2,0,0.4,0,0.6,0.1c-0.2,1.2,1.7,1.9,0.8,3.4c-2.4-1.9-5.3-1.4-8.1-1.6
			c-0.2-0.3-0.4-0.5-0.6-0.8c0-0.5-0.2-1.2,0.1-1.5c0.6-0.7,0.6,0.5,1,0.5C183.6,91.7,185.7,91.6,187.8,91.6z"/>
		<path fill="#61737A" d="M140.6,80.7c-2-0.2-4-0.5-6.1-0.7c0.5-0.7,1.4-1.2,1.3-2.3c1.5,1.7,3.1,1.2,4.9,0.5
			C141.3,79.1,141.1,79.9,140.6,80.7z"/>
		<path fill="#61737A" d="M140.6,80.7c-0.4-0.8,0-1.6,0.1-2.5c0.2-0.2,0.4-0.4,0.7-0.6c0.8,0.2,1.6,0.3,2.4,0.5
			c1.3,0.4,2.7,0.8,1.2,2.6c-0.9,0.9-1.4,2.3-3,2.5c-0.4-0.6-0.8-1.2-1.2-1.9C140.8,81,140.7,80.9,140.6,80.7z"/>
		<path fill="#61737A" d="M142,83.1c0.9-0.9,1.3-2.4,3-2.5c0.9,1,0.7,2.8,2.5,3.1c-0.6,0.5-1.2,1.1-1.8,1.6
			C143.9,85.5,142.5,85,142,83.1z"/>
	</g>
</g>
<g id="Lag_2" display="none">
	<g display="inline">
		<path fill="#61737A" d="M221.3,70c-0.2-0.3,1.7-1.7,1-3c-2-2.3-3.7,0.8-4.7,2.2c-0.6,0-1.2,0-1.8,0c-1.3,0-2.5,0.1-3.8,0.3
			c-1.2,0.1-2.4,0.4-3.6,0.8c-2,0.6-3.8,1.4-5.5,2.6c-2,1.4-3.7,3.2-5,5.5c-2.1,5.4,0,10.6,5.4,13.2c0.3,0.6-1.5,2,0.2,2.9
			c2,0,1.8-0.4,3-1.9c0.6,0.1,1.2,0.1,1.9,0.1c1.2,0,2.4,0,3.6-0.1c1.3-0.2,2.5-0.4,3.8-0.8c2.6-0.8,5.1-2,7.2-3.7
			c2.1-1.7,3.8-4,4.9-6.7c0.2-0.7,0.3-1.4,0.3-2.1V78C228,74.1,225.2,71.5,221.3,70 M205.4,87.7C205.3,87.7,205.3,87.7,205.4,87.7
			c-2.7-1.4-3.3-2.4-3-5.2c0.6-3.3,3.1-6,6.1-7.6c1.1-0.6,2.3-1,3.6-1.3c0.9-0.2,1.8-0.3,2.6-0.3c-0.9,1.3-1.8,2.5-2.6,3.8
			c-1.2,1.8-2.4,3.5-3.6,5.4C207.4,84.2,206.4,85.9,205.4,87.7 M222,80.5c-1.5,2.9-3.6,4.7-6.2,5.9c-1.1,0.6-2.4,1-3.8,1.3
			c-0.8,0.2-1.6,0.3-2.4,0.4h-0.2c0.8-1.5,1.7-2.9,2.6-4.4c1.3-2,2.5-4,3.8-6c0.9-1.3,1.8-2.7,2.7-4C221.8,73.8,222.8,77.9,222,80.5
			"/>
		<path fill="#61737A" d="M176.6,93.6c3.6-0.1,7.9-0.5,11.7-1.9c3.1-1.1,5.9-2.9,7.6-5.7c1.1-2.6,0-4.7-1.8-6.3
			c-1.6-1.3-3.7-2.2-5.5-2.6c-1.8-0.2-11.3,0.1-11.3-2.2c1.1-2.6,7.6-2,9.7-1.7c1.4,0.5,6.3,0.8,5.5-1.8c-2.2-2.2-6.2-2.9-10.1-2.6
			c-3.9,0.4-7.8,1.9-9.8,4.1c-2.8,4.3,2,7.4,6.2,7.7c2.4,0,11.7-1,11.7,3.8c-1.6,4.9-11.3,5.4-15.1,4.8c-2.7-1.1-3.6-4-6.5-1.4
			C166.7,91.2,174.3,93.4,176.6,93.6"/>
		<path fill="#61737A" d="M148.9,89.5c1-4.6,4.3-8.2,6.6-12.2c1.9,0.6,4.3,8.2,4.5,10.1c0.1,3.5,0.3,6.4,4.7,6.4
			c3.5-1.2-1.7-11.4-2.3-12.7c-1.1-2.9-2.7-6.2-2.8-9.1c-0.3-1-1-1.7-1.9-2c-1.1-0.4-2.5-0.3-3.4,0.3c-3.8,3.8-4.9,10.1-8.6,14.4
			c-2.8,0.8-3.6-11.3-4.6-13.4c-0.6-0.8-1-1.1-1.7-1.6c-1.2-0.1-2.2,1-3.1,2.5c-1.7,3-2.8,7.7-3.4,9c-0.5,1-0.9,2.1-1.4,3.1
			c-0.9,1.7-5.5,8-1.5,9c4.6,0,5.7-8.2,8.1-11.4c1.6,2.1,2.8,4.9,3.6,7.7c0.8,3.7,0.5,3.8,4.6,4.1C148,93.7,148.8,90.7,148.9,89.5"
			/>
		<path fill="#61737A" d="M79.8,93.6c2.6,0,5.3-0.2,7.9-0.8c3.8-0.8,7.5-2.3,10.3-5.1c1.9-2.3,2-4.3,1-6c-1.6-2.7-5.9-4.4-9.2-4.8
			c-1.6,0-9.3,0.1-9.3-1.9c1.1-2.7,7.4-2,9.7-1.7c1.3,0.5,6.1,0.8,5.5-1.7c-1.9-2.1-5.9-2.9-9.9-2.6c-4.7,0.4-9.4,2.3-10.7,5.3
			c-0.8,4.2,3.2,6.2,6.9,6.4c2.5,0,10.7-0.9,11.8,3.2c0,5.2-13.2,6.7-16.1,5c-2.4-2.1-3-2.6-5.5-1C69.9,91.2,77.4,93.4,79.8,93.6"/>
		<path fill="#61737A" d="M126,90.6c-1.7-3.4-3.6-6.7-5.1-10.1c-1.1-2.5-2.1-5-2.8-7.6c-0.3-2.1,0.9-3.2-0.4-4.8
			c-1.6-1-3-0.2-4.2,1.1c-1.7,1.9-2.9,4.9-3.7,6.2c-2.5,3.4-3,7.6-7.6,8.4c-1,0.4-1.9,1.5-1.4,2.7c2.7,2.1-2.5,5.1,1.1,6.7
			c4.3,0.7,3.1-4.2,6.5-5.1c1.6-0.3,3.4-0.6,5.1-0.6c1.5-0.1,3-0.1,4.4,0.1c2.9,0.9,1.8,5.3,6.3,6.4C126.3,93.7,126.8,92.5,126,90.6
			 M116.4,83c-1,0.1-1.9,0.3-2.8,0.5c-0.8,0.1-1.6,0.2-2.3,0.2c-0.2,0-0.4-0.1-0.5-0.1c0.8-1.8,1.8-3.5,2.8-5.1
			c0.3-0.6,0.6-1.1,1-1.6c0.3,0.3,0.8,1.6,1.2,2.9C116.2,81.1,116.5,82.5,116.4,83"/>
		<path fill-rule="evenodd" clip-rule="evenodd" fill="#61737A" d="M95.1,120.1c0,0.6-0.1,1.8-0.2,3.5c-0.1,1.5-0.1,2.7-0.1,3.5
			c0,0.9,0,1.7,0.1,2.4l-0.2,0c0-0.1-0.1-0.6-0.2-1.5c-0.1-0.6-0.1-1.1-0.1-1.5v-6.9c0-0.3,0.1-0.4,0.4-0.4c1.7,0,3,0.6,3.9,2
			c0.8,1.1,1.1,2.6,1.1,4.4c0,1.3-0.4,2.4-1.2,3.4c-0.9,1.1-2,1.6-3.2,1.6c-0.4,0-0.6-0.1-0.8-0.2c-0.1-0.1-0.3-0.3-0.6-0.6l0.1-0.1
			c0.3,0.3,0.5,0.5,0.8,0.5c1.3,0,2.4-0.5,3.2-1.3c0.8-0.9,1.3-2,1.3-3.3c0-1.3-0.3-2.6-0.9-3.8c-0.7-1.4-1.7-2.1-2.9-2.1
			C95.5,119.8,95.4,119.9,95.1,120.1 M106.3,126.2c0,0.9-0.3,1.7-1,2.3c-0.6,0.7-1.4,1-2.3,1c-0.7,0-1.2-0.3-1.6-0.8
			c-0.4-0.5-0.5-1-0.5-1.7c0-1.1,0.7-1.7,2.2-1.7c0.9,0,1.8,0.2,2.6,0.7c-0.1-0.8-0.4-1.6-1-2.3c-0.6-0.7-1.3-1-2.1-1
			c-0.2,0-0.5,0.1-0.8,0.2c-0.3,0.2-0.6,0.3-0.8,0.3c-0.3,0-0.4-0.2-0.4-0.4c0-0.4,0.5-0.6,1.5-0.6c1.1,0,2.1,0.4,2.9,1.2
			C105.9,124.2,106.3,125.1,106.3,126.2 M105.7,126.2c-1.6-0.2-2.5-0.3-2.7-0.3c-1,0-1.5,0.4-1.5,1.1c0,0.5,0.1,0.9,0.3,1.3
			c0.3,0.4,0.6,0.6,1.1,0.6c0.7,0,1.4-0.3,1.9-0.8C105.4,127.6,105.7,127,105.7,126.2 M107.4,127.1c0.6-3.3,1.4-5,2.4-5
			c0.4,0,0.7,0.4,0.8,1c0.8,3.3,1.2,5.3,1.2,6.1c0,0.1-0.1,0.1-0.1,0.1c0,0,0,0-0.1-0.1c-0.1-0.3-0.4-1.2-0.7-2.7
			c-0.2-1-0.5-2-0.7-3c0-0.2-0.1-0.3-0.1-0.5c-0.1-0.2-0.1-0.4-0.2-0.4c-0.6,0-1.1,1-1.5,3.1c-0.4,1.7-0.6,3-0.6,3.8
			c0,0.1-0.1,0.1-0.2,0.1l-0.2-0.1c-0.3-3-0.4-5-0.4-6.2c0-0.1,0-0.3-0.1-0.5c0-0.3-0.1-0.4-0.1-0.5c0-0.3,0.1-0.4,0.4-0.4
			c0.3,0,0.4,0.1,0.4,0.4c0,0.1,0,0.3-0.1,0.5c-0.1,0.2-0.1,0.4-0.1,0.5v2.1C107.3,125.7,107.4,126.2,107.4,127.1 M118,130.4
			c0,0.1-0.1,0.2-0.2,0.2c-0.4-0.3-0.6-2-0.6-5.2c0-0.6,0-1-0.1-1.4c-0.6,1.2-0.9,2.1-1.1,2.9c-0.1,0.4-0.2,0.7-0.3,1
			c-0.1,0.6-0.3,0.8-0.5,0.8c-0.3-0.3-0.5-1.2-0.8-2.7c-0.2-1-0.4-2.1-0.5-3.1c-0.4,1.1-0.6,2.5-0.6,4.2c0,0.2,0,0.6,0.1,1.1
			c0,0.5,0,0.8,0,1.1l-0.2,0.2c-0.1,0-0.2-0.4-0.3-1.1c-0.4-4-0.6-6.1-0.6-6.3c0-0.3,0.1-0.4,0.4-0.4c0.3,0,0.4,0.4,0.4,1.2
			c0,0.3,0,0.6-0.1,0.9c0,0.4-0.1,0.6-0.1,0.6l0.1,0.9c0.1-0.5,0.2-1.1,0.3-1.8c0.2-1,0.5-1.5,0.6-1.5c0.1,0,0.2,0.1,0.3,0.4
			c0.2,0.6,0.5,1.4,0.7,2.3c0.2,0.8,0.3,1.6,0.4,2.3c0.2-0.6,0.5-1.5,0.8-2.4c0.5-1.3,0.9-1.9,1.1-1.9l0.3,0.2
			c0.1,0.5,0.2,1.1,0.2,1.8c0,0.4,0,0.9-0.1,1.7c0,0.7-0.1,1.3-0.1,1.6c0,0.3,0.1,0.7,0.2,1.2C117.9,129.7,118,130.1,118,130.4
			 M124.3,126.2c0,0.9-0.3,1.7-1,2.3c-0.7,0.7-1.4,1-2.3,1c-0.6,0-1.2-0.3-1.6-0.8c-0.3-0.5-0.5-1-0.5-1.7c0-1.1,0.7-1.7,2.2-1.7
			c0.9,0,1.8,0.2,2.6,0.7c0-0.8-0.4-1.6-1-2.3c-0.6-0.7-1.3-1-2.1-1c-0.2,0-0.5,0.1-0.8,0.2c-0.3,0.2-0.6,0.3-0.8,0.3
			c-0.2,0-0.4-0.2-0.4-0.4c0-0.4,0.5-0.6,1.5-0.6c1.1,0,2.1,0.4,2.9,1.2C124,124.2,124.3,125.1,124.3,126.2 M123.8,126.2
			c-1.6-0.2-2.4-0.3-2.7-0.3c-1,0-1.5,0.4-1.5,1.1c0,0.5,0.1,0.9,0.3,1.3c0.3,0.4,0.6,0.6,1.1,0.6c0.8,0,1.4-0.3,2-0.8
			C123.5,127.6,123.8,127,123.8,126.2 M131.5,123.7l-0.2,0.1c-0.5-0.7-1.2-1-2-1c-1,0-1.8,0.4-2.5,1c-0.7,0.7-1,1.5-1,2.5
			c0,0.3,0.1,0.8,0.2,1.4c0.2,0.6,0.3,1.1,0.3,1.5c0,0.3-0.1,0.5-0.4,0.5c-0.1,0-0.5-0.4-0.4-0.4c-0.2-0.1-0.3-0.4-0.3-0.8
			c0-0.3,0-0.6,0-1.1v-0.9c0-0.4-0.1-1.1-0.3-1.9c-0.2-0.8-0.3-1.5-0.3-1.9c0-0.3,0.1-0.4,0.4-0.4c0.2,0,0.4,0.4,0.5,1
			c0,0.5,0.1,0.9,0.1,1.3c0.6-1.7,1.8-2.5,3.6-2.5c0.5,0,0.9,0.2,1.3,0.5C130.8,122.7,131.1,123,131.5,123.7 M125.7,128.6
			C125.7,128.6,125.7,128.6,125.7,128.6L125.7,128.6L125.7,128.6z M137.3,132.6l-0.1,0c-0.9-1.9-1.5-3-1.8-3.4
			c-0.6-0.8-1.6-1.6-3-2.4c0,0.3,0,0.7,0.1,1.4c0,0.6,0,1,0,1.3l-0.2,0.2c-0.1-0.1-0.2-1.2-0.4-3.3l-0.2-0.2l0.1-0.3l0.1-0.1
			c-0.3-4.1-0.4-7.2-0.4-9.2l0.4-0.4l0.4,0.4c0.2,0.9,0.3,2.1,0.3,3.5c0,0.6,0,1.4,0,2.4c-0.1,1.1-0.1,1.9-0.1,2.4v0.5
			c0.3-0.3,1.7-1.3,4.1-3.2l0.4,0.3c0,0.3-0.7,0.8-2,1.8c-0.8,0.6-1.7,1.1-2.5,1.7l0,0.2c0.1,0.1,0.4,0.3,1,0.6
			c0.9,0.5,1.8,1.3,2.4,2.5C136.3,130.4,136.8,131.4,137.3,132.6 M141.4,122.5c-0.6,0-1.2,0.1-1.9,0.3c-0.9,0.2-1.3,0.6-1.3,0.9
			c0,0.3,0.4,0.6,1.2,0.8c1.1,0.3,1.9,0.5,2.1,0.7c0.8,0.4,1.2,1,1.2,1.9c0,0.7-0.3,1.3-0.8,1.8c-0.6,0.5-1.2,0.7-1.9,0.7
			c-0.7,0-1.4-0.2-2-0.7c-0.6-0.5-0.8-1.1-0.8-1.8h0.1c0,0.7,0.3,1.2,0.9,1.6c0.6,0.4,1.1,0.5,1.9,0.5c0.6,0,1.1-0.2,1.6-0.6
			c0.5-0.4,0.7-0.9,0.7-1.5c0-0.7-0.4-1.3-1.1-1.6c-0.7-0.2-1.4-0.4-2.1-0.6c-0.8-0.3-1.2-0.6-1.2-1.1c0-0.5,0.6-0.9,1.7-1.2
			c0.8-0.2,1.6-0.4,2.3-0.4c0.2,0,0.3,0.1,0.5,0.2c0.2,0.1,0.3,0.2,0.3,0.4c0,0.2-0.1,0.3-0.3,0.3c-0.1,0-0.2-0.1-0.4-0.3
			C141.9,122.5,141.6,122.5,141.4,122.5 M150.9,131.5c0,0.3-0.1,0.4-0.4,0.4l-0.4-0.3c-0.1-0.6-0.3-2.8-0.7-6.4
			c-0.1-1.3-0.3-2-0.4-2c-0.6,0-1.2,0.9-1.6,2.7c-0.2,1.1-0.4,2.3-0.5,3.6l-0.5,0c-0.2-0.9-0.3-2.1-0.3-3.4c0-0.8,0.1-2.1,0.2-3.6
			c0.1-1.6,0.2-2.9,0.2-3.7c0-0.7,0-1.3-0.1-1.9l-0.2,0l-0.3-0.4l0.5-0.4l0.2,0.5l-0.1,0.2c0.2,1,0.2,2.1,0.2,3.2
			c0,0.7,0,1.7-0.1,3.2c-0.1,1.4-0.1,2.5-0.1,3.3v0.6c0.5-2.9,1.3-4.3,2.3-4.3c0.4,0,0.7,0.8,0.9,2.4l0.6,3.2
			C150.8,129.6,150.9,130.7,150.9,131.5 M157.6,123.1c-0.5,2.5-1.3,4.9-2.2,7c-1.4,3.3-3,4.9-4.6,4.9c-0.5,0-1-0.2-1.6-0.6l0.1-0.2
			c0.4,0.4,0.9,0.5,1.3,0.5c0.7,0,1.4-0.7,2.4-2.1c0.6-1,1.2-2,1.9-3c-0.8-0.4-1.6-1.9-2.5-4.7c-0.1-0.3-0.3-0.7-0.7-1.2
			c-0.3-0.5-0.5-0.9-0.6-1.1l0.4-0.4c0.4,0,0.8,0.6,1.2,1.8c0.4,1.1,0.7,2.2,1.1,3.3c0.5,1.2,0.9,1.9,1.4,2c0.4-0.7,0.8-1.7,1.2-3.1
			c0.4-1.6,0.8-2.6,1-3.2L157.6,123.1z M163.7,122.6l0,0.2h-0.8c-0.3,0-0.6,0.1-0.9,0.3c0.5,0.7,0.8,1.8,0.8,3.1c0,2-0.8,3-2.5,3
			c-0.2,0-0.5-0.1-0.6-0.2l-0.4,0.4c0,0.1,0.4,0.2,1.2,0.4c0.9,0.2,1.4,0.3,1.5,0.3c1,0.6,1.6,1.4,1.6,2.6c0,0.7-0.5,1.3-1.5,1.8
			c-0.8,0.4-1.6,0.6-2.4,0.6c-0.3,0-0.6-0.1-0.9-0.2c-0.3-0.2-0.5-0.4-0.5-0.7c0-0.4,0.1-0.9,0.4-1.4c0.3-0.4,0.5-0.8,0.7-1.3h0.1
			c-0.5,1-0.7,1.9-0.7,2.7c0,0.3,0.3,0.5,0.9,0.5c0.7,0,1.4-0.1,2.1-0.4c0.9-0.4,1.3-0.8,1.3-1.4c0-0.9-0.4-1.6-1.1-2
			c-0.4-0.2-1-0.4-2.1-0.7c-0.8-0.2-1.1-0.4-1.1-0.6c0-0.2,0.1-0.5,0.3-0.8c-0.8-0.9-1.2-2.3-1.2-4.3c0-0.5,0.2-0.9,0.7-1.4
			c0.5-0.5,0.9-0.7,1.4-0.7c0.7,0,1.2,0.1,1.5,0.4c0.2-0.1,0.5-0.2,0.8-0.2C162.2,122.3,162.7,122.4,163.7,122.6 M161.6,123.1
			c-0.1,0-0.2-0.1-0.3-0.3c-0.3-0.2-0.6-0.3-0.9-0.3c-0.3,0-0.5,0.1-0.7,0.3c-0.2,0.2-0.4,0.3-0.5,0.3L159,123
			c-0.4,0.3-0.6,0.8-0.6,1.3c0,2,0.4,3.4,1,4c0.2,0,0.3,0.1,0.4,0.2c0.1,0.1,0.3,0.1,0.5,0.1c1.4,0,2.2-0.8,2.2-2.6
			C162.4,124.8,162.1,123.7,161.6,123.1 M169.9,122.6v0.2h-0.8c-0.3,0-0.6,0.1-0.9,0.3c0.5,0.7,0.8,1.8,0.8,3.1c0,2-0.8,3-2.5,3
			c-0.2,0-0.5-0.1-0.7-0.2l-0.4,0.4c0,0.1,0.4,0.2,1.2,0.4c1,0.2,1.4,0.3,1.5,0.3c1.1,0.6,1.6,1.4,1.6,2.6c0,0.7-0.5,1.3-1.5,1.8
			c-0.8,0.4-1.6,0.6-2.4,0.6c-0.3,0-0.6-0.1-0.9-0.2c-0.3-0.2-0.5-0.4-0.5-0.7c0-0.4,0.1-0.9,0.4-1.4c0.2-0.4,0.5-0.8,0.7-1.3h0.1
			c-0.5,1-0.7,1.9-0.7,2.7c0,0.3,0.3,0.5,0.9,0.5c0.7,0,1.4-0.1,2.1-0.4c0.9-0.4,1.3-0.8,1.3-1.4c0-0.9-0.4-1.6-1.1-2
			c-0.4-0.2-1-0.4-2-0.7c-0.8-0.2-1.1-0.4-1.1-0.6c0-0.2,0.1-0.5,0.3-0.8c-0.8-0.9-1.2-2.3-1.2-4.3c0-0.5,0.2-0.9,0.7-1.4
			c0.5-0.5,0.9-0.7,1.4-0.7c0.7,0,1.2,0.1,1.5,0.4c0.2-0.1,0.5-0.2,0.8-0.2C168.5,122.3,168.9,122.4,169.9,122.6 M167.8,123.1
			c-0.1,0-0.2-0.1-0.3-0.3c-0.3-0.2-0.6-0.3-1-0.3c-0.2,0-0.5,0.1-0.7,0.3c-0.2,0.2-0.4,0.3-0.5,0.3l-0.3-0.1
			c-0.4,0.3-0.6,0.8-0.6,1.3c0,2,0.3,3.4,1,4c0.2,0,0.3,0.1,0.4,0.2c0.1,0.1,0.3,0.1,0.5,0.1c1.5,0,2.2-0.8,2.2-2.6
			C168.6,124.8,168.4,123.7,167.8,123.1 M175.5,127.4c-0.5,0.7-0.9,1.2-1.2,1.5c-0.6,0.5-1.1,0.8-1.7,0.8c-0.7,0-1.3-0.4-1.8-1.2
			c-0.4-0.7-0.6-1.4-0.6-2.2c0-1.1,0.4-2,1.2-2.9c0.8-0.8,1.8-1.2,2.8-1.2c0.5,0,0.7,0.1,0.7,0.2c0,1.8-0.7,3-2.2,3.5
			c-1,0.4-1.6,0.6-1.8,0.6c-0.2,0-0.3-0.1-0.3-0.2c0,0.7,0.2,1.3,0.5,1.8c0.4,0.7,0.9,1,1.5,1C173.7,129.1,174.6,128.5,175.5,127.4
			L175.5,127.4z M174.7,122.4L174.7,122.4c0,0-0.3,0-0.8,0.2c-0.2,0.1-0.6,0.1-1,0.3c-0.5,0.2-1,0.6-1.4,1.3
			c-0.4,0.6-0.6,1.2-0.7,1.8c0.1-0.1,0.5-0.2,1.2-0.3c0.8-0.1,1.3-0.3,1.8-0.7C174.4,124.4,174.7,123.5,174.7,122.4 M179.7,132.7
			l-0.1,0.1c-0.7-1.3-1.4-2.7-1.9-4.2c-0.2,0.7-0.5,1-0.9,1c-0.4,0-0.6-0.2-0.6-0.4c0-0.2,0.1-0.3,0.3-0.4c0.2,0,0.3,0,0.5,0
			c0.2-0.2,0.4-0.5,0.5-1c-0.7-2.1-1-4.1-1-5.8c0-0.6,0.2-1.7,0.6-3.3c0.5-1.7,0.9-2.6,1.2-2.6c0.7,0,1,0.8,1,2.5v0.7v0.5
			c0,2.7-0.5,5.4-1.4,8.1C178.3,129.8,179,131.4,179.7,132.7 M177.7,127.2c0.8-2.6,1.2-5.3,1.2-8.2c0-1.6-0.2-2.4-0.6-2.4
			c-0.3,0-0.6,0.8-0.9,2.4c-0.2,1.3-0.3,2.3-0.3,3C177.1,123.6,177.3,125.4,177.7,127.2 M181.9,120.4c0,0.3-0.1,0.6-0.3,0.8
			c-0.2,0.3-0.5,0.4-0.8,0.4c-0.4,0-0.7-0.3-0.7-0.8c0-0.1,0.1-0.3,0.3-0.6c0.2-0.3,0.3-0.4,0.5-0.5c0.1-0.2,0.2-0.2,0.3-0.2
			c0.2,0,0.4,0.1,0.6,0.3C181.8,120,181.9,120.2,181.9,120.4 M181.4,122.5c0,0.4-0.1,1-0.2,1.8c-0.1,0.8-0.2,1.4-0.2,1.8
			c0,0.4,0,1-0.1,1.8c0,0.8-0.1,1.4-0.1,1.8c0,0,0,0.1-0.1,0.1h0l-0.1-0.1c0-0.4,0-1-0.1-1.8c-0.1-0.8-0.1-1.4-0.1-1.8
			c0-2.7,0.2-4,0.7-4C181.3,122.1,181.4,122.2,181.4,122.5 M180.8,120c-0.3,0.4-0.4,0.6-0.4,0.8c0,0.4,0.2,0.6,0.5,0.6
			c0.2,0,0.4-0.1,0.6-0.3c0.2-0.2,0.3-0.4,0.3-0.6c0-0.1-0.2-0.1-0.5-0.1C181,120.3,180.9,120.2,180.8,120 M188,122.6l0,0.2h-0.8
			c-0.2,0-0.6,0.1-0.9,0.3c0.5,0.7,0.8,1.8,0.8,3.1c0,2-0.8,3-2.5,3c-0.3,0-0.5-0.1-0.7-0.2l-0.4,0.4c0,0.1,0.4,0.2,1.2,0.4
			c0.9,0.2,1.4,0.3,1.5,0.3c1,0.6,1.6,1.4,1.6,2.6c0,0.7-0.5,1.3-1.5,1.8c-0.8,0.4-1.6,0.6-2.4,0.6c-0.3,0-0.6-0.1-0.9-0.2
			c-0.3-0.2-0.5-0.4-0.5-0.7c0-0.4,0.1-0.9,0.4-1.4c0.3-0.4,0.5-0.8,0.7-1.3h0.1c-0.5,1-0.7,1.9-0.7,2.7c0,0.3,0.3,0.5,0.9,0.5
			c0.7,0,1.4-0.1,2.1-0.4c0.9-0.4,1.3-0.8,1.3-1.4c0-0.9-0.4-1.6-1.1-2c-0.4-0.2-1-0.4-2.1-0.7c-0.7-0.2-1.1-0.4-1.1-0.6
			c0-0.2,0.1-0.5,0.3-0.8c-0.8-0.9-1.2-2.3-1.2-4.3c0-0.5,0.2-0.9,0.7-1.4c0.5-0.5,0.9-0.7,1.4-0.7c0.7,0,1.2,0.1,1.5,0.4
			c0.2-0.1,0.5-0.2,0.8-0.2C186.5,122.3,187,122.4,188,122.6 M185.9,123.1c-0.1,0-0.2-0.1-0.2-0.3c-0.3-0.2-0.6-0.3-0.9-0.3
			c-0.3,0-0.5,0.1-0.7,0.3c-0.2,0.2-0.4,0.3-0.5,0.3l-0.3-0.1c-0.4,0.3-0.6,0.8-0.6,1.3c0,2,0.4,3.4,1,4c0.2,0,0.3,0.1,0.4,0.2
			c0.1,0.1,0.3,0.1,0.5,0.1c1.4,0,2.2-0.8,2.2-2.6C186.7,124.8,186.4,123.7,185.9,123.1 M192.7,122.5c-0.5,0-1.1,0.1-1.9,0.3
			c-0.9,0.2-1.3,0.6-1.3,0.9c0,0.3,0.4,0.6,1.2,0.8c1.2,0.3,1.9,0.5,2.2,0.7c0.8,0.4,1.2,1,1.2,1.9c0,0.7-0.3,1.3-0.8,1.8
			c-0.6,0.5-1.2,0.7-1.9,0.7c-0.8,0-1.4-0.2-2-0.7c-0.6-0.5-0.8-1.1-0.8-1.8h0.1c0,0.7,0.3,1.2,0.9,1.6c0.5,0.4,1.1,0.5,1.9,0.5
			c0.6,0,1.1-0.2,1.6-0.6c0.5-0.4,0.7-0.9,0.7-1.5c0-0.7-0.4-1.3-1.1-1.6c-0.8-0.2-1.5-0.4-2.2-0.6c-0.8-0.3-1.2-0.6-1.2-1.1
			c0-0.5,0.6-0.9,1.7-1.2c0.8-0.2,1.7-0.4,2.4-0.4c0.1,0,0.3,0.1,0.5,0.2c0.2,0.1,0.3,0.2,0.3,0.4c0,0.2-0.1,0.3-0.3,0.3
			c-0.1,0-0.2-0.1-0.4-0.3C193.1,122.5,193,122.5,192.7,122.5 M199.1,125.2c-0.7,2.9-1.6,4.4-2.6,4.4c-1,0-1.6-1.3-1.6-3.9
			c0-1.1,0.1-2.2,0.2-3.3c-0.5,0.2-0.9,0.2-1,0.2c-0.3,0-0.4-0.1-0.4-0.4c0-0.3,0.5-0.4,1.5-0.4c0.1-1,0.1-2.1,0.2-3.1
			c0.1-1.7,0.3-2.5,0.6-2.5l1-0.1c0,0.7-0.2,1.6-0.5,2.8c-0.4,1.4-0.7,2.4-0.7,2.8c1,0,2.6-0.1,4.6-0.2v0.1
			c-1.8,0.1-3.3,0.3-4.7,0.6c-0.2,1.2-0.2,2.3-0.2,3.4c0,2.2,0.4,3.3,1.1,3.3c0.5,0,1-0.5,1.5-1.5c0.4-0.7,0.6-1.5,0.8-2.2
			L199.1,125.2z M205.5,127.4c-0.5,0.7-0.9,1.2-1.2,1.5c-0.6,0.5-1.1,0.8-1.7,0.8c-0.8,0-1.3-0.4-1.8-1.2c-0.4-0.7-0.5-1.4-0.5-2.2
			c0-1.1,0.4-2,1.2-2.9c0.8-0.8,1.8-1.2,2.8-1.2c0.5,0,0.7,0.1,0.7,0.2c0,1.8-0.7,3-2.2,3.5c-1,0.4-1.6,0.6-1.8,0.6
			c-0.2,0-0.3-0.1-0.3-0.2c0,0.7,0.2,1.3,0.5,1.8c0.4,0.7,0.9,1,1.5,1c1,0,1.9-0.6,2.7-1.8L205.5,127.4z M204.6,122.4L204.6,122.4
			c0,0-0.3,0-0.8,0.2c-0.2,0.1-0.6,0.1-1,0.3c-0.5,0.2-1,0.6-1.4,1.3c-0.4,0.6-0.6,1.2-0.7,1.8c0.1-0.1,0.5-0.2,1.2-0.3
			c0.8-0.1,1.3-0.3,1.8-0.7C204.3,124.4,204.6,123.5,204.6,122.4"/>
		<path fill-rule="evenodd" clip-rule="evenodd" fill="#61737A" d="M109.7,112.5c0,0-0.1,0-0.3-0.1c-0.1,0-0.1-0.1-0.2-0.3
			c0,0,0-0.2,0-0.5v-0.4c0-1.2,0.2-2.8,0.4-4.7c0.1-0.9,0.2-1.7,0.3-2.4c-0.1-0.1-0.2-0.3-0.2-0.5V103c0-0.2,0.1-0.5,0.3-0.7
			c0.1-0.3,0.3-0.5,0.4-0.7c0.3-0.7,0.5-1.4,0.8-2.1c0.4-1.1,0.7-1.7,0.9-1.7c0.1,0,0.2-0.1,0.3-0.1c0.1,0,0.1,0,0.2,0
			c0.2,0,0.3,0.1,0.3,0.1c0.8-0.2,1.6-0.4,2.5-0.3c0.2-0.1,0.4-0.1,0.6-0.1c0.3,0,0.7,0.1,1.2,0.2c0.2,0,0.3,0,0.3,0.1
			c0.1,0,0.1,0.1,0.1,0.2c0,0.2-0.1,0.3-0.3,0.4c-0.2,0-0.5,0.1-0.8,0.1c-0.5,0-0.7,0-0.8,0c-0.3,0-0.8,0-1.3,0.2
			c-0.4,0.1-0.8,0.2-1,0.3c-0.3,0.1-0.4,0.3-0.5,0.6l-0.9,1.8l-0.2,0.9c0.5,0.2,1,0.3,1.6,0.3c0.7,0,1.4-0.1,1.9-0.1
			c0.4,0,0.7-0.1,1-0.2c0.2-0.1,0.5-0.1,0.8-0.1c0.1,0,0.2,0,0.3,0c0.2,0.1,0.4,0.2,0.4,0.4v0.1c0,0.2-0.2,0.3-0.5,0.3l-0.6,0.2
			c-0.6,0.2-1.4,0.3-2.1,0.5c-0.4,0-0.8,0.1-1.5,0.2l-0.6,0.1c-0.4,0.1-0.8,0.2-1.1,0.4c-0.3,0.1-0.6,1.4-0.7,4
			c-0.1,0.7-0.1,1.4-0.2,2.2c-0.1,1.2-0.3,1.9-0.4,1.9L109.7,112.5z M121.2,106.2c-0.2-0.2-0.3-0.5-0.3-0.8c0-0.1,0-0.2,0-0.3
			c0.1-0.5,0.2-1.1,0.5-2c0-0.2-0.1-0.5-0.1-0.9c0-0.2,0.2-0.4,0.3-0.6c0.2-0.2,0.3-0.4,0.3-0.6c0.1-0.4,0.3-0.9,0.5-1.5
			c0.3-0.8,0.5-1.2,0.7-1.3c0.4-0.1,0.8-0.2,1.3-0.2l1.8,0l0.7,0.1c0.3,0.2,0.5,0.3,0.5,0.5c-0.1,0.3-0.2,0.4-0.5,0.4l-0.9,0.2
			l-1.3,0.2c-0.4,0-0.6,0.1-0.7,0.4c-0.3,0.4-0.4,0.8-0.4,1.3c0.1,0.2,0.3,0.2,0.5,0.2c0.3,0,0.6,0,0.7-0.1c0.3,0,0.7-0.1,1.4-0.2
			c0.5-0.1,0.9-0.1,1.4-0.1c0.3,0,0.4,0,0.5,0c0.2,0,0.3,0.1,0.4,0.2c0,0.1,0.1,0.2,0.1,0.3c0,0.2-0.1,0.3-0.3,0.4
			c-0.2,0.1-0.3,0.1-0.5,0.1c-0.1,0-0.2,0-0.3,0l-1.3,0.2c-0.2,0-0.5,0.1-0.9,0.2c-0.4,0.1-0.9,0.2-1.6,0.3c-0.1,0-0.2,0-0.3,0.1
			c-0.1,0.1-0.2,0.1-0.3,0.2c-0.1,0.1-0.2,0.3-0.3,0.4c-0.1,0.2-0.1,0.4-0.1,0.4l-0.2,1c0.2,0.3,0.4,0.4,0.6,0.4
			c0.1,0,0.4,0,0.7-0.1l1.2-0.3c0.2,0,0.5-0.1,0.9-0.2l0.9-0.2c0.3,0,0.5,0,0.6,0.1c0.2,0.1,0.3,0.3,0.2,0.6
			c-0.1,0.2-0.3,0.3-0.6,0.4c-0.3,0.2-0.5,0.3-0.8,0.3c-0.2,0-0.4,0.1-0.7,0.2c-0.2,0.1-0.5,0.2-0.8,0.3c-0.1,0-0.3,0.1-0.8,0.1
			l-1.6,0.3c-0.2,0.1-0.5,0.1-0.7,0.1C121.6,106.4,121.4,106.3,121.2,106.2 M131.7,105.9c-0.4,0.1-0.6-0.1-0.7-0.4
			c0.1-0.2,0.2-0.4,0.4-0.7c0.2-0.3,0.4-0.5,0.6-0.5c0.1-0.1,0.3-0.1,0.4-0.1c0.2,0,0.4,0,0.6,0.1c0.4,0,1-0.2,1.6-0.5
			c0.3-0.1,0.6-0.3,0.9-0.5c0.2-0.1,0.4-0.3,0.5-0.5c0.2-0.3,0.2-0.5,0.2-0.7c-0.1-0.1-0.6-0.2-1.4-0.2c-0.8,0-1.4,0.1-1.8,0.2
			c-0.1,0-0.3,0-0.5,0c-0.2,0-0.4,0-0.8,0c-0.6-0.1-0.9-0.1-1.1-0.2c-0.5-0.1-0.7-0.3-0.7-0.6c0-0.4,0.2-0.8,0.8-1.2l1.5-1.3
			c0.2-0.2,0.5-0.5,0.9-0.7c0.5-0.3,0.9-0.5,1-0.7c1.2-0.6,2.1-0.9,2.8-0.8c0.1,0,0.2,0.1,0.3,0.2c0.1,0.1,0.1,0.3,0.1,0.4
			c0,0.2-0.2,0.3-0.5,0.3c-0.5,0.1-0.7,0.2-0.9,0.4c-0.3,0.2-0.7,0.5-1.3,0.8c-0.6,0.3-1.1,0.6-1.4,0.8c-0.2,0-0.5,0.3-0.8,0.7
			c-0.1,0-0.1,0.1-0.1,0.2c0,0,0,0.1,0,0.2c0.1,0.2,0.2,0.3,0.4,0.3c0.6-0.1,1.1-0.1,1.6-0.1c1.1,0,2.1,0.1,3.1,0.4
			c0.6,0.1,0.9,0.4,1,0.7c0,0.1,0.1,0.2,0.1,0.3c0,0.1,0,0.2-0.1,0.3c-0.2,0.2-0.3,0.3-0.5,0.5c-0.2,0.2-0.5,0.5-0.8,0.6
			c-0.1,0.2-0.4,0.3-0.7,0.4c-0.3,0.1-0.6,0.3-0.7,0.4c-0.7,0.7-1.7,1.2-3,1.5c-0.2,0.1-0.5,0.2-0.7,0.2
			C131.9,106,131.8,105.9,131.7,105.9 M143.3,112.8c-0.3-0.1-0.5-0.3-0.5-0.5c0-0.1,0-0.2,0-0.3c0-0.1,0-0.2,0-0.3
			c0.3-0.8,0.6-1.8,0.7-2.9c0.1-0.6,0.2-1.7,0.3-3.1l0.2-3.2c0.1-1,0.2-2,0.4-2.7c-0.1-0.1-0.2-0.1-0.3-0.1c-0.2,0-0.6,0.1-0.9,0.3
			c-0.2,0.1-0.4,0.2-0.8,0.3c-0.4,0.1-0.6,0.2-0.7,0.3c-0.1,0.1-0.3,0.1-0.5,0.1c-0.1,0-0.3,0-0.5,0c-0.4,0-0.7-0.2-0.8-0.3
			c-0.1,0-0.1-0.1-0.1-0.2c0-0.1,0-0.2,0.1-0.4c0.2-0.4,0.3-0.6,0.5-0.6c0.1-0.1,0.2-0.2,0.3-0.2c0.2,0,0.3,0.1,0.5,0.2
			c0.2,0,0.3,0,0.5,0c0.2,0,0.3-0.1,0.5-0.2c0.2-0.2,0.4-0.2,0.6-0.2h0.1c0.2,0,0.4-0.1,0.6-0.3l0.5-0.2c0.2,0,0.3-0.1,0.5-0.1
			c0.1-0.1,0.3-0.3,0.4-0.6c0.2-0.3,0.3-0.6,0.4-0.7c0.1,0,0.2-0.1,0.3-0.1c0.2,0,0.3,0.1,0.3,0.2c0.1,0.2,0.2,0.3,0.4,0.4
			c0.2,0,0.3,0.1,0.5,0.1c0.6,0,1.2-0.2,1.8-0.5h0.9c0.4,0,0.7,0.1,0.8,0.2c0.1,0.1,0.1,0.2,0.1,0.3c0,0.2-0.1,0.4-0.2,0.6
			c-0.2,0.4-0.4,0.6-0.7,0.6c-0.1,0.1-0.3,0.1-0.4,0.1c-0.1,0-0.2,0-0.4-0.1c-0.2-0.1-0.3-0.1-0.4-0.1c-0.1,0-0.3,0-0.4,0.1
			c-0.6,0.4-1.2,0.6-2.1,0.8c-0.5,1.4-0.8,3.5-1,6.2c-0.2,3-0.5,5.2-0.9,6.6c0,0.2-0.1,0.3-0.2,0.5
			C143.6,112.7,143.5,112.8,143.3,112.8 M151.9,106.4c-0.1-0.2-0.1-0.4-0.1-0.7c0-0.4,0.1-0.6,0.1-0.8c0.4-1.3,0.7-2.4,0.9-3.3
			c0.2-1,0.4-2.1,0.6-3.2c0.1-0.5,0.2-0.8,0.5-1c0.3,0,0.5,0.1,0.6,0.1c0.2,0.1,0.2,0.2,0.2,0.5c0,0.1,0,0.3,0,0.5
			c0,0.3,0,0.6-0.1,0.9c-0.1,0.6-0.2,1.1-0.3,1.7c-0.1,0.4-0.3,1-0.4,1.9c0,0.1-0.1,0.8-0.2,2c-0.1,1-0.2,1.6-0.3,1.8
			c-0.1,0.1-0.3,0.2-0.6,0.2c-0.1,0-0.2,0-0.3,0C152.3,106.7,152.1,106.6,151.9,106.4 M162.1,106.7c-0.2-0.1-0.4-0.2-0.6-0.6
			c-0.6-1.1-1.1-2.1-1.4-2.9c-0.5-1.1-1-2.2-1.4-3.3c-0.2-0.5-0.3-0.9-0.3-1.1c0-0.1-0.1-0.4-0.1-0.6c0-0.1-0.1-0.3,0-0.6
			c0-0.2,0.1-0.5,0.2-0.7c0.1-0.1,0.2-0.1,0.4-0.2c0.1,0,0.2,0,0.3,0c0.1,0,0.2,0,0.2,0l0.4,0.5c0,0.1,0.1,0.2,0.1,0.3
			c0,0.1,0,0.2,0,0.3c0,0.1,0,0.3,0,0.5c0,0.1,0,0.2,0,0.3c0,0.3,0,0.5,0.1,0.7c0,0.2,0.1,0.4,0.2,0.6c0.2,0.2,0.2,0.5,0.2,0.7
			c0,0.3,0.1,0.5,0.2,0.7c0,0.3,0.1,0.6,0.3,1.2c0.4,1,0.8,1.9,1.5,2.5c0.3-0.1,0.4-0.3,0.4-0.6v-0.2c0.2-0.3,0.3-0.7,0.3-1v-0.3
			c0-0.4,0.1-1,0.4-1.7c0.2-0.5,0.5-1.1,0.7-1.6c0.2-0.6,0.4-1.2,0.4-1.8h0.2c0.5,0,0.8,0.2,0.9,0.5c0,0.3-0.1,0.7-0.4,1.3
			c-0.3,0.6-0.5,1.1-0.5,1.4c-0.2,1-0.7,2.2-1.3,3.4c-0.1,0.6-0.3,1-0.6,1.5C162.6,106.1,162.4,106.4,162.1,106.7 M168.3,109.3
			c-0.2-0.1-0.3-0.3-0.3-0.6c0-0.4,0.5-1.7,1.3-4.2l2.2-6.1c0.1-0.2,0.2-0.3,0.4-0.3c0.1,0,0.2,0,0.3,0.1c0.7,0.9,1.2,1.8,1.7,2.7
			l1.1,2.6c0.2,0,0.4,0,0.6,0.1c0.2,0,0.4,0.1,0.5,0.2c0,0.1-0.1,0.3-0.2,0.5c-0.1,0.2-0.2,0.4-0.3,0.4l0.5,1.8
			c0.1,0.6,0.1,1,0.1,1.1c0,0.2,0,0.4-0.1,0.5c-0.2,0.1-0.3,0.2-0.5,0.2c-0.1,0-0.2,0-0.2-0.1c-0.1,0-0.3-0.1-0.4-0.4
			c-0.1-0.2-0.2-0.4-0.2-0.6l-0.7-2.2l-1.5,0.1l-2.3,0.2c-0.2,0.7-0.4,1.3-0.6,2c-0.3,1.1-0.5,1.7-0.6,1.8c-0.1,0.1-0.3,0.2-0.4,0.2
			C168.5,109.4,168.4,109.3,168.3,109.3 M170.6,103.8l2.9-0.3l-1.5-3.5L170.6,103.8z M179.5,110.2c0,0-0.2,0-0.6-0.1
			c-0.3,0-0.6-0.2-0.7-0.4c-0.2-0.1-0.2-0.2-0.3-0.5c-0.1-0.1-0.1-0.4,0-0.8c0-0.5,0.1-0.9,0.3-1.4c0-0.4,0.2-0.9,0.5-1.4
			c0.2-0.4,0.3-0.7,0.3-1c0-0.1,0-0.2,0-0.3c0.1-0.5,0.2-0.8,0.3-1.2c0.1-0.4,0.3-0.8,0.6-1.2c0.1-0.2,0.3-0.6,0.5-1
			c0.2-0.3,0.3-0.5,0.4-0.6c0-0.2,0.2-0.5,0.6-0.7c0.3-0.3,0.5-0.6,0.5-1c-0.1-0.2-0.1-0.3-0.1-0.6c0-0.2,0-0.3,0.1-0.5
			c0-0.3,0.2-0.6,0.5-0.8c0.1,0,0.2,0,0.4,0c0.5,0,0.8,0.2,0.9,0.6c0.1,0.1,0.1,0.2,0.1,0.3c0,0.1,0,0.3-0.1,0.4
			c-0.1,0.4-0.3,0.7-0.5,1.2l-0.7,1.2c-0.2,0.4-0.4,0.7-0.4,1c0,0.3-0.1,0.6-0.3,1c-0.1,0.1-0.3,0.5-0.5,1.1
			c-0.4,0.8-0.6,1.5-0.7,2.1c-0.1,0.7-0.2,1.3-0.3,2c0,0.2-0.1,0.4-0.2,0.7c0.6,0.1,1.2,0.2,1.7,0.3c0.2,0.1,0.4,0.1,0.7,0.1
			c0.2,0,0.4,0,0.7-0.1c0.3-0.1,0.6-0.1,0.7-0.1c0.2,0,0.5,0,0.7,0.1c0.2,0.1,0.4,0.2,0.7,0.2c0.2,0,0.4,0,0.6-0.1
			c0.4-0.1,0.8-0.2,1.2-0.2c0.2,0,0.5,0,0.7,0.1c0.6,0.2,0.9,0.4,1,0.8c0.1,0.2,0,0.5-0.2,0.6c-0.2,0.2-0.4,0.3-0.6,0.4
			c-1.1,0.1-2.3,0.1-3.8,0.1C182.7,110.4,181.2,110.3,179.5,110.2"/>
		<path fill-rule="evenodd" clip-rule="evenodd" fill="#61737A" d="M86.4,56.1v-0.2c0-0.5,0.5-1,1.2-1.2c6.4-0.6,12.8,1,19.1-1.3
			c2.2-1.1,4.4-1.1,5.1,1.7c0,3.4-4.3,3.7-6.7,3.7c-6-0.2-11.8-0.8-17.6-1.5C86.8,57,86.4,56.6,86.4,56.1 M134.7,36.8
			c-1.6-0.2-1.9-0.8-2.4-2.1c0,0-4.3-7.8-4.1-9.1c0.4-1,1.1-1.2,1.8-1c2.3,0.7,5.6,5.7,6.4,6.6C138.4,33.4,138.5,36.8,134.7,36.8
			 M119.2,45.4c0.3,0.2,0.6,0.2,0.9,0.3c2,0,3.2-1.2,3.2-2.5c0.1-1.1-0.6-2.3-2-3c-0.4-0.2-1.1-0.7-2.1-1.3
			c-2.2-1.4-5.4-3.4-7.2-3.1c-0.5,0.1-0.9,0.3-1.1,0.9C110.9,38.6,116,44.2,119.2,45.4 M143.8,57.4h-0.3c-1.2-0.3-1.7-1-1.8-1.9
			c0-0.6,0.2-1.3,0.7-1.9c0.5-0.3,0.9-0.4,1.3-0.5c1.2,0,1.9,1,2,2C145.9,56.2,145.3,57.3,143.8,57.4 M150.4,58H150
			c-1.5-0.3-2.2-1.3-2.3-2.4c0-0.8,0.3-1.6,0.9-2.4c0.6-0.4,1.2-0.5,1.7-0.6c1.5-0.1,2.5,1.2,2.6,2.5
			C153.1,56.5,152.3,57.9,150.4,58 M150.2,33.7c-0.7-0.4-1-1-1.2-2c0-4.7,0.5-9.5,0.5-14.1c-0.1-1.6-1.8-14.3-0.4-15.4
			c0.4-0.2,0.7-0.2,1,0c0.2,0.1,0.3,0.3,0.4,0.5c0.4,5.7,0.6,11.4,1.8,17.2c0.7,2.5,4,12.4,0.1,14.1c-0.5,0.1-0.8,0.1-1.3,0.1
			C150.8,34,150.4,33.8,150.2,33.7 M143.8,67.4c1.3,0.4,2.5,0.6,3.7,0.8c0.9,0,1.8-0.1,2.7-0.2c3.8-0.3,7.3-1.5,10.3-3.3
			c4.1-2.5,7.3-6.5,9.2-11.7v-0.5c-0.3-0.7-0.7-0.8-1.1-0.6c-0.9,0.4-2,2.3-2.1,2.5c-2.2,3.1-4.5,5.8-7.2,7.8
			c-2.6,1.9-5.5,3.2-9.1,3.5c-0.9,0.1-1.9,0.1-3,0.1c-1.1-0.2-2.2-0.4-3.4-0.8c-3.3-0.9-6.6-2.5-8.8-4.9c-1.8-1.9-2.9-4.4-2.7-7.4
			c-0.5-1.2-1.4-0.7-1.6,0.3c-0.5,3.5,0.9,6.5,3.3,8.8C136.5,64.5,140.3,66.4,143.8,67.4 M165.6,35.1c-2.4-0.4-3-2.3-2.2-4.2
			c0.9-2,4.1-11.1,5.5-7.9c0.4,1.8,0.3,3.6,0.1,5.6C168.6,31.6,169.1,34.8,165.6,35.1 M179.5,44.9c1.5-0.5,1.9-1.8,2.8-3.4
			c1.7-2.1,3.6-4,5.5-5.8c0.5-0.7,0.5-1.4,0.1-1.8c-0.3-0.4-0.7-0.6-1.2-0.7c-0.5-0.1-1,0-1.5,0.2c-2.1,1.9-3.6,3.9-5.8,5.4
			c-0.7,0.6-1.5,1-2.4,1.4c-1,0.8-1.3,2-1,3.1c0.3,0.9,1,1.6,2.3,1.8C178.9,45,179.2,45,179.5,44.9 M119.2,61.5
			c1.3-1.4,2.4-3,2.8-3.6c3.3-3.9,6.7-7.1,10.5-9.6c3.4-2.2,7-3.8,11.2-4.8c1.4-0.3,2.9-0.6,4.5-0.7c0.6-0.1,1.2-0.1,1.9-0.1
			c5.2-0.1,9.9,1,14.2,3.3c4.6,2.5,8.6,6.3,11.8,11.2c0.6,1,1,1.9,1.8,2.9c0.5,0.5,1,0.9,1.6,1.1c0.9,0.3,1.9,0.3,2.6-0.2
			c0.7-0.5,1.1-1.4,1-2.7c-0.6-2.4-1.9-4.7-3.6-6.8c-2.9-3.8-6.9-7.1-10.3-9.2c-3-1.8-6.2-3-9.4-3.8c-3.2-0.8-6.5-1.1-9.7-1
			c-2.2,0.1-4.3,0.3-6.4,0.8c-4.5,0.9-8.9,2.7-13,5.1c-4.4,2.7-8.4,6.2-11.6,10.3c-0.7,0.9-1.3,1.8-1.9,2.7
			c-0.3,0.5-1.3,2.4-1.8,4.1c-0.5,1.6-0.6,3,0.3,3.4C116.8,64,118.1,62.8,119.2,61.5 M215.1,56.5v0.2c-0.1,0.5-0.9,1-2.9,1.4
			c-6.5,0.6-13.5,1.3-19.9,1.3c-2.9-0.2-4.9,0.1-5.5-2.9c0-1.9,0.9-2.8,2.2-3.1c2.1-0.5,5.3,0.5,7.3,0.8c5,0.4,10.2,0,15.3,0.6
			C213.3,55.1,214.9,55.8,215.1,56.5"/>
	</g>
</g>
<g id="Lag_3">
	<g>
		<polygon fill="#61737A" points="54.8,83.3 74.9,83.3 74.1,87.6 63.8,87.6 63,92.5 72.8,92.5 72,96.8 62.2,96.8 60.4,107.1 
			50.7,107.1 		"/>
		<polygon fill="#61737A" points="80.2,83.3 100.3,83.3 99.5,87.6 89.2,87.6 88.4,92.5 98.2,92.5 97.4,96.8 87.6,96.8 86.6,102.8 
			96.9,102.8 96.1,107.1 76.1,107.1 		"/>
		<path fill="#61737A" d="M117.9,90.5l0.2-1.3c0.2-1.4-0.5-2-2.5-2c-2,0-2.9,0.6-3.2,2c-0.7,4.2,14.6,4.2,13.3,12
			c-0.9,5-4.2,6.5-13.8,6.5c-8.9,0-12.3-1.3-11.5-5.7l0.4-2.2h9.8l-0.3,1.7c-0.2,1.4,0.5,2,2.5,2c2,0,2.9-0.6,3.2-2
			c0.8-4.9-14.6-4.4-13.2-12.4c0.7-4.3,4.3-6.1,13.6-6.1c8.3,0,12,1.5,11.3,5.8l-0.3,1.9H117.9"/>
		<polygon fill="#61737A" points="137.3,87.6 130.1,87.6 130.8,83.3 155,83.3 154.3,87.6 147,87.6 143.6,107.1 133.9,107.1 		"/>
		<polygon fill="#61737A" points="155,107.1 159.2,83.3 168.9,83.3 164.8,107.1 		"/>
		<polygon fill="#61737A" points="202.2,83.3 189.9,107.1 176.9,107.1 173,83.3 183.1,83.3 184.3,101.7 184.4,101.7 192.2,83.3 		
			"/>
		<path fill="#61737A" d="M195.5,107.1l12.3-23.9h13l3.9,23.9h-10.1l-0.4-4.2h-6.8l-1.7,4.2H195.5z M209.2,98.6h4.7l-0.1-11.3h-0.1
			L209.2,98.6z"/>
		<polygon fill="#61737A" points="228.5,107.1 232.7,83.3 242.5,83.3 239.1,102.8 249.3,102.8 248.6,107.1 		"/>
		<path fill="#61737A" d="M116.8,63.4c-0.9,5.1-2.3,14.1-2.5,15.3h-12.2c0.5-2.2,2.6-14.1,2.9-15.4l1-5.5c0.2-0.9,2.3-13.9,2.5-15.1
			h12.2c-0.2,0.9-1.8,9.1-2.9,15.2L116.8,63.4"/>
		<path fill="#61737A" d="M116.8,63.4c-0.9,5.1-2.3,14.1-2.5,15.3h-12.2c0.5-2.2,2.6-14.1,2.9-15.4l1-5.5c0.2-0.9,2.3-13.9,2.5-15.1
			h12.2c-0.2,0.9-1.8,9.1-2.9,15.2L116.8,63.4"/>
		<path fill="#61737A" d="M118.5,60.7l0.2-1.2c0.6-3.8,1.2-7.6,2-11.4l0.6-2.9l0.3-1.5l0.1-0.4l0-0.2l0-0.1l0,0
			c-0.4-0.5,0.9,1.1-0.9-1.1h0h0h0l-0.8,0c-2,0-4.1,0-6.3,0.1c-1.5,0-3,0.1-4.6,0.1l-0.3,0l-0.1,0h-0.1c0.7-0.6-0.9,0.8-0.8,0.7v0
			l0,0l0,0l-0.1,0.6l-0.2,1.2l-0.4,2.4c-0.5,3.2-1.1,6.3-1.5,9.3c0.5-3.5,1.1-7,1.7-10.6l0.4-2.7l0-0.2l0,0l0,0
			c-0.8,0.6,1.1-0.9,0.9-0.7h0.1l0.3,0l0.7,0l1.4,0l5.4,0l2.7,0l1.3,0l0.2,0h0.1h0c1.9,2.4,0.5,0.7,0.9,1.2l0,0l0,0l-0.1,0.3
			l-0.1,0.6l-0.9,5.2c-0.6,3.5-1.2,6.9-1.6,10.3c0.4-1.3,0.8-2.9,1.1-4.8l1.2-6.7l0.6-3.3l0.2-0.8l0.1-0.4l0-0.2l0,0l0,0l0,0l0,0
			c1.3,1.6-1.7-2.2-1.4-1.8h0h-0.1l-1.7,0v0.3c-3.2,0-6.3-0.1-9.5,0l-0.9,0l-0.1,0c-0.5,0.5,1.2-1-1.2,1l0,0l0,0l0,0l0,0.1l-0.2,1.2
			l-0.4,2.3l-0.7,4.6c-0.9,6.1-1.9,12.2-3.3,18.5c0-0.5-0.1-0.2-0.1-0.1l0,0.1l0-0.1c0,0.1-0.1,0,0.1-0.8c-0.1,0.8-0.1,0.8-0.1,0.8
			c1.2-6.2,2.2-12.2,3.2-18.2l0.7-4.5l0.4-2.3l0.2-1.1l0-0.3l0-0.1l0-0.1l0,0l0,0c2.7-2.3,0.8-0.6,1.4-1.1h0l0.6,0
			c3.1,0,6.2-0.1,9.3-0.1l-7.3,0l-1.8,0l-0.5,0h-0.2h-0.1c1.2-1-1.7,1.4-1.4,1.2l0,0l0,0l0,0.1l-0.2,0.9l-0.6,3.6
			c-0.8,4.8-1.5,9.5-2.4,14.2c-0.8,4.7-1.7,9.5-2.6,14.3l-0.4,1.8l-0.2,0.9l0,0.1c0.6,0.8-1.4-1.7,1.4,1.8h0.3l4.2,0l7.5,0h0.3
			c0.6-0.6-1.4,1.3,1.4-1.3v0l0,0l0,0l0,0l0.1-0.4c0-0.3,0.1-0.6,0.1-0.9c0.1-0.6,0.2-1.3,0.3-1.7c0.3-3.4,0.8-6.8,1.4-10.1
			c-0.5,0.8-0.5-2.7-1.5,4.1c-0.1,0-0.2,0-0.3,0c0.8-6.8,0.4-9.5-1.1-2.8c-0.4,1.9-0.8,3.9-1.1,6.1c-0.2,1.1-0.8,5-0.8,5l0,0.2
			l0,0.1l0,0.1v0c0.7-0.6-1.5,1.3,1.5-1.3h0l-0.4,0l-0.9,0c-2.3,0-4.7,0-7.1,0l-3.6,0h-0.1c-1.3-1.6,1.8,2.2,1.4,1.8l0,0l0,0l0-0.1
			l0-0.2l0.1-0.4l0.2-0.9l0.4-1.7c1.3-6.7,2.6-13.4,3.6-20.2c0.3-2.3,0.7-4.7,1.1-7.1l0.6-3.6l0.1-0.9l0.1-0.5l0-0.2l0-0.1l0-0.1
			l0,0c-2.7,2.3-0.7,0.6-1.3,1.1l0,0h0l1.8,0l7.3-0.1l1.8,0l0.9,0l0.2,0l0.1,0c1.1,1.3-1.4-1.8-1.2-1.5l0,0l0,0l0,0l0,0.1l-0.1,0.5
			l-0.6,3.5c-0.6,3.4-1.9,9.2-2,10.9c-0.1,1.2,0,1.3,0.2,1.1c0.5-2.8,1-5.5,1.5-8.3l0.8-4.1l0.4-2l0.2-1l0.1-0.5l0-0.1v0
			c-0.6-0.8,0.9,1.1,0.7,0.9h0h0h-0.1l-0.3,0l-10.2,0.1l-1.3,0l-0.3,0h0l0,0h0c-0.2,0.2,1.6-1.4,0.9-0.7l0,0.1l0,0.2l-0.1,0.6
			l-0.4,2.5l-0.7,5l0.7-5l0.4-2.5l0.1-0.6l0-0.3l0,0v0c0.2-0.2-1.6,1.3-0.8,0.7h0l0,0l0.1,0l0.2,0l1.3,0c3.4,0,6.8-0.1,10.3-0.1
			l0.3,0h0.1h0l0,0h0c0.6,0.8-0.9-1.1-0.7-0.9v0l0,0.1l-0.1,0.5l-0.2,1l-0.4,2l-0.7,4.1c-0.5,2.7-1,5.4-1.4,8.2
			c0.2-0.2,0.3-0.3,0.4,0c0,0-0.3,1.7-0.4,2.5c-0.3,3.4,0.3,2.7,0.9,1C118.1,61.7,118.3,61.2,118.5,60.7"/>
		<path fill="#61737A" d="M139.2,62.9c3.7-0.2,7,1.5,6.4,4.8c-0.5,2.9-5.3,5.1-8.2,5.1L139.2,62.9 M128.8,60c-0.2,1-2.9,16.3-3.6,19
			h5c17.4,0,26.4-5.9,27.4-11.6c0.9-4.9-3.4-7.2-6.9-7.8l0.1-0.3c6-2.5,7.6-5.6,8-7.5c0.5-2.8-0.2-7-11-8.4
			c-4.5-0.6-8.5-0.6-16.2-0.6c0,1.1-1.5,10.1-1.8,11.6L128.8,60z M141.8,48.5c2.2-0.2,5.9,0.5,5.3,3.8c-0.7,3.7-4.7,5.7-7,5.7
			L141.8,48.5z"/>
		<path fill="#61737A" d="M139.2,62.9c3.7-0.2,7,1.5,6.4,4.8c-0.5,2.9-5.3,5.1-8.2,5.1L139.2,62.9 M128.8,60c-0.2,1-2.9,16.3-3.6,19
			h5c17.4,0,26.4-5.9,27.4-11.6c0.9-4.9-3.4-7.2-6.9-7.8l0.1-0.3c6-2.5,7.6-5.6,8-7.5c0.5-2.8-0.2-7-11-8.4
			c-4.5-0.6-8.5-0.6-16.2-0.6c0,1.1-1.5,10.1-1.8,11.6L128.8,60z M141.8,48.5c2.2-0.2,5.9,0.5,5.3,3.8c-0.7,3.7-4.7,5.7-7,5.7
			L141.8,48.5z"/>
		<path fill="#61737A" d="M137.7,64.8l0,0.3c-0.2,2.1-0.6,4.2-0.9,6.6l-0.1,0.6l0,0.3l0,0v0c-0.7-0.8,1,1.1,0.8,0.9l0,0h0h0l0,0
			l0.1,0l0.2,0c0.5-0.1,1-0.1,1.4-0.2c0.9-0.2,1.8-0.5,2.6-0.9c-0.9,0.5-1.9,0.8-3,1c-0.3,0.1-0.5,0.1-0.8,0.1l-0.4,0l-0.1,0h0l0,0
			c-1.7-2.1-0.5-0.6-0.9-1v0l0,0l0-0.2l0.2-1.5c0.3-2,0.5-3.9,0.6-5.8c-0.2,0.3-0.4,0.8-0.5,1.3l-0.5,3.7c0.1,0,0.2,0,0.3,0
			l-0.3,1.3l-0.1,0.6l-0.1,0.3l0,0.1l0,0l0,0c-1.1-1.3,1.5,1.8,1.2,1.5l0,0h0h0l0.2,0c1-0.1,2-0.3,2.8-0.6c1.8-0.7,3.4-1.5,4.9-2.9
			c-0.1,0.1,0,0.1,0.1,0.1l0,0l0,0c0,0,0.1,0-0.1,0.2c0.2-0.2,0.2-0.2,0.1-0.2c-1.5,1.5-3.2,2.3-4.9,3c-0.9,0.3-1.8,0.5-2.8,0.6
			l-0.2,0l-0.1,0l0,0c-2.7-3.2-0.8-0.9-1.4-1.6v0l0,0l0,0l0-0.3l0.1-0.6l0.2-1.3l-0.3,2l0,0.2l0,0v0c0.6,0.7-1.4-1.7,1.4,1.7l0,0
			l0,0l0.1,0l0.2,0l0.6-0.1c0.4,0,0.8-0.1,1.1-0.2c1.5-0.3,2.8-0.9,4.1-1.7c1.3-0.8,2.6-1.8,3.2-3.7c0.6-1.7,0.1-4-1.4-5.2
			c-0.2-0.2-0.7-0.6-1-0.7c-1.1-0.4-2.2-0.6-3.2-0.8c0.2,0.4-0.8,0.8,1.1,1.1c0,0.1-0.1,0.2-0.1,0.2c-2-0.1-2.5,0.8-1,1.3
			c1.8,0.5,3.6,1.6,2.7,3.3c-0.4,1-1.9,2-3.3,2.8c-0.5,0.2-1,0.5-1.6,0.6c-0.3,0.1-0.6,0.2-0.8,0.2l-0.4,0l-0.2,0l-0.1,0l0,0l0,0h0
			c2.7,3.2,0.7,0.9,1.3,1.6v0l0,0l0-0.1c0.2-1.3,0.4-2.7,0.5-4c0.1-0.9,0.6-2.5,0.5-3c0-0.4-0.2-0.4-0.3-0.4l-0.7,4.6l-0.4,2.8l0,0
			v0c-1.7-2-0.5-0.6-0.8-1h0l0,0l0,0l0.1,0l0.2,0l0.3,0c0.2,0,0.4,0,0.6-0.1c0.4-0.1,0.8-0.2,1.2-0.4c-0.8,0.4-1.6,0.6-2.4,0.6l0,0
			h0c-0.2-0.2,1.5,1.8,0.8,1v0l0,0l0,0l0,0l0-0.1l0-0.2l0-0.4l0.1-0.7l0.2-1.4l0.6-4.5c-0.1,0-0.3,0.1-0.4-0.1c0,0,0.1-0.5,0.1-0.7
			c-0.2-1-0.6-0.8-1-0.4L137.7,64.8"/>
		<path fill="#61737A" d="M130.6,56.3l0.2-1.6l1.1-7.6c0.2-1.3,0.4-2.5,0.5-3.9l0-0.3l0-0.1l0,0l0,0c-0.4,0.4,1-1-1,0.9h0.1l0.5,0
			l1,0l1.9,0c5.2,0,10.6,0,15.9,1.1c3.6,0.6,8.1,2.9,6.9,7c-0.4,1.8-1.8,3.3-3.4,4.5c-0.8,0.6-1.7,1.1-2.5,1.5l-1.3,0.6l-0.2,0.1
			l0,0c-0.2,0.3,0.5-0.6-0.5,0.6v0l0,0l0,0l0,0.1l0,0.1l0,0l0,0c-0.6-0.8,0.8,1.1,0.6,0.9l0,0l0,0l0.2,0l0.7,0.2l-0.8-0.2l-0.1,0
			l0,0c0.6,0.8-0.8-1.1-0.6-0.9l0,0l0-0.1l0-0.1l0-0.1l0,0c1-1.2,0.3-0.3,0.5-0.6l0,0l0.4-0.2l1.5-0.7c1-0.6,1.9-1.2,2.8-1.9
			c1.7-1.4,2.9-3.3,2.8-5.4c-0.3-4.3-6.2-5.5-10.5-6c-4.7-0.5-9.3-0.5-14-0.5l-1.7,0l-0.1,0l-0.1,0c2.2-2.1,0.6-0.6,1.1-1v0l0,0
			l0,0.3l0,0.5l-0.1,0.9l-0.5,3.4c-0.3,2.3-0.6,4.5-1,6.8c0.5-1.8,0.9-3.9,1.3-6.4c0.2-1.5,0.4-3,0.6-4.6c0-0.2,0-0.4,0.1-0.6l0-0.2
			l0-0.1c0.3-0.3-2.9,2.8-1.5,1.5h0l0,0l0.3,0l1.1,0l2.2,0c3,0,6,0,8.9,0.2c0-0.1,0-0.2,0-0.3c4.1,0.4,8.3,0.8,11.4,2.8
			c3.2,1.8,2.3,6.2-0.7,8.5c-0.7,0.6-1.5,1.1-2.4,1.6c-0.4,0.3-0.9,0.4-1.3,0.7l-0.7,0.3l-0.2,0.1l-0.1,0l0,0l0,0
			c-0.3,0.4,0.7-0.8-0.7,0.8l0,0l0,0.2l0,0l0,0c-0.2-0.3,1.7,2.4,0.9,1.3l0,0l0.1,0c1.8,0.4,3.6,1.1,4.8,2.4c2.5,2.6,0.7,7-2.5,9.1
			c0.4-0.4,0.1-0.2,0-0.2l-0.1,0.1l0.1-0.1c-0.1,0,0,0,0.7-0.6c-0.7,0.6-0.8,0.7-0.7,0.6c3.1-2.2,4.6-6.3,2.3-8.7
			c-1.1-1.2-2.8-2-4.6-2.4l-0.2,0l-0.1,0l0,0c0.9,1.4-1.3-1.8-1.1-1.5l0,0l0,0l0-0.2l0,0l0,0c0.4-0.4-0.8,1,0.8-1l0,0l0.1,0l0.6-0.3
			l1.3-0.6c0.8-0.5,1.6-0.9,2.3-1.5c3-2.1,4-6.2,1.2-8.1c-2.8-2-7-2.5-11-2.8c3.2,0.2,6.3,0.6,9,1.7c2.8,1.1,4.3,3.2,3.4,5.8
			c-0.8,2.4-3.4,4.3-6.1,5.5l-0.5,0.2l-0.3,0.1l-0.1,0.1c-0.4,0.5,0.8-1-0.9,1.1l0,0l0,0l0,0.1l0,0.1l0,0c-0.2-0.3,2.1,3.1,1.1,1.6
			l0,0l0.1,0l0.3,0.1l0.5,0.1c0.7,0.2,1.4,0.4,2,0.7c1.2,0.6,2.2,1.5,2.7,2.6c1,2.2-0.2,5.1-2.4,6.9c-2.2,1.9-5,3.2-7.9,4.2
			c-6,1.9-12.3,2.1-18.9,2.1h-1h-0.4c2.8,3.7,0.8,1,1.4,1.8v0l0-0.2l0.2-0.7c0.2-0.9,0.4-1.7,0.5-2.2c0.7-4.5,1.4-8.9,2.2-13.4
			c-0.5,1.1-0.3-3.5-1.8,5.4c-0.1,0-0.2,0-0.3,0c1.3-8.9,1-12.4-0.9-3.6c-0.5,2.5-1,5.2-1.6,8c-0.3,1.4-0.6,2.9-0.9,4.3l-0.2,1.1
			l-0.1,0.5c-1.3-1.7,1.8,2.3,1.5,1.9h0l0,0h0.5l2.3,0c6.2,0,13-0.4,19.1-2.4c4.3-1.5,9.2-3.7,11.5-8.8c1.1-2.5,0.8-5.8-1.2-8
			c-0.9-1.1-2.1-1.8-3.3-2.3c-0.6-0.3-1.2-0.5-1.8-0.7c-0.3-0.1-0.6-0.2-0.9-0.2L151,58l-0.1,0c2.4,3.5,0.7,1,1.2,1.8l0,0l0,0l0,0
			l0-0.1l0-0.1l0,0l0,0c-0.4,0.5,0.9-1.1-0.9,1.1l0,0l0,0c2.9-1.3,6.1-3.1,8-6.5c0.9-1.8,1.1-3.8,0.5-5.8c-0.7-2-2.4-3.3-4-4.1
			c-6.6-2.9-13.3-2.4-19.5-2.5c-1.1,0-2.5,0-3.9,0l-0.5,0l-0.3,0l-0.1,0h0c0.2-0.2-2.1,2.1-1.1,1.1l0,0l0,0v0l0,0
			c0,0.3-0.1,0.7-0.1,1l-0.3,2.1c-0.4,2.8-0.9,5.3-0.9,6.4c-0.2,1.6-0.1,1.7,0.1,1.5c0.6-3.6,1.2-7.3,1.7-10.9l0-0.1v0
			c-0.2,0.1,1.3-1.3,0.7-0.7h0.1h0.1h0.3l2.1,0l2.8,0c1.8,0,3.7,0,5.5,0.1c4.5,0.3,9.1,0.4,13.5,2.6c2.2,1,4.1,3.5,3.8,6.2
			c-0.1,2.6-1.8,4.9-3.6,6.3c1.8-1.5,3.4-3.6,3.6-6.2c0.3-2.6-1.5-5.2-3.7-6.2c-4.3-2.2-9-2.4-13.6-2.7c-1.8-0.1-3.7-0.1-5.5-0.1
			l-2.7,0l-1.4,0l-0.7,0l-0.5,0h-0.1c0.6-0.6-0.8,0.8-0.7,0.6l0,0v0l0,0.1c-0.4,3.5-1,7.2-1.6,10.8c0.2-0.2,0.4-0.5,0.4,0
			c0,0-0.4,2.2-0.6,3.3c-0.5,4.5,0.2,3.5,0.9,1.3C130.2,57.6,130.4,57,130.6,56.3"/>
		<path fill="#61737A" d="M140.3,50.2l0,0.3c-0.1,1.9-0.5,3.8-0.8,6l-0.1,1.2l0,0.1l0,0l0,0v0c0.3,0.4-0.8-0.9,0.8,0.9h0l0,0l0.1,0
			l0.3,0l0.7-0.1c0.9-0.2,1.7-0.5,2.4-0.9c-0.8,0.5-1.8,0.9-2.8,1l-0.4,0l-0.2,0l-0.1,0l0,0h0l0,0h0c0.8,0.9-1.1-1.3-0.9-1l0,0
			l0.1-0.7l0.2-1.3c0.3-1.8,0.5-3.6,0.5-5.3c-0.2,0.3-0.4,0.7-0.5,1.2l-0.5,3.4c0.1,0,0.2,0,0.3,0c-0.2,0.8-0.3,1.6-0.4,2.3l0,0.3
			l0,0v0c-0.3-0.3,2.3,2.7,1.2,1.4h0l0,0l0,0l0.1,0l0.2,0l0.7-0.1c0.4-0.1,0.9-0.3,1.3-0.4c1.6-0.7,3.1-1.7,4.4-3.1
			c-0.1,0.1,0,0.1,0.1,0.1l0,0l0,0c0,0,0.1,0-0.1,0.2c0.2-0.2,0.1-0.2,0.1-0.2c-1.2,1.5-2.7,2.5-4.3,3.1c-0.4,0.1-0.9,0.3-1.3,0.4
			l-0.7,0.1l-0.4,0l0,0l0,0h0c-0.6-0.7,1.3,1.6-1.3-1.6l0,0l0-0.1l0-0.1l0.3-2.3l-0.3,1.8l-0.1,0.4l0,0.2l0,0l0,0v0
			c-1.2-1.5,1.7,2,1.4,1.7h0l0.1,0l0.1,0c0.4,0,0.8-0.1,1.1-0.2c1.4-0.3,2.7-1,3.8-1.8c2-1.7,4.5-4.6,2.4-8.4
			c-0.2-0.3-0.7-0.8-0.9-0.9c-1.1-0.6-2.1-0.7-3.1-0.9c0.2,0.4-0.8,0.8,1,1.1c0,0.1-0.1,0.2-0.1,0.2c-1.8-0.1-2.3,0.9-0.9,1.3
			c1.7,0.5,2.4,1.1,1.5,3c-0.6,1.1-1.7,2.1-2.9,2.8c-0.4,0.2-0.9,0.5-1.3,0.6c-0.2,0.1-0.5,0.1-0.7,0.1l-0.2,0l-0.1,0l0,0l0,0h0
			c-1.2-1.4,1.6,2,1.3,1.6l0,0l0-0.1l0.1-0.5c0.2-1.2,0.3-2.4,0.4-3.6c0.1-0.9,0.5-2.3,0.4-2.8c0-0.3-0.2-0.4-0.3-0.3l-0.7,4.1
			l-0.3,2.5l0,0.3l0,0.2v0l0,0v0c-1.7-2.1-0.5-0.6-0.9-1h0l0,0l0,0l0.1,0l0.5-0.1c0.3-0.1,0.7-0.2,1-0.4c-0.3,0.1-0.7,0.3-1,0.4
			l-0.5,0.1l-0.1,0h0l0,0c-0.2-0.2,1.6,1.9,0.8,1v0l0,0l0,0l0-0.1l0-0.3l0.4-2.6l0.5-4.1c-0.1,0-0.3,0.1-0.4-0.1
			c0,0,0.1-0.4,0.1-0.6c-0.2-0.9-0.7-0.8-1-0.4L140.3,50.2"/>
		<path fill="#61737A" d="M187.4,79.2c-1.9,0-20.8-0.5-23.6-0.5c0.6-2.7,2.5-13.5,2.7-14.7l1.2-6.8c0.1-0.8,2.2-13,2.4-14.5
			c3,0,20.8-0.8,22.8-0.9l-1.3,8.4c-1.9,0-10.3,0.3-11.2,0.3l-1.2,6.7c1.1,0,7.2-0.3,9.5-0.5l-1.3,8.1c-1.4,0-8.4-0.2-9.6-0.2
			l-1.1,6c1.4,0,9.3,0.1,11.8-0.1L187.4,79.2"/>
		<path fill="#61737A" d="M187.4,79.2c-1.9,0-20.8-0.5-23.6-0.5c0.6-2.7,2.5-13.5,2.7-14.7l1.2-6.8c0.1-0.8,2.2-13,2.4-14.5
			c3,0,20.8-0.8,22.8-0.9l-1.3,8.4c-1.9,0-10.3,0.3-11.2,0.3l-1.2,6.7c1.1,0,7.2-0.3,9.5-0.5l-1.3,8.1c-1.4,0-8.4-0.2-9.6-0.2
			l-1.1,6c1.4,0,9.3,0.1,11.8-0.1L187.4,79.2"/>
		<path fill="#61737A" d="M189.4,73.2l0.3-2l0-0.3l0-0.1l0,0l0,0c-2.4-2.5-0.7-0.7-1.2-1.3h0l-0.1,0l-0.6,0l-1.2,0.1l-2.4,0.1
			l-4.8,0l-2.4,0l-0.3,0h-0.1c-0.9-1,1.2,1.4,1,1.2l0,0l0,0l0-0.1L178,70l0.2-1.2l0.4-2.4l0.2-1.2l0.1-0.3l0-0.1l0,0l0,0
			c-1.9,1.6-0.5,0.4-0.9,0.8h0l0.1,0l0.6,0l7.4,0.1l1.3,0h0.2c0.4-0.4-0.9,0.8,0.9-0.8l0,0l0-0.1l0-0.3l0.1-0.6
			c0.3-1.7,0.5-3.3,0.8-5l0.2-1.3l0.1-0.6l0-0.1l0,0c0.2,0.2-1.8-1.9-1-1h0l0,0l-0.5,0l-2.6,0.2c-1.2,0.1-2.5,0.2-3.7,0.2l-1.9,0.1
			l-0.5,0l-0.1,0h-0.1l0,0h0c0.3,0.4-0.8-0.9,0.8,0.9l0,0l0-0.2l0.2-1l0.7-3.9l0.2-1l0.1-0.5l0-0.1l0,0l0,0c0.7-0.6-0.9,0.8-0.8,0.6
			h0l0.3,0l2,0c2.6-0.1,5.3-0.1,7.9-0.2l1,0h0.1c-0.7,0.6,1-0.8,0.8-0.7v0l0,0l0,0l0-0.1l0-0.2l0.1-0.5l0.3-1.9
			c0.2-1.3,0.4-2.5,0.6-3.7l-0.6,4.3l-0.2,1.1l-0.1,0.5l0,0.3l0,0.1l0,0.1l0,0c0.7-0.6-1,0.9-0.8,0.7h0l-2.2,0
			c-2.9,0.1-5.9,0.2-8.9,0.2l-0.1,0h0c0.4-0.3-0.9,0.7,0.8-0.7l0,0l0,0.1l0,0.3l-0.1,0.5l-0.2,1.1l-0.4,2.2l-0.4,2.2l0,0.1l0,0.1
			l0,0c0.2,0.2-1.6-2-0.9-1h0l0.3,0l0.5,0l1.1,0l4.4-0.2l2.2-0.1l0.5,0l0.3,0c0.4,0.5-1-1.1,1,1.1l0,0l0,0l0,0.1l0,0.1l-0.2,1.1
			l-0.7,4.4l-0.3,2.2l0,0.1l0,0c0.2-0.2-1.8,1.6-1,0.8h-0.4l-0.6,0l-1.1,0l-4.4-0.1l-2.2,0l-0.5,0h-0.4c0.5-0.4-1,0.9,1-0.9l0,0
			l0,0.1l-0.2,1.1l-0.7,4.3l0,0.3l0,0.1l0,0.1l0,0l0,0c0.2,0.3-2.1-2.5-1.1-1.3l1.6,0l2.1,0l4.3-0.1l2.1-0.1l1-0.1l0.5,0l0.1,0
			c-0.3-0.3,2.6,2.8,1.4,1.5l0,0l0,0l0,0.1l0,0.3l0.1-0.4l0,0v0v0c-0.6-0.7,1.4,1.5-1.4-1.5h0h-0.1h-0.3l-0.9,0c-0.6,0-1.2,0-1.9,0
			c-1.3,0-2.8-0.1-4.4-0.1l-2.8,0h-0.7l-0.4,0h-0.3c3.1,3.7,0.8,1,1.5,1.8l0,0l0-0.1l0.2-1.4l0.5-2.8l0.2-1.4l0.1-0.3l0,0l0,0
			c0.3-0.3-2.8,2.4-1.5,1.3h0.3l0.7,0l5.6,0.1c0.9,0,1.9,0,2.8,0h0.1c2.9-2.5,0.8-0.7,1.5-1.2v0l0,0l0-0.2l0-0.3l0.1-0.7l0.2-1.4
			c-0.1,0-0.2,0-0.3,0l0.6-3.9l0.2-1l0.1-0.5l0-0.1c0.3,0.3-2.5-2.7-1.3-1.4l0,0l0,0l-0.1,0l-0.2,0l-1.9,0.1l-3.9,0.2l-1.9,0.1
			l-0.9,0l-0.2,0l-0.1,0l-0.1,0c-0.3-0.3,2.3,2.7,1.2,1.4l0,0l0,0l0.1-0.5l0.7-3.8l0.3-1.9l0.1-0.5c-2.4,2-0.7,0.6-1.2,1h0h0.1
			l0.1,0l0.2,0l1,0l7.6-0.2l1.9,0l0.1,0l0.1,0h0c0.5-0.4-1.1,1,1.1-1l0,0l0-0.2l0.1-0.5l0.1-0.9l0.6-3.8l0.3-1.9l0.1-0.9l0,0l0,0
			c-0.5-0.6,1.2,1.2-1.2-1.3l-0.1,0l-0.3,0l-0.5,0l-3.8,0.2c-5.1,0.2-10.3,0.4-15.6,0.5c0.7-0.1,0.3-0.1,0.1-0.1l-0.1,0l0.1,0
			c-0.1,0-0.1-0.1,1.3-0.1c-1.3,0-1.4,0.1-1.3,0.1c5.2-0.2,10.3-0.4,15.3-0.6l3.8-0.2l0.9-0.1l0.1,0h0l0,0c0.6,0.7-1.4-1.5,1.4,1.5
			l0,0.1l0,0.2l-0.1,0.5l-0.3,1.9l-0.6,3.7l-0.3,1.9l0,0.1l0,0c-0.6,0.5,1.3-1.1-1.3,1.1l0,0h-0.1l-0.2,0l-0.5,0l-0.9,0l-7.5,0.2
			c-0.6,0-1.2,0-1.9,0c-1.2,1,1.6-1.4,1.3-1.1v0l0,0l0,0.1l0,0.1l0,0.2l-0.1,0.5l-0.2,0.9l-0.6,3.7l-0.2,0.9l0,0.1l0,0l0,0
			c-0.6-0.7,1.4,1.6-1.4-1.6h0.1l0.2,0l0.5,0l1.9-0.1l3.8-0.2l1.9-0.1l0.9-0.1l0.1,0l0,0c-1.4-1.5,1.9,2,1.5,1.6l0,0l0,0.1l0,0.2
			l-0.1,0.5l-0.6,3.8l0.5-3l0.2-1.5l0-0.1l0,0l0,0c0.3,0.3-2.9-3.1-1.6-1.7l-0.2,0l-0.4,0l-0.7,0.1c-2,0.1-4,0.2-6,0.3l-1.5,0.1
			l-0.4,0l-0.2,0h-0.1h0c0.6,0.7-1.4-1.7,1.4,1.7l0,0l0.1-0.7l0.5-2.9l0.5-2.9c-0.6,0.5,1.4-1.2-1.4,1.1h0h0.1l0.1,0l0.2,0l0.4,0
			l0.7,0l1.5,0l5.9-0.2l1.5,0l0.7,0h0c0.6-0.5-1.4,1.2,1.4-1.2l0,0l0-0.1l0-0.2l0.1-0.4l0.4-2.9l0.4-2.9l0.2-1.5l0-0.2l0-0.1l0,0
			c0.3,0.3-2.8-3.1-1.5-1.6l0,0l-0.4,0l-0.7,0l-5.9,0.3c-4,0.2-7.9,0.3-11.9,0.5l-3,0.1l-0.4,0l-0.2,0h-0.1l0,0
			c-0.6,0.5,1.4-1.2-1.4,1.2l0,0l-0.1,0.7l-0.2,1.5l-1,5.9c-1.3,7.9-2.8,15.9-4.3,24c-0.1,0.7-0.3,1.7-0.5,2.7l-0.2,0.7l0,0.2v0h0
			c-0.3-0.4,2.7,3.4,1.4,1.8h0.1l0.5,0c0.5,0,0.9,0,1.3,0c5.6-0.1,11.2,0,16.9,0.1c-1.4-0.4,4.2-0.9-7-1c0-0.1,0-0.2,0-0.3
			c11.3-0.1,15.5-0.9,4.3-1.4c-3.2-0.1-6.6-0.3-10.2-0.4c-1.8,0-3.6-0.1-5.6-0.1l-0.1,0h-0.1c-1.3-1.7,1.8,2.3,1.5,1.9l0,0l0-0.2
			l0.1-0.4l0.1-0.7l0.3-1.4l0.5-2.8c1.4-7.6,2.8-15.6,4.1-23.2l0.7-4.2l0.4-2.1l0.2-1.1l0,0c-0.7,0.6,1.5-1.3-1.5,1.3h0l0.1,0l0.4,0
			l0.5,0c2.8-0.1,5.6-0.2,8.5-0.3l8.4-0.4l4.2-0.2l0.5,0l0.1,0c1.5,1.6-2-2.2-1.6-1.8v0l0,0l0,0l0,0.1l0,0.3l-0.1,1l-0.3,2.1
			l-0.4,2.9l-0.2,1.5l-0.1,0.4l0,0.1l0,0c-1.3,1.1,1.8-1.5,1.4-1.2h0h0l-0.2,0l-0.8,0l-6,0.2l-3,0.1l-0.7,0l-0.4,0l-0.1,0l0,0h0
			c0.3-0.2-2.6,2.2-1.4,1.2l0,0l0,0.2l-0.3,1.5l-0.5,3l-0.3,1.5l-0.1,0.4l0,0.1l0,0l0,0c-1.2-1.4,1.6,1.9,1.3,1.6h0.1l0.2,0l0.8,0
			c2-0.1,4.1-0.2,6.1-0.3l1.5-0.1l0.8-0.1l0.2,0l0,0c-2.8-3-0.8-0.8-1.4-1.5l0,0l0,0l0,0.1l-0.1,0.4l-0.4,3l-0.4,3l-0.2,1.5l0,0.1
			l0,0l0,0c-0.3,0.2,2.3-2,1.2-1h0l-0.2,0h-0.4l-0.7,0l-5.9-0.1c-0.7,0-1.5,0-2.3,0l-0.1,0h0c0.2-0.2-2.1,1.7-1.1,0.9l0,0l0,0l0,0
			l0,0.1l-0.1,0.3l-0.1,0.6l-0.2,1.3l-0.5,2.6l-0.1,0.7l0,0.2l0,0.1l0,0l0,0l0,0c-0.2-0.3,2.1,2.5,1.1,1.3h0l0.3,0l1.3,0
			c3.5,0,6.7,0,8.1-0.1c2-0.2,2.1-0.3,1.8-0.5c-2.4,0.1-4.7,0.1-7,0.1l-3.5,0l-0.9,0h-0.3h0h0c0.6,0.7-0.9-1-0.7-0.8l0-0.1l0.1-0.4
			l0.3-1.7l0.6-3.4l0-0.2l0-0.1l0-0.1l0,0c-0.6,0.5,0.9-0.7,0.7-0.6h0l0.4,0l0.9,0l5.2,0.1l1.7,0l0.9,0l0.4,0h0.1
			c-0.3,0.3,0.7-0.6-0.7,0.6l0,0l0-0.1l0-0.2l0.6-4.1l0.3-2.1l0.2-1l0.1-0.5l0,0c0.4,0.4-0.8-0.9,0.8,0.9l0,0l0,0l-0.1,0l-0.1,0
			l-0.3,0c-2.8,0.2-5.6,0.4-8.4,0.5l-0.5,0h-0.1l0,0c-0.4-0.5,0.8,1-0.9-1l0,0l0,0l0-0.1l0-0.3l0.2-1l0.3-2.1l0.3-2.1l0.2-1l0-0.1
			l0,0c1.8-1.5,0.5-0.4,0.9-0.8h0h0l0.1,0l0.3,0l0.5,0l8.4-0.3l-8.2,0.3l-1,0l0,0l0,0h0c0.2-0.2-1.7,1.4-0.9,0.7l0,0.1l0,0.1l0,0.3
			l-0.1,0.5l-0.3,2.1l-0.3,2.1l-0.2,1l-0.1,0.5l0,0l0,0l0,0c0.4,0.4-0.8-1,0.8,1l0.1,0h0.1l0.3,0c2.8-0.1,5.6-0.3,8.5-0.5l0.5,0
			l0.1,0l0,0c-1.6-1.8-0.5-0.5-0.8-0.9l0,0l0,0l0,0.1l0,0.3l-0.2,1l-0.3,2.1l-0.6,4.2l0,0.2l0,0.1v0c1.5-1.2,0.4-0.3,0.7-0.6h-0.1
			l-0.4,0l-0.8,0l-1.7,0l-3.4-0.1l-1.7,0l-0.9,0l-0.4,0h-0.1c-0.3,0.2,0.7-0.6-0.7,0.6l0,0l0,0.1l0,0.2l-0.6,3.4l-0.3,1.7l-0.1,0.4
			l0,0.2l0,0c-0.6-0.7,0.8,0.9,0.6,0.7h0l0,0h1l3.4,0c2.3,0,4.5,0,6.8-0.1c-0.3-0.1-0.7-0.2-0.1-0.4c0,0,0.2,0,0.5,0
			c0-0.5-0.1,0.5-0.1,0.7c-0.1,0.9-0.3,1.9-0.4,2.6c-0.5,5.6,0.1,4.3,0.9,1.6C189,74.9,189.2,74.1,189.4,73.2"/>
		<path fill="#61737A" d="M55.4,78.7c0.9-3.6,6.3-29.5,7.9-36.3l0.5-0.3C69.9,47.4,83.6,59.7,85,61c0.5-2.8,2.5-16.4,2.9-18.5
			l9.9,0.3c-0.9,4-2.6,11.5-4.3,18.9C92,69,90.5,76.2,89.8,79.5l-0.5,0.3c-5.2-3.9-20.4-18.4-21.1-19c-0.3,2.1-2.7,16.7-2.9,18.4
			L55.4,78.7"/>
		<path fill="#61737A" d="M55.4,78.7c0.9-3.6,6.3-29.5,7.9-36.3l0.5-0.3C69.9,47.4,83.6,59.7,85,61c0.5-2.8,2.5-16.4,2.9-18.5
			l9.9,0.3c-0.9,4-2.6,11.5-4.3,18.9C92,69,90.5,76.2,89.8,79.5l-0.5,0.3c-5.2-3.9-20.4-18.4-21.1-19c-0.3,2.1-2.7,16.7-2.9,18.4
			L55.4,78.7"/>
		<path fill="#61737A" d="M63,80.1l1.2,0l0.6,0l0.4,0l0,0h0h0h0c2.3-1.9,0.6-0.5,1.1-1l0,0l0-0.1c0.5-3.6,1-7.2,1.6-10.9l0.8-5.5
			l0.2-1.4l0.1-0.3l0-0.2l0,0c0.4-0.1-3.1,1-1.6,0.5l0,0l0,0l0.1,0.1l0.5,0.5l2.1,1.9c5.5,5.1,11.1,10.4,17.5,15.6l0.9,0.7l0.2,0.2
			l0,0c1.7,0.2,0.5,0,0.9,0.1l0,0l0,0l0.1,0l0.1-0.1l0.2-0.1l0,0l0,0c-0.1,0.1,0.9-1.1,0.5-0.6l0,0l0-0.1l0-0.1l0.4-2.1l0.9-4.4
			c0.6-2.9,1.2-5.9,1.9-8.9c1.3-6,2.7-11.9,3.9-17.5c-1.4,6.6-2.9,13.3-4.4,20l-2.1,10.1l-0.5,2.5l-0.1,0.3l0,0.2l0,0
			c0.4-0.6-0.6,0.8-0.5,0.6l0,0l-0.1,0l-0.3,0.1l-0.1,0l0,0l0,0c0.8,0.1-1.2-0.1-1-0.1l-0.1-0.1l-1-0.8c-1.3-1.1-2.7-2.2-4-3.4
			c-5.2-4.5-10.2-9.2-15.1-13.8l-0.9-0.9l-0.1-0.1l0,0c0.8-0.3-1.8,0.6,1.8-0.6l0,0l0,0.2l0,0.3l-0.1,0.6l-0.4,2.5L68,69.4
			c-0.5,3.3-1,6.5-1.4,9.7c0.5-2.5,1.2-5.6,1.7-9.2l1-6.5l0.3-1.6l0.1-0.8l0,0l0,0c-1.2,0.4,2.6-0.9-2.6,0.9l0,0l0,0l0.1,0.1
			l0.2,0.1l0.3,0.3l2.4,2.2c3.2,3,6.4,5.9,9.6,8.8l0.2-0.2c2.3,2.1,4.5,4.1,6.8,6.1c0.6,0.5,1.2,1,1.8,1.4l0.1,0
			c0.6,0.1-1.3-0.1,1.3,0.1l0,0l0,0l0.1-0.1l0.3-0.1l0.1,0l0,0c-0.1,0.2,1.3-1.7,0.7-0.9l0,0l0-0.1l0.1-0.3l0.2-1.1l0.9-4.4
			c1.2-5.8,2.4-11.6,3.7-17.4l1.9-8.6l1-4.3l0.1-0.3l0-0.1l0,0l0,0c-0.5-0.6,1,1.3-1-1.4l-0.1,0l-0.6,0l-1.1,0l-2.2-0.1l-4.5-0.1
			l-1.1,0l-0.3,0h0l0,0c1-0.8-1.4,1.1-1.1,0.9l0,0.1l0,0.1l-0.1,0.6l-0.4,2.2c-0.5,3-1,6-1.5,9c0.1-0.9,0-0.4-0.1-0.2l0,0.2l0-0.2
			c-0.1,0.2-0.1,0.1,0.2-1.4c-0.2,1.5-0.2,1.6-0.2,1.4c0.5-3,0.9-5.9,1.4-8.8l0.4-2.2l0.1-0.6l0-0.1l0-0.1l0,0
			c-1.2,1,1.6-1.3,1.3-1.1l0,0l0.3,0l7.7,0.2l1.1,0l0.5,0l0.1,0l0.1,0l0,0c-0.3-0.4,2.4,3,1.2,1.6l0,0l-0.1,0.3l-1,4.2l-1.9,8.5
			c-1.3,5.7-2.5,11.3-3.6,17.1l-0.9,4.3l-0.4,2.2l0,0.1l0,0c0.7-0.9-0.9,1.2-0.8,1l0,0l-0.1,0.1l-0.3,0.1L89.9,81
			c1.3,0.1-1.8-0.2-1.5-0.1l0,0l0,0l-0.1,0l-0.2-0.2l-0.9-0.7C84.9,78,82.7,76,80.4,74c1.7,1.6,3.5,3.1,5.3,4.6l1.4,1.1l0.7,0.6
			l0.4,0.3l0.2,0.1l0.1,0.1l0,0l0,0c0.7,0.1-1.5-0.1,1.5,0.2l0.4-0.2l0.1,0l0,0c-0.7,0.9,1-1.2,0.8-1l0-0.1l0-0.2l0.2-0.8l0.4-1.7
			l2.9-13.5c1-4.5,2-9,3-13.4l1.5-6.7l0-0.1l0-0.1l0,0c-2.7-3.5-0.8-1-1.4-1.7l-0.6,0l-6-0.2l-1.7,0l-0.9,0l-0.4,0l-0.1,0H88
			c-0.6,0.5,1.4-1.2-1.5,1.2l0,0l0,0.2c-0.2,1.2-0.4,2.3-0.6,3.4l-1.1,6.8l-1.1,6.9l-0.1,0.9l0,0.2l0,0.1l0,0
			c1.1-0.4-2.4,0.9,2.4-0.8l-0.1-0.1l-0.3-0.3l-1.3-1.2l-2.6-2.3c-3.5-3.1-6.9-6.2-10.5-9.4L65.9,42l-0.7-0.6l-0.3-0.3l-0.1-0.1l0,0
			c0.4,0-3.2-0.3-1.7-0.2l0,0l-0.4,0.2l0,0l0,0c0.1-0.2-1.3,1.8-0.7,1l0,0.1l-0.1,0.4l-0.2,0.9L60.8,47c-0.3,1.6-1,4.8-1.4,6.4
			c-1.2,6.4-2.5,12.8-3.8,19.2c0.7-1.5-0.1,5,2.5-7.8c0.1,0,0.2,0,0.3,0.1c-2.4,12.8-2.6,17.8,0.4,5.1c1.7-7.1,3.4-15.5,5.3-24.2
			l0.4-1.6l0.2-0.8l0.1-0.4l0,0l0,0c0.6-0.9-0.9,1.2-0.7,0.9l0,0l0.1-0.1l0.2-0.1l0.2-0.1l0,0c0.4,0-3.2-0.3-1.7-0.2l0,0l0,0
			l0.1,0.1l0.3,0.3l0.6,0.6l1.3,1.1l5.1,4.5c3.4,3,6.8,6.1,10.1,9.1l1.8,1.6l0.9,0.8l0.5,0.4l0.2,0.2l0.1,0.1l0,0
			c1.1-0.4-2.5,0.9,2.5-0.9l0,0l0,0l0-0.1l0.8-4.8l1.5-9.6l0.4-2.4l0.2-1.2l0.1-0.3l0,0c-3.2,2.6-0.9,0.7-1.6,1.3h0h0l0.1,0l0.2,0
			l0.6,0l4.9,0.1l2.4,0.1l1.2,0l0.3,0l0.2,0c0.3,0.4-2.8-3.6-1.5-1.9l0,0l0,0l0,0l0,0.1l-0.1,0.6l-1.1,4.8
			c-1.9,8.8-3.9,17.9-5.7,27.1l-0.7,3.4l-0.1,0.4l0,0.2l0,0.1l0,0l0,0c-0.2,0.2,1.4-1.7,0.7-0.9l-0.1,0l-0.4,0.2l0,0
			c2.7,0.3,0.8,0.1,1.4,0.1l0,0l0,0L90,78.5l-0.2-0.1l-1.3-1.1c-1.8-1.5-3.5-3-5.2-4.5c-3.5-3.1-6.8-6.1-10.1-9.1
			c-0.6-0.6-1.2-1.2-1.9-1.8l-1-1l-0.5-0.5l-0.3-0.3L69.1,60l-0.1-0.1l0,0l0,0l0,0l0,0c-0.8,0.3,1.9-0.6-1.9,0.6
			c-0.3,2-0.7,4.1-1,6.1c-0.7,4-1.2,7.6-1.4,9.3c-0.3,2.3-0.1,2.4,0.1,2.1c0.8-5.3,1.6-10.6,2.5-15.8l0.2-1l0.1-0.5l0-0.1
			c2.4-0.8,0.7-0.2,1.2-0.4l0,0l0,0l0,0l0,0l0.2,0.2l1.4,1.4l2.9,2.7l5.8,5.4c2.4,2.2,4.8,4.3,7.3,6.4l1.8,1.5l0.9,0.7l0.5,0.4
			l0.1,0.1l0,0c-0.4,0,0.9,0.1-0.8-0.1l0,0l0,0l0.1,0l0.4-0.2c0.4-0.5-0.5,0.7-0.4,0.6l0,0l0,0l0,0l0-0.1l0.1-0.3l0.1-0.6l0.2-1.2
			l0.5-2.4c1.3-6.3,2.6-12.7,3.9-19c-1.3,6.2-2.6,12.5-3.9,18.8l-1,4.8l0,0c-0.1,0.1,0.8-1,0.4-0.6l0,0l0,0l-0.1,0l-0.1,0.1
			l-0.1,0.1L89,79L89,79l0,0c-0.7-0.1,1,0.1,0.8,0.1l-0.5-0.4L88.4,78l-1.9-1.6c-2.5-2.1-4.9-4.3-7.3-6.5l-5.8-5.3l-2.9-2.7L69,60.5
			l-0.2-0.2l-0.1-0.1l0,0l0,0l0,0c-0.5,0.2,1.1-0.4-1.1,0.4l0,0l-0.1,0.5l-0.2,1c-0.8,5.2-1.6,10.4-2.4,15.6
			c0.2-0.4,0.4-0.7,0.4-0.1c-0.1-0.3,0.1,1.4-0.5,1.3c-1,0-2.2-0.1-3-0.1c-6.5,0.1-4.9,0.6-1.7,1C61,79.9,62,80,63,80.1"/>
		<path fill="#61737A" d="M211.8,68l2.1-2.9c0,0,0.4-0.3,0.7,0.3c0.3,0.5,1.2,2.8,4.6,3.1c2.9,0.2,4.1-3.1,4.1-3.1s0.8-1.5,1.7,0
			c0,0,0.8,2.6,4.3,2.8c0,0,2.7-0.2,3.9-2.8c0,0,0.6-1.7,1.4-0.2c0,0,1.3,3.1,4.8,2.8c0,0,1.3-0.4,1.5,0.3c0.1,0.3-0.3,1-0.7,1.5
			c-0.1,0.1-1.2,1.9-4,1.9c-2.8,0-4-2.3-4-2.3s-0.3-1.2-1.1,0c-0.7,1.2-2.1,2.4-4.6,2.4c-2.5,0-4.1-2.2-4.1-2.2s-0.5-1.1-1.1,0
			c-0.6,1.1-2.2,2.6-5.2,2.6C212.9,72,211.2,68.4,211.8,68"/>
		<path fill="#61737A" d="M199,75l2.1-2.9c0,0,0.4-0.3,0.7,0.3c0.3,0.5,1.2,2.8,4.6,3.1c2.9,0.2,4.1-3.1,4.1-3.1s0.8-1.5,1.7,0
			c0,0,0.8,2.6,4.3,2.8c0,0,2.7-0.2,3.9-2.8c0,0,0.6-1.7,1.4-0.2c0,0,1.3,3.1,4.8,2.8c0,0,1.3-0.4,1.5,0.3c0.1,0.3-0.3,1-0.7,1.5
			c-0.1,0.1-1.2,1.9-4,1.9c-2.8,0-4-2.3-4-2.3s-0.3-1.2-1.1,0c-0.7,1.2-2.1,2.4-4.6,2.4c-2.5,0-4.1-2.2-4.1-2.2s-0.5-1.1-1.1,0
			c-0.6,1.1-2.2,2.6-5.2,2.6C200.1,79,198.5,75.4,199,75"/>
		<path fill="#61737A" d="M241.7,60.5c0.7-2.1,1.2-4.4,1.2-6.8c0-11.4-9.2-20.6-20.6-20.6c-11.4,0-20.6,9.2-20.6,20.6
			c0,2.1,0.3,4.1,0.9,6c0,0,0.6,5,5.2,5c0,0,2.5,0.4,4.4-2.3c0,0,0.5-0.7,1,0l0.5,0.7c0,0,1.9,2,4.3,1.6c2.4-0.4,2.8-0.9,4.1-2.5
			c0,0,0.6-0.7,1.4,0c0,0,1.1,2.8,4.7,2.3c0,0,2.9-0.3,3.8-2.1c0,0,0.6-1.1,1.1-0.1c0,0,1.5,2.6,4.6,2.4
			C240.7,64.4,241.7,60.5,241.7,60.5"/>
		<path fill="#61737A" d="M211.9,68.4l2.1-2.9c0,0,0.4-0.3,0.7,0.3c0.3,0.5,1.2,2.8,4.6,3.1c2.9,0.2,4.1-3.1,4.1-3.1s0.8-1.5,1.7,0
			c0,0,0.8,2.6,4.3,2.8c0,0,2.7-0.2,3.9-2.8c0,0,0.6-1.7,1.4-0.2c0,0,1.3,3.1,4.8,2.8c0,0,1.3-0.4,1.5,0.3c0.1,0.3-0.3,1-0.7,1.5
			c-0.1,0.1-1.2,1.9-4.1,1.9c-2.8,0-4-2.3-4-2.3s-0.3-1.2-1.1,0c-0.7,1.2-2.1,2.4-4.6,2.4c-2.5,0-4.1-2.2-4.1-2.2s-0.5-1.1-1.1,0
			c-0.6,1.1-2.2,2.6-5.2,2.6C213,72.4,211.4,68.8,211.9,68.4"/>
		<path fill="#61737A" d="M199.1,75.4l2.1-2.9c0,0,0.4-0.3,0.7,0.3c0.3,0.5,1.2,2.8,4.6,3.1c2.9,0.2,4.1-3.1,4.1-3.1s0.8-1.5,1.7,0
			c0,0,0.8,2.5,4.3,2.8c0,0,2.7-0.2,3.9-2.8c0,0,0.6-1.7,1.4-0.2c0,0,1.3,3.1,4.8,2.8c0,0,1.3-0.4,1.5,0.3c0.1,0.3-0.3,1-0.7,1.5
			c-0.1,0.1-1.2,1.9-4.1,1.9c-2.8,0-4-2.3-4-2.3s-0.3-1.2-1.1,0c-0.7,1.2-2.1,2.4-4.6,2.4c-2.5,0-4.1-2.2-4.1-2.2s-0.5-1.1-1.1,0
			c-0.6,1.1-2.2,2.6-5.2,2.6C200.2,79.4,198.6,75.8,199.1,75.4"/>
		<path fill="#61737A" d="M201.7,54.1c0,2.1,0.3,4.1,0.9,6c0,0,0.6,5,5.2,5c0,0,2.5,0.4,4.4-2.3c0,0,0.5-0.7,1,0l0.5,0.7
			c0,0,1.9,2,4.3,1.6c2.4-0.4,2.8-0.9,4.1-2.5c0,0,0.6-0.7,1.4,0c0,0,1.1,2.8,4.7,2.3c0,0,2.9-0.3,3.8-2.1c0,0,0.6-1.1,1-0.1
			c0,0,1.5,2.6,4.6,2.4c3.2-0.2,4.1-4.1,4.1-4.1c0.7-2.1,1.1-4.4,1.1-6.8c0-11.4-9.2-20.6-20.6-20.6
			C210.9,33.4,201.7,42.7,201.7,54.1"/>
	</g>
</g>
</svg>
