<?xml version="1.0" encoding="utf-8"?>
<!-- Generator: Adobe Illustrator 18.1.0, SVG Export Plug-In . SVG Version: 6.00 Build 0)  -->
<!DOCTYPE svg PUBLIC "-//W3C//DTD SVG 1.1//EN" "http://www.w3.org/Graphics/SVG/1.1/DTD/svg11.dtd">
<svg version="1.1" id="Layer_1" xmlns="http://www.w3.org/2000/svg" xmlns:xlink="http://www.w3.org/1999/xlink" x="0px" y="0px"
	 viewBox="0 0 170.1 85" enable-background="new 0 0 170.1 85" xml:space="preserve">
<path fill="#253643" d="M103,28.9c-8.1-4.2-3.5-10.8-2.8-11.6c0.9-1,1.2-2.4,0.8-3.8c-0.6-2.2-2.9-3.4-5.1-2.8
	c-1.2,0.3-2.2,1.2-2.6,2.3l0,0c-0.6,1.4-0.8,2.7-0.8,2.7C91.2,27.6,103,28.9,103,28.9z"/>
<path fill="#253643" d="M89.5,23.2c3.4,4.5-0.9,6.9-1.5,7.2c-0.8,0.3-1.3,1-1.5,1.9c-0.2,1.4,0.7,2.7,2.1,2.9
	c0.8,0.1,1.5-0.1,2.1-0.6l0,0c0.7-0.6,1.1-1.3,1.1-1.3C95.7,27.1,89.5,23.2,89.5,23.2z"/>
<path fill="#253643" d="M83.5,28.2c0.8,0.3,1.7,0.3,2.4-0.2c1.2-0.8,1.5-2.3,0.7-3.5c-0.4-0.7-1.1-1-1.9-1.1l0,0
	c-0.9-0.1-1.7,0.1-1.7,0.1c-7.3,1.5-5.8,8.7-5.8,8.7C78.2,26.6,82.9,28,83.5,28.2z"/>
<path fill="#253643" d="M23.6,58.4V37.2c0-1.2,0.6-1.4,2.9-1.4c1.7,0,2.4,0.1,3,1.4l7.4,15h0.4v-15c0-1.2,0.5-1.4,2.4-1.4
	c1.9,0,2.4,0.2,2.4,1.4v21.3c0,1.2-0.5,1.4-2.8,1.4c-1.7,0-2.2-0.1-2.9-1.3l-7.7-15h-0.4v15c0,1.2-0.5,1.4-2.4,1.4
	C24.1,59.8,23.6,59.6,23.6,58.4z"/>
<path fill="#253643" d="M46,50.6c0-8.8,2.5-10.8,8.9-10.8c6.2,0,8.3,1.7,8.3,10.3c0,8.9-2.4,10.1-8.9,10.1C48,60.2,46,59.3,46,50.6z
	 M58.3,50.5c0-5.8-0.5-6.7-3.6-6.7c-3.3,0-3.9,1-3.9,6.4c0,5.8,0.5,6,3.6,6C57.7,56.2,58.3,55.9,58.3,50.5z"/>
<path fill="#253643" d="M70.7,58.1l-4.6-14.7c-0.2-0.8-0.4-1.4-0.4-1.8c0-1,0.2-1.4,2.4-1.4c2.1,0,2.5,0.2,2.8,1.6l3.5,13.7H75
	l3.6-13.7c0.3-1.4,0.7-1.6,2.8-1.6s2.4,0.3,2.4,1.4c0,0.3-0.1,1-0.3,1.8l-4.7,14.7c-0.4,1.4-1.1,1.7-4.1,1.7S71.1,59.5,70.7,58.1z"
	/>
<path fill="#253643" d="M86.7,58.4V41.6c0-1.2,0.5-1.4,2.4-1.4c1.8,0,2.4,0.2,2.4,1.4v16.8c0,1.2-0.6,1.4-2.4,1.4
	C87.2,59.8,86.7,59.7,86.7,58.4z"/>
<path fill="#253643" d="M95.5,50.6c0-9.7,3.1-10.8,8.3-10.8c1.9,0,4,0.4,5.3,0.7c0.8,0.2,1.1,0.6,1.1,2.1c0,1.4-0.3,1.9-0.8,1.9
	c-0.5,0-3-0.7-4.9-0.7c-3.1,0-4.1,0.5-4.1,6.2c0,6,0.5,5.9,4.3,5.9c2.6,0,4.3-0.7,4.9-0.7c0.5,0,0.8,0.5,0.8,1.9
	c0,1.4-0.3,1.8-1.1,2.1c-1.4,0.5-3.5,0.8-5.1,0.8C98.5,60.2,95.5,59.8,95.5,50.6z"/>
<path fill="#253643" d="M112.6,50.6c0-9.7,3.1-10.8,8.6-10.8c6.7,0,7.7,3.1,7.7,9.6c0,1.5-0.3,2.2-1.8,2.2h-9.6
	c0.1,4.6,0.9,4.4,4.4,4.4c3.2,0,5.4-0.7,6-0.7c0.5,0,0.8,0.5,0.8,1.9c0,1.4-0.3,1.8-1.1,2.1c-1.4,0.5-4.1,0.8-6,0.8
	C115.6,60.2,112.6,59.8,112.6,50.6z M117.4,48.7h7c0-3.5-0.2-4.9-3.3-4.9C118.5,43.8,117.6,44.4,117.4,48.7z"/>
<path fill="#253643" d="M132.6,58.4V35.7c0-1.2,0.5-1.4,2.4-1.4c1.8,0,2.4,0.2,2.4,1.4v22.7c0,1.2-0.6,1.4-2.4,1.4
	C133.2,59.8,132.6,59.7,132.6,58.4z"/>
<path fill="#253643" d="M141.7,58.4V35.7c0-1.2,0.5-1.4,2.4-1.4c1.8,0,2.4,0.2,2.4,1.4v22.7c0,1.2-0.6,1.4-2.4,1.4
	C142.3,59.8,141.7,59.7,141.7,58.4z"/>
<g>
	<path fill="#253643" d="M37.9,74.5v-5.8h3.7v0.9h-2.8V71h2.6v0.9h-2.6v2.6H37.9z"/>
	<path fill="#253643" d="M43.3,72.3v-1.5c0-1.7,0.5-2.2,2.2-2.2c1.7,0,2.2,0.5,2.2,2.2v1.5c0,1.7-0.5,2.2-2.2,2.2
		C43.9,74.5,43.3,74.1,43.3,72.3z M44.2,70.9v1.5c0,1.2,0.4,1.3,1.3,1.3c0.9,0,1.3-0.1,1.3-1.3v-1.5c0-1.2-0.4-1.3-1.3-1.3
		C44.6,69.5,44.2,69.7,44.2,70.9z"/>
	<path fill="#253643" d="M49.9,68.7h2.3c1.4,0,1.8,0.3,1.8,1.7v0c0,0.8-0.2,1.3-0.6,1.5c0.3,0.8,0.7,1.7,1,2.5h-1l-0.9-2.3h-1.6v2.3
		h-0.9V68.7z M50.9,69.6v1.7h1.4c0.7,0,0.9-0.1,0.9-0.8v0c0-0.8-0.2-0.8-0.9-0.8H50.9z"/>
	<path fill="#253643" d="M56.1,68.7h2.3c1.4,0,1.8,0.3,1.8,1.7v0c0,0.8-0.2,1.3-0.6,1.5c0.3,0.8,0.7,1.7,1,2.5h-1l-0.9-2.3H57v2.3
		h-0.9V68.7z M57,69.6v1.7h1.4c0.7,0,0.9-0.1,0.9-0.8v0c0-0.8-0.2-0.8-0.9-0.8H57z"/>
	<path fill="#253643" d="M62.3,74.5v-5.8h3.8v0.9h-2.9v1.5h2.7V72h-2.7v1.6h2.9v0.9H62.3z"/>
	<path fill="#253643" d="M72,69.6h-1.7v4.9h-0.9v-4.9h-1.6v-0.9H72V69.6z"/>
	<path fill="#253643" d="M74.9,70v4.5h-0.9v-5.8h1.2l2.3,4.4v-4.4h0.9v5.8h-1.2L74.9,70z"/>
	<path fill="#253643" d="M80.8,74.5v-5.8h0.9v5.8H80.8z"/>
	<path fill="#253643" d="M84.9,70v4.5H84v-5.8h1.2l2.3,4.4v-4.4h0.9v5.8h-1.2L84.9,70z"/>
	<path fill="#253643" d="M93.2,71.4h1.6v2.9c-0.4,0.2-1.1,0.2-1.6,0.2c-1.6,0-2.6-0.5-2.6-2.2v-1.5c0-1.7,0.9-2.2,2.6-2.2
		c0.5,0,1.2,0,1.7,0.2l-0.2,0.8c-0.3-0.1-1.2-0.1-1.5-0.1c-0.9,0-1.7,0.3-1.7,1.3v1.5c0,1,0.4,1.3,1.7,1.3c0.2,0,0.4,0,0.7,0v-1.4
		h-0.7V71.4z"/>
	<path fill="#253643" d="M100.1,72.3v-1.5c0-1.7,0.5-2.2,2.2-2.2c1.7,0,2.2,0.5,2.2,2.2v1.5c0,1.7-0.5,2.2-2.2,2.2
		C100.7,74.5,100.1,74.1,100.1,72.3z M101,70.9v1.5c0,1.2,0.4,1.3,1.3,1.3s1.3-0.1,1.3-1.3v-1.5c0-1.2-0.4-1.3-1.3-1.3
		C101.4,69.5,101,69.7,101,70.9z"/>
	<path fill="#253643" d="M107.6,70v4.5h-0.9v-5.8h1.2l2.3,4.4v-4.4h0.9v5.8H110L107.6,70z"/>
	<path fill="#253643" d="M117.2,73.6v0.8h-3.6v-5.8h0.9v4.9H117.2z"/>
	<path fill="#253643" d="M119,74.5v-5.8h0.9v5.8H119z"/>
	<path fill="#253643" d="M123.2,70v4.5h-0.9v-5.8h1.2l2.3,4.4v-4.4h0.9v5.8h-1.2L123.2,70z"/>
	<path fill="#253643" d="M129.1,74.5v-5.8h3.8v0.9H130v1.5h2.7V72H130v1.6h2.9v0.9H129.1z"/>
</g>
</svg>
