<?xml version="1.0" encoding="utf-8"?>
<!-- Generator: Adobe Illustrator 18.1.0, SVG Export Plug-In . SVG Version: 6.00 Build 0)  -->
<!DOCTYPE svg PUBLIC "-//W3C//DTD SVG 1.1//EN" "http://www.w3.org/Graphics/SVG/1.1/DTD/svg11.dtd">
<svg version="1.1" id="Lag_1" xmlns="http://www.w3.org/2000/svg" xmlns:xlink="http://www.w3.org/1999/xlink" x="0px" y="0px"
	 viewBox="0 0 400 400" enable-background="new 0 0 400 400" xml:space="preserve">
<g>
	<path fill="#426C80" d="M356.7,350.8l-226.2,42.3c-30.6,3.5-30.9,3.7-35.2-12.7L32.9,138.9c-6.7-27.4-6.7-27.4,12.7-35.2
		l238.8-91.4C314.6,1.3,314.7,0.8,319.6,25l49.9,290.6C373.9,347.2,369.8,347.7,356.7,350.8z"/>
	<path fill="#253643" d="M330.7,374.1l-230.1,0.4c-30.7-2.1-31-2-32.3-18.9L50.8,106.8c-1.6-28.1-1.6-28.1,18.9-32.3l251.4-46.5
		c31.7-5.4,31.9-5.8,32.3,18.9l-3.8,294.8C348.2,373.6,344.1,373.4,330.7,374.1z"/>
	<g>
		<path fill="#FFFFFF" d="M290.6,230.4c1.7-9.4,4.7-28.1,2.9-33.7c-0.5-1.6-1.6-3-3.6-5.5c-3.2-4.1-8.5-10.9-16-23.8
			c-2.6-4.5-7.5-23.6-9.6-31.8c-1.7-6.6-1.7-6.8-2.3-7.6c-0.5-0.8-2.2-2.5-5.3-1.4c-0.5,0.2-1.1,0.4-1.9,0.7
			c-4.5,1.8-15.1,5.9-25,2.7c-4.2-1.3-9.4-4.7-15-9.6c-1.7-1.5-3.4-3.1-4.8-4.5c-0.7-0.7-5.5-6.2-5.5-6.2c0,0-4,4.6-5.6,6.2
			c-1.4,1.5-3.1,3-4.8,4.5c-5.6,5-10.8,8.3-15,9.6c-9.9,3.2-20.5-1-25-2.7c-0.8-0.3-1.4-0.5-1.9-0.7c-3.2-1-4.8,0.7-5.3,1.4
			c-0.6,0.8-0.6,0.9-2.3,7.6c-2.1,8.2-7,27.3-9.6,31.8c-7.4,12.9-12.8,19.7-16,23.8c-2,2.6-3.1,4-3.6,5.5c-1.7,5.2,0.9,22.2,2.6,32
			l0.8,4.6l2.8,0h165.6c0,0,2.8,0,2.7,0L290.6,230.4z M123.4,199.3c0.3-0.5,1.3-1.8,2.3-3.1c3.1-4,8.9-11.3,16.6-24.7
			c2.9-5.1,6.9-20.1,10.4-33.8c0.2-0.7,0.3-1.3,0.5-2c6,2.3,17.2,5.8,28.5,2.2c8.5-2.7,17.2-10.2,22.9-16c5.7,5.7,14.3,13.3,22.9,16
			c11.3,3.6,22.5,0.1,28.5-2.2c0.2,0.6,0.3,1.3,0.5,2c3.5,13.7,7.5,28.8,10.4,33.8c7.7,13.4,13.5,20.7,16.6,24.7
			c1,1.3,2,2.6,2.3,3.1c0.8,2.7-0.6,14.3-2.6,25.8H125.9C124,213.6,122.6,202,123.4,199.3z"/>
		<g>
			<path fill="#FFFFFF" d="M181.3,261.1c0,14.5,0,30.1,0,44.6c0,2-0.1,2.1-2.1,2.1c-0.9,0-1.8,0-2.8,0c-0.8,0-1.1-0.4-1.1-1.1
				c0-0.3,0-0.6,0-1c0-16.4-0.2-33-0.2-49.5c0-3.7,0.7-4.3,4.4-4.4c2.1-0.1,3.3,0.9,4.3,2.5c4.6,7.6,9.5,15.4,14.1,23
				c4.2,6.9,13.3,21.3,13.3,21.3c0-14.5,0-30.2,0-44.7c0-2.1,0.1-2.2,2.2-2.2c0.9,0,1.8,0,2.7,0c0.8,0,1.1,0.6,1.1,1.3
				c0,0.4,0,0.5,0,0.9c0,16.4,0,32.9,0,49.3c0,3.5-0.6,4.5-4.5,4.5c-1.9,0-3.2-0.7-4.1-2.3c-5.8-9.4-11.6-18.8-17.3-28.3
				C188.1,272,181.3,261.1,181.3,261.1z"/>
			<path fill="#FFFFFF" d="M135.4,279.8c0-5.5,0-10.9,0-16.4c0-2.5,0.8-4.7,2.2-6.8c2.3-3.3,5.6-4.8,9.4-4.8c7.8,0,15,0,22.5,0
				c1,0,1.6,0.5,1.6,1.6c0,4.4,0.4,4-3.8,4c-6.1,0-12.1,0-18.2,0c-1.4,0-2.9,0.1-4.3,0.6c-2.2,0.8-3.2,2.7-3.3,4.9
				c-0.1,3.8,0,7.6-0.1,11.4c0,0.9,0.5,1,1.2,1c8,0,15.9,0,23.9,0c1.7,0,1.9,0.1,1.9,1.9c0.1,3.5,0.1,3.5-3.4,3.5
				c-7.4,0-14.8,0-22.2,0c-1,0-1.4,0.2-1.4,1.3c0.1,4.6,0,9.4,0.1,14c0.1,3.9,2.2,6.1,6,6.3c5.1,0.1,10.3,0.1,15.4,0.1
				c2.4,0,4.8,0,7.1,0c1.2,0,1.6,0.5,1.6,1.6c0,0.8,0,1.7,0,2.5c0,0.9-0.5,1.4-1.4,1.4c-7.9,0-15.8,0.1-23.7-0.1
				c-4-0.1-7.6-1.6-9.5-5.4c-0.8-1.7-1.4-3.6-1.5-5.5C135.3,291.2,135.5,285.3,135.4,279.8C135.4,279.8,135.4,279.8,135.4,279.8z"/>
			<path fill="#FFFFFF" d="M321.3,306.5c-0.1-0.4-0.2-0.8-0.3-1.2c-1-2.8-1.9-5.5-2.9-8.3c-1.3-3.6-2.5-7.3-3.8-10.9
				c-1.5-4.4-3.1-8.8-4.7-13.2c-1.1-3.1-2.1-6.2-3.2-9.3c-1.1-3.2-2.3-6.3-3.4-9.5c-0.4-1.2-1.3-2.3-2.6-2.3c-0.7,0-3,0-3.8,0
				c-1.3,0-2.2,1-2.6,2.3c-1.1,3.2-2.3,6.4-3.4,9.5c-1.1,3.1-2.1,6.2-3.2,9.3c-1.5,4.4-3.1,8.8-4.7,13.2c-1.3,3.6-2.5,7.3-3.8,10.9
				c-1,2.8-1.9,5.5-2.9,8.3c-0.1,0.4-0.3,0.8-0.3,1.2c-0.1,0.7,0.1,1.2,0.9,1.2c1.5,0,3.1,0.1,4.6,0c0.4,0,1.1-0.5,1.2-1
				c0.9-2.4,1.7-4.8,2.5-7.2c0.5-1.4,0.9-2.8,1.4-4.2c0.2-0.7,0.7-0.9,1.5-0.9c3.6,0,7.1,0,10.7,0c0,0,0,0,0,0c0,0,0,0,0,0
				c0,0,0,0,0,0c3.6,0,7.1,0,10.7,0c0.8,0,1.3,0.2,1.5,0.9c0.5,1.4,0.9,2.8,1.4,4.2c0.8,2.4,1.6,4.8,2.5,7.2c0.2,0.4,0.8,0.9,1.2,1
				c1.5,0.1,3.1,0.1,4.6,0C321.1,307.7,321.4,307.3,321.3,306.5z M307.5,289c-2.3,0-4.5,0-6.8,0c-0.7,0-1.5,0-2.2,0l0,0c0,0,0,0,0,0
				c0,0,0,0,0,0l0,0c-0.7,0-1.5,0-2.2,0c-2.3,0-4.5,0-6.8,0c-0.6,0-1.1,0-0.8-0.8c1-3.1,2-6.2,3-9.3c1.8-5.5,3.6-11.1,5.4-16.6
				c0.4-1.2,0.8-2.3,1.2-3.5h0.1h0h0.1c0.4,1.2,0.9,2.3,1.2,3.5c1.8,5.5,3.6,11.1,5.4,16.6c1,3.1,2,6.2,3,9.3
				C308.6,289,308,289,307.5,289z"/>
			<path fill="#FFFFFF" d="M272.6,255.9c0-0.6,0-1.2,0-1.8c-0.1-1-0.5-2.2-1.5-2.2c-1.3,0-2.9,0-4.2,0c-1.3,0-2.2,0.9-2.8,2.2
				c-1.3,3-2.5,6-3.7,9c-2,4.7-3.9,9.4-5.9,14.1c-2.1,5.1-4.2,10.3-6.3,15.4c-0.4,1-0.8,2-1.3,3c-0.4-1-0.8-2-1.3-3
				c-2.1-5.1-4.2-10.3-6.3-15.4c-1.9-4.7-3.9-9.4-5.9-14.1c-1.2-3-2.5-6-3.7-9c-0.5-1.3-1.4-2.2-2.8-2.2c-1.4,0-2.9,0-4.2,0
				c-1.1,0-1.4,1.2-1.5,2.2c0,0.6,0,1.2,0,1.8c0,16.4,0,33.4,0,49.8c0,2,0,2.1,2,2.1c0.9,0,1.7,0,2.7,0c0.9,0,1.3-0.4,1.3-1.2
				c0-0.2,0-0.5,0-0.7c0-13.9,0-27.7,0-41.6c0-0.4,0-2.8,0-3.2c0,0,2.3,6.5,3.2,8.6c1.5,3.7,3.1,7.4,4.6,11.1
				c1.7,4.1,3.4,8.2,5.1,12.3c0.9,2.2,1.9,4.4,2.9,6.6c0.4,0.9,1.1,1.4,2,1.4c0.6,0,1.3,0,1.9,0l0,0c0,0,0,0,0,0c0,0,0,0,0,0l0,0
				c0.6,0,1.3,0,1.9,0c1,0,1.6-0.5,2-1.4c1-2.2,2-4.4,2.9-6.6c1.7-4.1,3.4-8.2,5.1-12.3c1.5-3.7,3.1-7.4,4.6-11.1
				c0.9-2.2,3.2-8.6,3.2-8.6c0,0.4,0,2.8,0,3.2c0,13.9,0,27.7,0,41.6c0,0.2,0,0.5,0,0.7c0.1,0.8,0.5,1.2,1.3,1.2c1,0,1.8,0,2.7,0
				c2,0,2,0,2-2.1C272.6,289.3,272.6,272.3,272.6,255.9z"/>
			<path fill="#FFFFFF" d="M132.5,251.8c-1.2,0-2.5,0-3.7,0c-1.2,0-1.7,0.4-2,1.4c-0.3,0.7-0.5,1.4-0.7,2.2
				c-1.3,3.9-2.6,7.9-3.9,11.8c-1.7,4.9-3.5,9.9-5.1,14.8c-1.7,5.2-3.4,10.5-5.1,15.7c-0.4,1.2-1.2,3.5-1.2,3.5c0,0-0.8-2.3-1.2-3.5
				c-1.7-5.2-3.3-10.5-5.1-15.7c-1.7-5-3.5-9.9-5.1-14.8c-1.3-3.9-2.6-7.8-3.9-11.8c-0.2-0.7-0.5-1.4-0.7-2.2c-0.3-1-0.8-1.4-2-1.4
				c-1.2,0-2.5,0-3.7,0c-0.8,0-1.2,0.3-0.9,1.2c1,2.8,1.9,5.6,2.9,8.4c1.1,3.2,2.2,6.4,3.4,9.7c1,3,2.1,6,3.2,9
				c1.1,3.3,2.3,6.5,3.4,9.8c1.5,4.4,3.1,8.8,4.6,13.2c0.3,0.8,0.6,1.9,0.8,2.7c0.4,1.2,1.2,2,2.4,2c0.7,0,1.3,0.1,2,0.1l0,0h0h0h0
				c0.7,0,1.3,0,2-0.1c1.2-0.1,2-0.8,2.4-2c0.3-0.8,0.5-1.9,0.8-2.7c1.5-4.4,3.1-8.8,4.6-13.2c1.1-3.3,2.3-6.5,3.4-9.8
				c1.1-3,2.1-6,3.2-9c1.1-3.2,2.3-6.4,3.4-9.7c1-2.8,1.9-5.6,2.9-8.4C133.7,252.1,133.3,251.8,132.5,251.8z"/>
		</g>
	</g>
</g>
</svg>
